<?xml version="1.0" standalone="no"?>
<!DOCTYPE svg PUBLIC "-//W3C//DTD SVG 1.1//EN" "http://www.w3.org/Graphics/SVG/1.1/DTD/svg11.dtd" >
<svg xmlns="http://www.w3.org/2000/svg">
<metadata></metadata>
<defs>
<font id="aktiv_grotesklight_italic" horiz-adv-x="597" >
<font-face units-per-em="1000" ascent="714" descent="-286" />
<missing-glyph horiz-adv-x="225" />
<glyph unicode="ff" horiz-adv-x="624" d="M402 667q-13 5 -26 8t-36 3q-42 0 -65 -23.5t-33 -68.5l-14 -66h139l-10 -48h-139l-100 -472h-58l100 472h-81l10 48h81l14 64q17 79 58 112t99 33q24 0 43 -4t36 -11zM714 667q-13 5 -26 8t-36 3q-42 0 -65 -23.5t-33 -68.5l-14 -66h139l-10 -48h-139l-100 -472h-58 l100 472h-81l10 48h81l14 64q17 79 58 112t99 33q24 0 43 -4t36 -11z" />
<glyph unicode="fi" horiz-adv-x="518" d="M402 667q-13 5 -26 8t-36 3q-42 0 -65 -23.5t-33 -68.5l-14 -66h139l-10 -48h-139l-100 -472h-58l100 472h-81l10 48h81l14 64q17 79 58 112t99 33q24 0 43 -4t36 -11zM345 0l110 520h59l-110 -520h-59zM471 633l18 88h66l-18 -88h-66z" />
<glyph unicode="fl" horiz-adv-x="518" d="M402 667q-13 5 -26 8t-36 3q-42 0 -65 -23.5t-33 -68.5l-14 -66h139l-10 -48h-139l-100 -472h-58l100 472h-81l10 48h81l14 64q17 79 58 112t99 33q24 0 43 -4t36 -11zM345 0l153 721h58l-152 -721h-59z" />
<glyph unicode="ffi" horiz-adv-x="830" d="M402 667q-13 5 -26 8t-36 3q-42 0 -65 -23.5t-33 -68.5l-14 -66h139l-10 -48h-139l-100 -472h-58l100 472h-81l10 48h81l14 64q17 79 58 112t99 33q24 0 43 -4t36 -11zM657 0l110 520h59l-110 -520h-59zM783 633l18 88h66l-18 -88h-66zM714 667q-13 5 -26 8t-36 3 q-42 0 -65 -23.5t-33 -68.5l-14 -66h139l-10 -48h-139l-100 -472h-58l100 472h-81l10 48h81l14 64q17 79 58 112t99 33q24 0 43 -4t36 -11z" />
<glyph unicode="ffl" horiz-adv-x="830" d="M402 667q-13 5 -26 8t-36 3q-42 0 -65 -23.5t-33 -68.5l-14 -66h139l-10 -48h-139l-100 -472h-58l100 472h-81l10 48h81l14 64q17 79 58 112t99 33q24 0 43 -4t36 -11zM657 0l153 721h58l-152 -721h-59zM714 667q-13 5 -26 8t-36 3q-42 0 -65 -23.5t-33 -68.5l-14 -66 h139l-10 -48h-139l-100 -472h-58l100 472h-81l10 48h81l14 64q17 79 58 112t99 33q24 0 43 -4t36 -11z" />
<glyph unicode=" "  horiz-adv-x="225" />
<glyph unicode="&#x09;" horiz-adv-x="225" />
<glyph unicode="&#xa0;" horiz-adv-x="225" />
<glyph unicode="!" horiz-adv-x="208" d="M247 721l-115 -526h-53l107 526h61zM31 0l19 93h73l-19 -93h-73z" />
<glyph unicode="&#x22;" horiz-adv-x="305" d="M138 473h-48l45 244h61zM296 473h-48l45 244h61z" />
<glyph unicode="#" d="M368 187h-187l-68 -187h-55l66 187h-105l8 44h112l83 225h-113l9 46h121l66 183h57l-68 -183h187l65 183h57l-66 -183h105l-9 -46h-113l-83 -225h114l-8 -44h-121l-66 -187h-57zM196 231h187l81 225h-187z" />
<glyph unicode="$" d="M224 -13q-37 5 -70 17.5t-57.5 35t-39.5 55.5t-16 80h55q2 -67 40.5 -99t98.5 -40l63 297q-82 19 -125.5 59t-43.5 113q0 51 20 90t54 66t79.5 41t97.5 15l17 79h49l-18 -82q46 -6 77.5 -22.5t52 -40t31.5 -50.5t16 -55l-55 -11q-6 26 -14.5 47.5t-23 38t-37.5 28 t-57 15.5l-60 -286l15 -3q85 -17 124 -62t39 -113q0 -99 -64.5 -158t-188.5 -59h-10l-19 -93h-50zM345 324l-61 -291h4q92 0 140 43t48 119q0 17 -3 35.5t-14 36t-31 31t-54 20.5zM186 503q0 -45 30.5 -73.5t89.5 -40.5l4 -1l59 278q-52 -2 -87 -17t-56.5 -37.5t-30.5 -51 t-9 -57.5z" />
<glyph unicode="%" horiz-adv-x="896" d="M264 0h-66l503 698h64zM658 -20q-64 0 -103 41t-39 110q0 47 14 96.5t41 90.5t67.5 66.5t94.5 25.5q64 0 102.5 -41t38.5 -110q0 -48 -13 -97t-40 -90t-68 -66.5t-95 -25.5zM730 363q-39 0 -69 -21.5t-49.5 -54.5t-29 -73t-9.5 -78q0 -48 19.5 -78.5t67.5 -30.5 q39 0 69 21.5t49.5 54.5t29 73t9.5 78q0 48 -19.5 78.5t-67.5 30.5zM230 284q-64 0 -103 41t-39 110q0 47 14 96.5t41 90.5t67.5 66.5t94.5 25.5q64 0 102.5 -41t38.5 -110q0 -48 -13 -97t-40 -90t-68 -66.5t-95 -25.5zM302 667q-39 0 -69 -21.5t-49.5 -54.5t-29 -73 t-9.5 -78q0 -48 19.5 -78.5t67.5 -30.5q39 0 69 21.5t49.5 54.5t29 73t9.5 78q0 48 -19.5 78.5t-67.5 30.5z" />
<glyph unicode="&#x26;" horiz-adv-x="624" d="M37 160q0 46 15 81.5t42 63.5t67 52.5t90 49.5q-20 34 -35.5 73t-15.5 84q0 33 12 62t34.5 50.5t53.5 34t70 12.5q34 0 60 -10.5t43 -28t25.5 -40t8.5 -45.5q0 -43 -14 -74.5t-38.5 -55.5t-57 -42t-69.5 -36l158 -246q26 40 40 86.5t19 94.5h58q-6 -62 -28 -121t-60 -105 l65 -100h-66l-38 59q-41 -36 -93.5 -55.5t-116.5 -19.5q-63 0 -106.5 15.5t-70.5 41t-39.5 56.5t-12.5 63zM267 34q59 0 104 18.5t77 48.5l-170 265q-40 -21 -72.5 -40t-56.5 -41.5t-36.5 -52t-12.5 -68.5q0 -23 8 -45.5t27.5 -41t51.5 -31t80 -12.5zM259 566 q0 -37 12.5 -69.5t30.5 -65.5q34 16 62 32t47.5 34t30 41.5t10.5 55.5q0 37 -23 60t-63 23q-52 0 -79.5 -30.5t-27.5 -80.5z" />
<glyph unicode="'" horiz-adv-x="147" d="M138 473h-48l45 244h61z" />
<glyph unicode="(" horiz-adv-x="246" d="M348 741q-104 -135 -163 -293.5t-59 -334.5q0 -65 8 -121t30 -117h-55q-10 23 -18.5 53.5t-14.5 63.5t-9 67.5t-3 65.5q0 82 15 165t44.5 162t71.5 153t97 136h56z" />
<glyph unicode=")" horiz-adv-x="246" d="M-53 -125q105 135 164 293.5t59 334.5q0 65 -8 121t-30 117h55q10 -23 18.5 -53t14.5 -63.5t9 -68t3 -65.5q0 -82 -15 -165t-44.5 -162t-71.5 -153t-97 -136h-57z" />
<glyph unicode="*" horiz-adv-x="379" d="M169 412l-44 35l112 102l-114 44l23 49l108 -54l18 133h58l-34 -134l112 51l19 -52l-127 -40l69 -108l-54 -26l-51 109z" />
<glyph unicode="+" d="M352 317l-45 -217h-55l46 217h-203l12 54h203l46 216h54l-45 -216h203l-12 -54h-204z" />
<glyph unicode="," horiz-adv-x="200" d="M-15 -99l70 196h70l-89 -196h-51z" />
<glyph unicode="-" horiz-adv-x="394" d="M66 262l12 60h294l-12 -60h-294z" />
<glyph unicode="." horiz-adv-x="200" d="M22 0l19 94h76l-19 -94h-76z" />
<glyph unicode="/" horiz-adv-x="305" d="M30 0h-63l383 741h64z" />
<glyph unicode="0" d="M399 717q45 0 83 -16t64.5 -46.5t41 -74.5t14.5 -99q0 -50 -7.5 -106t-24 -111.5t-42.5 -106.5t-63.5 -90t-87 -62t-111.5 -23q-46 0 -84 16t-64 46.5t-40.5 74t-14.5 98.5q0 50 8 106t24.5 111.5t43.5 106.5t64 90.5t85.5 62.5t110.5 23zM394 662q-46 0 -82.5 -18.5 t-66.5 -50.5t-52 -74.5t-37 -92t-22 -102t-7 -104.5q0 -39 8.5 -73t26.5 -58t44.5 -38.5t64.5 -14.5q67 0 117 40t83.5 103.5t49.5 142t16 156.5q0 39 -8.5 73t-26 58t-44.5 38.5t-64 14.5z" />
<glyph unicode="1" d="M271 0l134 632l-193 -102l-25 47l226 121h66l-148 -698h-60z" />
<glyph unicode="2" d="M391 662q-42 0 -72.5 -9t-54.5 -25.5t-40.5 -41.5t-29.5 -59l-54 11q12 35 31 67t49 57t73 40t102 15q44 0 80 -13.5t61 -37.5t38 -57t13 -73q0 -54 -23 -101t-59.5 -88t-84.5 -78.5t-100 -73.5q-48 -35 -97 -69.5t-93 -68.5h370l-23 -57h-443l11 55q48 37 105 79t117 86 q49 37 95.5 71.5t82.5 72t57.5 79.5t21.5 92q0 61 -35 94t-98 33z" />
<glyph unicode="3" d="M342 393q41 0 74 8.5t57 27t37 48t13 69.5q0 52 -36 84t-103 32q-42 0 -72.5 -7t-53.5 -22t-39 -39t-29 -59l-54 10q10 36 29 67t48 54.5t71.5 37t101.5 13.5q49 0 86 -13.5t61.5 -36.5t36.5 -53.5t12 -64.5q0 -40 -11 -70.5t-31 -53t-45.5 -37.5t-56.5 -25 q29 -13 46.5 -31t27.5 -38.5t14 -42t4 -39.5q0 -50 -16.5 -92.5t-47.5 -73t-76.5 -47.5t-102.5 -17q-46 0 -86.5 12t-72 37t-49.5 61t-19 85h56q3 -39 17 -66t37.5 -44t54 -24.5t65.5 -7.5q81 0 130 43.5t49 130.5q0 63 -32 95.5t-90 32.5h-98l13 56h80z" />
<glyph unicode="4" d="M349 0l39 183h-344l11 49l436 466h65l-99 -466h103l-19 -49h-95l-38 -183h-59zM122 232h276l81 382z" />
<glyph unicode="5" d="M538 258q0 -55 -17 -105t-50 -88t-80.5 -60.5t-108.5 -22.5q-44 0 -82 9.5t-67.5 31t-46.5 56.5t-18 86h56q4 -67 40 -98.5t120 -31.5q46 0 82 16.5t60.5 45t37.5 69t13 88.5q0 30 -8 55t-24.5 44t-40.5 29.5t-58 10.5q-52 0 -94.5 -15.5t-82.5 -50.5h-54l103 371h369 l-11 -56h-320l-71 -254q20 14 38.5 24.5t39 17t43.5 10t52 3.5q43 0 77 -15t56.5 -40.5t34.5 -59t12 -70.5z" />
<glyph unicode="6" d="M152 335q39 58 88.5 83.5t115.5 25.5q48 0 84.5 -16.5t60 -43t35.5 -61t12 -68.5q0 -63 -17.5 -113.5t-50 -86t-78.5 -54.5t-105 -19q-54 0 -93.5 17t-67 48.5t-41 74t-13.5 93.5q0 43 7.5 97t24 109.5t42.5 109t63 95t85 66.5t109 25q88 0 133 -38t55 -110l-53 -12 q-13 62 -46 84t-93 22q-41 0 -79.5 -18t-72 -57t-60 -101t-45.5 -152zM348 394q-38 0 -74.5 -14t-65.5 -40.5t-47 -65.5t-18 -88q0 -29 10 -56.5t29 -48.5t47.5 -34t66.5 -13q93 0 142 54.5t49 165.5q0 28 -8.5 53.5t-26.5 45t-43.5 30.5t-60.5 11z" />
<glyph unicode="7" d="M607 642q-116 -154 -215.5 -313.5t-180.5 -328.5h-69q44 87 89 167.5t93 159.5t101.5 157t114.5 158h-399l12 56h465z" />
<glyph unicode="8" d="M557 209q0 -57 -21 -99.5t-58 -71t-89 -42.5t-115 -14q-57 0 -99.5 14t-71 38t-43.5 55t-15 67q0 54 20 90.5t48 60t59 36t53 17.5q-17 8 -33.5 21.5t-30 30.5t-21.5 39t-8 47q0 46 17 86t49.5 69.5t82 46.5t115.5 17q51 0 89.5 -13.5t64.5 -37t39 -54.5t13 -66 q0 -44 -15.5 -77.5t-39.5 -56.5t-52.5 -37t-55.5 -20q21 -7 42 -18.5t37.5 -29.5t27.5 -42.5t11 -55.5zM337 381q41 0 77.5 9t65 28.5t45.5 51t17 76.5q0 24 -8 45.5t-26 38t-46.5 27t-68.5 10.5q-54 0 -92 -13.5t-62.5 -36.5t-36 -54t-11.5 -65q0 -22 8.5 -43t26.5 -37.5 t46 -26.5t65 -10zM278 32q45 0 84.5 9t68.5 30t45.5 54.5t16.5 81.5q0 24 -9.5 46t-30 38.5t-52 26t-76.5 9.5q-114 0 -165.5 -44.5t-51.5 -118.5q0 -28 9.5 -51.5t30 -41.5t52.5 -28.5t78 -10.5z" />
<glyph unicode="9" d="M307 305q37 0 74 12.5t66.5 38t47 63t17.5 85.5q0 31 -9 60.5t-27.5 51.5t-47 35.5t-65.5 13.5q-93 0 -143.5 -54.5t-50.5 -165.5q0 -28 8.5 -53.5t26 -45t43.5 -30.5t60 -11zM574 477q0 -52 -6.5 -108.5t-22 -111.5t-39 -105t-58 -88t-81 -60t-105.5 -22 q-54 0 -90.5 12.5t-59 34t-33.5 50.5t-15 61h58q4 -31 16 -51t31 -32t43 -16.5t55 -4.5q43 0 81 18.5t68 56.5t51.5 98.5t33.5 144.5q-39 -54 -87 -76.5t-114 -22.5q-49 0 -85 17t-60 44t-36 61t-12 67q0 63 17.5 113.5t51 86t80.5 54.5t106 19q52 0 92 -17.5t66.5 -49.5 t40 -76.5t13.5 -96.5z" />
<glyph unicode=":" horiz-adv-x="200" d="M22 0l19 94h76l-19 -94h-76zM112 426l19 94h76l-19 -94h-76z" />
<glyph unicode=";" horiz-adv-x="200" d="M-15 -99l70 196h70l-89 -196h-51zM111 426l19 94h76l-19 -94h-76z" />
<glyph unicode="&#x3c;" d="M107 320l9 45l495 215l-13 -65l-417 -174l342 -178l-13 -58z" />
<glyph unicode="=" d="M132 429l12 56h435l-12 -56h-435zM84 203l12 56h434l-12 -56h-434z" />
<glyph unicode="&#x3e;" d="M554 365l-9 -45l-495 -215l14 66l417 172l-343 180l14 57z" />
<glyph unicode="?" horiz-adv-x="499" d="M527 578q0 -67 -32.5 -115.5t-87.5 -91.5q-24 -20 -47 -37t-41.5 -35.5t-32 -41t-19.5 -51.5l-2 -11h-59l2 11q8 37 23.5 64.5t36.5 49.5t45.5 41.5t51.5 40.5q21 17 40 35.5t32.5 39t22 44t8.5 53.5q-1 49 -34 78t-97 29q-34 0 -61.5 -6t-49.5 -21.5t-39 -41t-31 -64.5 l-52 11q12 39 32 71.5t48.5 55t68 35t90.5 12.5q47 0 82 -12.5t57.5 -33.5t33.5 -49.5t11 -59.5zM161 0l19 93h75l-20 -93h-74z" />
<glyph unicode="@" horiz-adv-x="936" d="M628 98q-1 -5 -1.5 -9t-0.5 -8q0 -41 55 -41q49 0 84 26t57 68t33 95.5t11 109.5q0 66 -23.5 117.5t-66 87t-101.5 53.5t-132 18q-101 0 -182 -33.5t-138 -92.5t-87.5 -140.5t-30.5 -179.5q0 -72 22.5 -132t65.5 -104t105.5 -68.5t140.5 -25.5q47 0 86.5 4.5t72 16.5 t60.5 31t51 48h65q-52 -79 -134.5 -114.5t-202.5 -36.5q-82 0 -154.5 24t-125.5 72t-83.5 119t-30.5 163q0 105 35 196t100 159.5t158.5 107.5t210.5 39q81 0 150.5 -23t120.5 -65t79.5 -102t28.5 -134q0 -66 -15 -129t-47 -111.5t-80.5 -78t-113.5 -29.5q-41 0 -66.5 18.5 t-30.5 54.5q-35 -39 -73.5 -59t-87.5 -20q-44 0 -74.5 17t-49 44.5t-26 61.5t-6.5 69q2 57 21.5 107t52 87t75 58.5t93.5 21.5q96 0 135 -82l16 69h54zM495 407q-39 0 -72 -18.5t-57 -50.5t-37 -74t-13 -87q0 -70 27 -104.5t76 -34.5q26 0 47 5.5t44 22.5q32 22 52 54t31 82 l8 36q12 51 6.5 83.5t-28.5 54.5q-17 17 -36.5 24t-47.5 7z" />
<glyph unicode="A" horiz-adv-x="667" d="M410 721h73l132 -721h-64l-40 220h-339l-133 -220h-67zM206 277h295l-69 376z" />
<glyph unicode="B" horiz-adv-x="630" d="M637 565q0 -142 -155 -188q52 -20 81 -62t29 -93q0 -50 -17 -91.5t-54 -70.5t-94 -44.5t-137 -15.5h-248l153 721h233q64 0 105 -15t64 -38.5t31.5 -51t8.5 -51.5zM366 405q39 0 77 7t67 24.5t47 48t18 77.5q0 23 -7.5 42t-26 33t-48 22.5t-74.5 8.5h-175l-55 -263h177z M114 55h185q63 0 106 10t70 31t39 53t12 74q0 26 -9.5 49.5t-29 40.5t-50 26.5t-72.5 9.5h-188z" />
<glyph unicode="C" horiz-adv-x="716" d="M674 221q-12 -50 -37.5 -94t-64.5 -76.5t-91.5 -50.5t-119.5 -18q-60 0 -111.5 20t-89.5 58t-59 93t-21 125q0 92 25.5 175.5t75 147.5t120.5 101t162 37q113 0 177 -61t75 -172l-62 -12q-13 98 -58.5 145t-136.5 47q-72 0 -129.5 -32t-98 -86.5t-62.5 -127.5t-22 -156 q0 -52 14.5 -97t41.5 -78.5t68 -53t95 -19.5q52 0 92.5 14t70.5 38.5t49.5 58.5t28.5 74h68z" />
<glyph unicode="D" horiz-adv-x="709" d="M42 0l153 721h228q63 0 114 -21t87.5 -59t56 -90.5t19.5 -116.5q0 -91 -26 -170t-79.5 -137.5t-135 -92.5t-192.5 -34h-225zM276 55q89 0 156 26.5t112.5 76.5t68 120t22.5 158q0 48 -14 90t-41.5 73.5t-68 50t-94.5 18.5h-172l-130 -613h161z" />
<glyph unicode="E" horiz-adv-x="593" d="M245 666l-56 -265h372l-13 -58h-371l-62 -286h413l-24 -57h-462l153 721h453l-11 -55h-392z" />
<glyph unicode="F" horiz-adv-x="558" d="M245 666l-58 -274h348l-12 -58h-348l-71 -334h-62l153 721h433l-11 -55h-372z" />
<glyph unicode="G" horiz-adv-x="718" d="M653 529q-15 79 -65.5 118t-127.5 39t-135.5 -34t-98.5 -90t-60.5 -128.5t-20.5 -149.5q0 -51 14.5 -96t41.5 -78.5t67.5 -53.5t92.5 -20q43 0 77.5 6t61 16t45.5 21t33 21l43 201h-207l12 56h266l-61 -285q-17 -15 -42.5 -31t-60.5 -29t-77.5 -21.5t-92.5 -8.5 q-61 0 -112 21t-88.5 60t-58 93.5t-20.5 121.5q0 88 24.5 170.5t73 147.5t121 104t168.5 39q97 0 162.5 -49.5t84.5 -147.5z" />
<glyph unicode="H" horiz-adv-x="695" d="M511 0l73 344h-407l-73 -344h-62l153 721h62l-68 -319h407l68 319h61l-152 -721h-62z" />
<glyph unicode="I" horiz-adv-x="227" d="M42 0l153 721h62l-153 -721h-62z" />
<glyph unicode="J" horiz-adv-x="581" d="M511 226q-26 -126 -91.5 -185t-179.5 -59q-47 0 -86 11.5t-66.5 36t-43.5 60t-16 84.5v12t1 13h59v-13q0 -31 6.5 -58.5t24 -47.5t47.5 -32t76 -12q96 0 143 52.5t67 149.5l102 483h62z" />
<glyph unicode="K" horiz-adv-x="642" d="M333 409l-171 -138l-58 -271h-62l153 721h62l-79 -375l457 375h74l-325 -275l198 -446h-71z" />
<glyph unicode="L" horiz-adv-x="555" d="M483 0h-441l153 721h62l-141 -663h392z" />
<glyph unicode="M" horiz-adv-x="846" d="M352 0l-122 614l-130 -614h-58l153 721h77l124 -649l401 649h79l-153 -721h-57l131 617l-386 -617h-59z" />
<glyph unicode="N" horiz-adv-x="696" d="M510 0l-275 628l-133 -628h-60l153 721h65l273 -626l134 626h59l-152 -721h-64z" />
<glyph unicode="O" horiz-adv-x="763" d="M471 739q59 0 111 -20t90.5 -58.5t60 -93.5t21.5 -126q0 -83 -25.5 -165t-75.5 -147.5t-122 -106t-166 -40.5q-60 0 -112 20t-90.5 58t-60 93t-21.5 126q0 83 26.5 165.5t76.5 148t122.5 106t164.5 40.5zM367 36q75 0 135.5 35t101.5 92t63 129.5t22 146.5q0 54 -14 99 t-42.5 77.5t-69.5 51t-94 18.5q-76 0 -136 -35.5t-101.5 -92t-63.5 -129t-22 -146.5q0 -54 14.5 -99.5t42.5 -77.5t69 -50.5t95 -18.5z" />
<glyph unicode="P" horiz-adv-x="625" d="M649 545q0 -66 -22.5 -114t-63.5 -79t-98.5 -45.5t-127.5 -14.5h-172l-62 -292h-61l153 721h229q65 0 108 -16t69 -41.5t37 -56.5t11 -62zM346 345q54 0 98.5 10t75.5 33t48.5 61.5t17.5 96.5q0 27 -9 49t-29.5 38t-53 25.5t-80.5 9.5h-170l-68 -323h170z" />
<glyph unicode="Q" horiz-adv-x="763" d="M537 26q-38 -20 -81 -32t-91 -12q-60 0 -112 20t-90.5 58t-60 93t-21.5 126q0 83 26.5 165.5t76.5 148t122.5 106t164.5 40.5q59 0 111 -20t90.5 -58.5t60 -93.5t21.5 -126q0 -54 -11 -108.5t-32.5 -104.5t-53.5 -93.5t-73 -76.5l64 -99l-47 -32zM367 36q76 0 140 38 l-74 115l47 30l72 -112q34 28 59 66t42.5 81t26.5 90.5t9 94.5q0 54 -14 99t-42.5 77.5t-69.5 51t-94 18.5q-76 0 -136 -35.5t-101.5 -92t-63.5 -129t-22 -146.5q0 -54 14.5 -99.5t42.5 -77.5t69 -50.5t95 -18.5z" />
<glyph unicode="R" horiz-adv-x="631" d="M170 315l-67 -315h-61l153 721h222q65 0 108.5 -15.5t69 -41t36 -57t10.5 -63.5q0 -90 -46 -141.5t-127 -72.5l82 -330h-69l-75 318q-17 -2 -38.5 -2.5t-41.5 -0.5h-156zM355 370q51 0 93 8.5t70.5 28.5t44.5 53.5t16 83.5q0 26 -8 48.5t-28.5 39t-54.5 26.5t-85 10h-159 l-63 -298h174z" />
<glyph unicode="S" horiz-adv-x="648" d="M580 208q0 -55 -21 -97t-56.5 -71t-84 -43.5t-105.5 -14.5q-47 0 -94 8t-85 30.5t-63 63t-27 105.5h61q4 -41 18 -69.5t39.5 -47t63.5 -27.5t91 -9t90 13.5t60.5 36.5t34.5 54.5t11 68.5q0 18 -4 37t-15.5 35t-33 28.5t-54.5 19.5l-104 22q-78 18 -123.5 59t-45.5 117 q0 53 18.5 93t52.5 66.5t82.5 39.5t108.5 13q62 0 106 -15.5t73.5 -41.5t45 -59.5t20.5 -70.5l-57 -12q-11 71 -54.5 108.5t-138.5 37.5q-57 0 -94.5 -12t-60 -33t-31.5 -47.5t-9 -56.5q0 -24 5.5 -43.5t19 -36t37.5 -28t60 -19.5l100 -21q46 -9 77 -26.5t50 -41t27.5 -52.5 t8.5 -61z" />
<glyph unicode="T" horiz-adv-x="595" d="M429 665l-140 -665h-62l141 665h-251l12 56h562l-12 -56h-250z" />
<glyph unicode="U" horiz-adv-x="682" d="M319 -18q-52 0 -95 12t-73.5 38t-47 65.5t-16.5 94.5q0 21 3 45t8 50l92 434h61l-92 -439q-11 -47 -11 -88q0 -79 42 -118.5t131 -39.5q56 0 96 16t67.5 46.5t46 76.5t32.5 107l92 439h62l-93 -438q-17 -80 -43.5 -137t-63 -93.5t-86 -53.5t-112.5 -17z" />
<glyph unicode="V" horiz-adv-x="655" d="M321 0h-66l-129 721h66l109 -651l384 651h68z" />
<glyph unicode="W" horiz-adv-x="920" d="M553 641l-309 -641h-67l-52 721h65l35 -644l313 641h66l40 -640l306 643h69l-355 -721h-71z" />
<glyph unicode="X" horiz-adv-x="619" d="M383 375l183 -375h-71l-159 332l-292 -332h-70l336 384l-164 337h69l140 -299l265 299h70z" />
<glyph unicode="Y" horiz-adv-x="593" d="M127 721h67l137 -356l289 356h71l-336 -409l-66 -312h-62l66 312z" />
<glyph unicode="Z" horiz-adv-x="590" d="M515 0h-517l10 50l562 616h-429l12 55h508l-12 -51l-559 -613h449z" />
<glyph unicode="[" horiz-adv-x="256" d="M10 -125l185 866h168l-12 -50h-107l-162 -766h107l-11 -50h-168z" />
<glyph unicode="\" horiz-adv-x="305" d="M126 741h60l69 -741h-60z" />
<glyph unicode="]" horiz-adv-x="256" d="M296 741l-185 -866h-168l12 50h107l162 766h-107l11 50h168z" />
<glyph unicode="^" d="M496 309l-98 341l-241 -341h-64l291 405h52l120 -405h-60z" />
<glyph unicode="_" horiz-adv-x="505" d="M-78 -177l11 53h504l-11 -53h-504z" />
<glyph unicode="`" horiz-adv-x="563" d="M305 596l-106 135h75l90 -135h-59z" />
<glyph unicode="a" horiz-adv-x="530" d="M25 124q0 55 22.5 90.5t62 58.5t94.5 33t119 13l105 4l2 10l4 26t2 24q0 45 -26 74.5t-94 29.5q-37 0 -63.5 -4.5t-44.5 -14.5t-30.5 -27.5t-22.5 -42.5l-55 9q24 71 77 100t144 29q90 0 132.5 -42t42.5 -111q0 -14 -2 -29t-5 -30l-69 -324h-58l15 74q-36 -36 -82.5 -61 t-114.5 -25t-111.5 37t-43.5 99zM188 40q33 0 66 8t58 25q20 13 35 25.5t25.5 26.5t18 32.5t12.5 42.5l16 77l-97 -4q-66 -3 -111 -13t-72.5 -27.5t-39 -44t-11.5 -63.5q0 -34 22 -59.5t78 -25.5z" />
<glyph unicode="b" horiz-adv-x="588" d="M89 0h-59l153 721h58l-58 -279q40 46 86.5 70t104.5 24q51 0 86.5 -19t57 -50t31.5 -70.5t10 -81.5q0 -59 -19 -118.5t-55.5 -106.5t-89 -76.5t-119.5 -29.5q-53 0 -98.5 23.5t-72.5 72.5zM279 34q48 0 88 23t69 62t44.5 89.5t15.5 106.5q0 86 -34 128.5t-95 42.5 q-33 0 -58 -8t-53 -28q-40 -26 -68 -66t-42 -101l-9 -44q-9 -41 -9 -69q0 -34 11 -57t34 -43q20 -17 45.5 -26.5t60.5 -9.5z" />
<glyph unicode="c" horiz-adv-x="559" d="M482 352q-3 25 -10 48.5t-22.5 42.5t-40.5 31t-65 12q-50 0 -91 -21t-70 -57.5t-45 -88t-16 -112.5q0 -36 8 -68t26.5 -55t47 -36.5t70.5 -13.5q38 0 67 10.5t49.5 28t34 41t22.5 50.5h60q-12 -40 -32.5 -72.5t-49.5 -56.5t-68.5 -37.5t-88.5 -13.5q-52 0 -91 17 t-65.5 46.5t-39.5 69t-13 84.5q0 80 23 142t62.5 105t91.5 65.5t109 22.5q50 0 85.5 -14t58 -38t34 -55.5t14.5 -64.5z" />
<glyph unicode="d" horiz-adv-x="586" d="M433 78q-38 -49 -83 -71.5t-103 -22.5q-51 0 -87.5 19.5t-59 50.5t-32.5 70.5t-10 78.5q0 60 18.5 119.5t54.5 107t88.5 77t120.5 29.5q53 0 98.5 -24t72.5 -73l60 282h58l-153 -721h-59zM479 281q9 40 9 70q0 33 -11 56.5t-34 42.5q-20 18 -45.5 27t-60.5 9 q-48 0 -88 -22.5t-68.5 -60.5t-44.5 -89t-16 -109q0 -83 36.5 -127t100.5 -44q32 0 56 7t51 26q38 27 65.5 68t40.5 102z" />
<glyph unicode="e" horiz-adv-x="565" d="M119 205q0 -35 9.5 -66.5t29.5 -54.5t50 -37.5t73 -14.5q37 0 64 8t45.5 22t30.5 33t20 41h58q-12 -33 -29.5 -61.5t-43.5 -48.5t-62.5 -31t-86.5 -11q-55 0 -96 18t-68 49t-40.5 71t-13.5 84q0 80 22 141.5t60.5 103.5t89.5 63.5t109 21.5q49 0 86 -15.5t61 -42.5 t36 -63t12 -78q0 -15 -1 -36.5t-4 -38.5l-3 -17h-407q-1 -10 -1 -19.5v-20.5zM335 489q-79 0 -133.5 -50.5t-73.5 -142.5h348q2 9 2.5 22t0.5 24q0 32 -8.5 58.5t-27 46.5t-45 31t-63.5 11z" />
<glyph unicode="f" horiz-adv-x="312" d="M402 667q-13 5 -26 8t-36 3q-42 0 -65 -23.5t-33 -68.5l-14 -66h139l-10 -48h-139l-100 -472h-58l100 472h-81l10 48h81l14 64q17 79 58 112t99 33q24 0 43 -4t36 -11z" />
<glyph unicode="g" horiz-adv-x="585" d="M480 19q-11 -52 -30.5 -94t-49.5 -71.5t-74 -45t-105 -15.5q-42 0 -78.5 8t-62.5 25.5t-42.5 46.5t-17.5 70h56q4 -27 13.5 -46t26 -31t42.5 -18t63 -6q86 0 133 42t68 141l15 71q-34 -44 -82.5 -66t-106.5 -22q-51 0 -86.5 18.5t-57.5 48.5t-31.5 67.5t-9.5 73.5 q0 57 18 114t53.5 103t87.5 74.5t118 28.5q53 0 98.5 -24t72.5 -73l17 81h59zM337 486q-48 0 -87.5 -22.5t-66.5 -59.5t-42.5 -85.5t-15.5 -101.5q0 -76 34.5 -117t96.5 -41q32 0 61.5 8t58.5 27q39 26 62 63.5t36 99.5l5 24q9 40 9 71q0 33 -11 56t-34 42q-20 18 -45.5 27 t-60.5 9z" />
<glyph unicode="h" horiz-adv-x="563" d="M181 435q50 55 102.5 78t100.5 23q73 0 110.5 -39t37.5 -109q0 -26 -6 -55l-70 -333h-59l69 322q3 14 5 28.5t2 28.5q0 47 -22 76t-76 29q-30 0 -64.5 -12t-67.5 -38q-32 -26 -55.5 -54t-33.5 -75l-65 -305h-59l153 721h58z" />
<glyph unicode="i" horiz-adv-x="206" d="M33 0l110 520h59l-110 -520h-59zM159 633l18 88h66l-18 -88h-66z" />
<glyph unicode="j" horiz-adv-x="206" d="M88 -18q-8 -36 -18 -66.5t-27.5 -53.5t-43.5 -36.5t-66 -13.5q-34 0 -54.5 6t-35.5 12l21 49q12 -5 28 -9.5t41 -4.5q42 0 62 24.5t29 67.5l119 563h59zM159 633l18 88h66l-18 -88h-66z" />
<glyph unicode="k" horiz-adv-x="497" d="M30 0l153 721h58l-92 -439l315 238h75l-221 -175l133 -345h-65l-117 313l-136 -101l-44 -212h-59z" />
<glyph unicode="l" horiz-adv-x="206" d="M33 0l153 721h58l-152 -721h-59z" />
<glyph unicode="m" horiz-adv-x="861" d="M361 0l64 303q5 26 9 51.5t4 39.5q0 38 -17 64t-61 26q-32 0 -61.5 -11.5t-62.5 -38.5q-32 -25 -52.5 -54.5t-31.5 -81.5l-63 -298h-59l110 520h59l-18 -85q45 55 95 78t92 23q50 0 82.5 -26.5t41.5 -77.5q26 31 54 51t54 31.5t50.5 16.5t44.5 5q69 0 101.5 -37t32.5 -95 q0 -15 -2.5 -38t-7.5 -48l-68 -318h-58l66 307q5 21 8.5 47.5t3.5 46.5q0 33 -19 58t-65 25q-29 0 -62 -10t-65 -37q-31 -24 -47 -48.5t-26 -69.5l-68 -319h-58z" />
<glyph unicode="n" horiz-adv-x="563" d="M397 0l69 322q3 14 5 28.5t2 28.5q0 47 -22 76t-76 29q-30 0 -64.5 -12t-67.5 -38q-32 -26 -55.5 -54t-33.5 -75l-65 -305h-59l110 520h59l-18 -85q50 55 102.5 78t100.5 23q73 0 110.5 -39t37.5 -109q0 -26 -6 -55l-70 -333h-59z" />
<glyph unicode="o" horiz-adv-x="598" d="M272 34q52 0 95 22t73.5 60t47 89.5t16.5 109.5q0 76 -38 123.5t-111 47.5q-53 0 -96 -22t-73 -59.5t-47 -89t-17 -110.5q0 -76 38 -123.5t112 -47.5zM267 -16q-46 0 -84 15.5t-65 44t-42.5 68.5t-15.5 88q0 78 23.5 140t64.5 106t95.5 67t116.5 23q45 0 83 -15.5t65 -44 t43 -68t16 -88.5q0 -78 -23.5 -140t-63.5 -106t-95 -67t-118 -23z" />
<glyph unicode="p" horiz-adv-x="588" d="M46 -196h-58l152 716h59l-16 -78q40 46 86.5 70t104.5 24q51 0 86 -18.5t57 -49t32 -69t10 -79.5q0 -59 -18.5 -119.5t-54.5 -108.5t-88.5 -78t-121.5 -30q-53 0 -98.5 23.5t-72.5 72.5zM279 34q48 0 88 23t69 62t44.5 89.5t15.5 106.5q0 86 -34 128.5t-95 42.5 q-33 0 -58 -8t-53 -28q-40 -26 -68 -66t-42 -101q-6 -26 -9.5 -44.5t-5.5 -31t-2.5 -21t-0.5 -15.5q0 -35 11 -58t34 -43q20 -17 45.5 -26.5t60.5 -9.5z" />
<glyph unicode="q" horiz-adv-x="587" d="M433 78q-38 -49 -83 -71.5t-103 -22.5q-51 0 -87.5 19t-59 50t-32.5 70.5t-10 80.5q0 58 18.5 117.5t54.5 107t88.5 77.5t120.5 30q53 0 98.5 -24t72.5 -73l17 81h59l-154 -716h-58zM479 281q9 39 9 68q0 34 -11 57.5t-34 43.5q-41 36 -108 36q-48 0 -88 -23t-67.5 -61.5 t-43.5 -89.5t-16 -107q0 -83 36.5 -127t100.5 -44q32 0 56 7t51 26q38 27 65.5 68t40.5 102z" />
<glyph unicode="r" horiz-adv-x="340" d="M379 470q-17 3 -38 3q-16 0 -42 -7t-56 -32q-32 -26 -55.5 -54.5t-33.5 -75.5l-65 -304h-59l110 520h59l-18 -85q48 54 88.5 73.5t82.5 19.5q12 0 24 -1.5t19 -3.5z" />
<glyph unicode="s" horiz-adv-x="519" d="M445 141q-1 -40 -18.5 -70t-46.5 -49t-66 -28.5t-78 -9.5q-36 0 -73 7.5t-66 26t-47.5 49.5t-18.5 77h57q0 -32 12.5 -53.5t34 -34.5t49 -18t58.5 -5q75 0 108.5 32t33.5 75q0 41 -19 60.5t-68 30.5l-60 13q-74 18 -107.5 48t-33.5 85q0 40 17 70.5t45.5 50t65.5 29 t75 9.5q50 0 85 -11t57 -30t33.5 -45.5t15.5 -55.5l-54 -10q-5 26 -14.5 45t-26 32t-41 19t-59.5 6q-37 0 -64 -8t-43.5 -22.5t-24.5 -32.5t-8 -37q0 -17 4 -31t14.5 -24.5t29 -18.5t47.5 -14l66 -14q61 -13 95 -45t34 -98z" />
<glyph unicode="t" horiz-adv-x="333" d="M288 5q-17 -6 -38 -11t-49 -5q-56 0 -86 26.5t-30 80.5q0 11 1 22.5t4 24.5l70 329h-81l10 48h81l30 144h59l-31 -144h148l-10 -48h-148l-70 -329q-2 -11 -3.5 -20.5t-1.5 -18.5q0 -65 64 -65q26 0 41.5 4t29.5 10z" />
<glyph unicode="u" horiz-adv-x="552" d="M195 520l-70 -327q-2 -12 -3.5 -27.5t-1.5 -29.5q0 -20 4 -37.5t14.5 -31.5t29 -22.5t45.5 -8.5q29 0 61.5 12t63.5 38q32 26 55 54t33 75l65 305h58l-110 -520h-58l18 85q-49 -55 -98.5 -78t-96.5 -23q-37 0 -64.5 11t-45 30.5t-26 46.5t-8.5 58q0 13 1.5 28t4.5 29 l70 333h59z" />
<glyph unicode="v" horiz-adv-x="500" d="M238 0h-68l-100 520h64l81 -456l277 456h67z" />
<glyph unicode="w" horiz-adv-x="718" d="M510 0h-68l-34 454l-227 -454h-68l-40 520h62l25 -454l228 451h69l33 -451l218 454h65z" />
<glyph unicode="x" horiz-adv-x="482" d="M266 315l186 205h68l-225 -249l136 -271h-62l-117 234l-210 -234h-69l252 281l-124 239h63z" />
<glyph unicode="y" horiz-adv-x="502" d="M184 7l-114 513h63l95 -446l263 446h70l-362 -589q-19 -29 -35 -52.5t-32.5 -40.5t-35.5 -25.5t-46 -8.5q-23 0 -41.5 4t-32.5 11l19 48q9 -4 21 -7.5t27 -3.5q19 0 31 4.5t23 14.5t22 27t27 43z" />
<glyph unicode="z" horiz-adv-x="453" d="M-4 49l411 422h-320l10 49h393l-10 -49l-411 -422h346l-18 -49h-411z" />
<glyph unicode="{" horiz-adv-x="265" d="M105 205q3 16 3 30q0 24 -12 35.5t-44 11.5h-3l12 52h2q41 0 59 19.5t26 57.5l47 218q13 65 49 88.5t91 23.5h43l-11 -49h-47q-29 0 -43.5 -14t-19.5 -41l-52 -241q-17 -78 -76 -88q42 -9 42 -57q0 -15 -3 -31l-52 -241q-2 -5 -2 -10v-10q0 -18 9 -26.5t33 -8.5h48 l-11 -49h-43q-45 0 -70.5 15t-25.5 56q0 10 1.5 20t3.5 21z" />
<glyph unicode="|" horiz-adv-x="204" d="M4 -125l185 866h60l-184 -866h-61z" />
<glyph unicode="}" horiz-adv-x="265" d="M210 411q-2 -8 -3 -15.5t-1 -14.5q0 -23 12.5 -35t45.5 -12h2l-11 -52h-3q-42 0 -59.5 -19.5t-25.5 -57.5l-47 -218q-7 -32 -19.5 -54t-30 -35t-40.5 -18t-50 -5h-42l12 49h45q29 0 44 14.5t20 40.5l51 241q17 78 75 88q-42 8 -42 56q0 16 4 32l52 241q1 5 1.5 10t0.5 9 q0 18 -9 27t-32 9h-49l11 49h43q45 0 70.5 -15t25.5 -57q0 -20 -4 -40z" />
<glyph unicode="~" d="M211 375q-40 0 -61.5 -24t-32.5 -84h-50q8 52 23 83.5t34.5 47.5t43.5 20.5t48 4.5q41 0 70 -19t54 -42.5t49 -42.5t54 -19q41 0 64 23.5t33 84.5h51q-8 -52 -24 -83.5t-36 -48t-44 -22t-49 -5.5q-40 0 -69.5 20t-54.5 43t-49.5 43t-53.5 20z" />
<glyph unicode="&#xa1;" horiz-adv-x="208" d="M159 325l-106 -521h-62l114 521h54zM206 520l-19 -93h-73l19 93h73z" />
<glyph unicode="&#xa2;" d="M530 440q-3 22 -8.5 42.5t-17 38.5t-31 31.5t-47.5 18.5l-95 -449q37 1 63.5 12t46.5 29t33 41t22 50h60q-13 -40 -32.5 -73t-48.5 -57t-67 -37.5t-87 -14.5l-17 -81h-49l17 84q-41 7 -71.5 26t-51.5 47.5t-31.5 64t-10.5 76.5q0 79 23 140.5t61 104.5t89 66t108 24 l18 83h50l-19 -86q38 -6 64.5 -22t45 -39t27.5 -51t12 -58zM171 295q0 -63 26 -110t86 -59l95 447q-48 -3 -86 -25t-65 -59t-41.5 -86t-14.5 -108z" />
<glyph unicode="&#xa3;" d="M544 545q-15 67 -44.5 94t-90.5 27q-45 0 -76.5 -13.5t-50 -37.5t-27 -58t-8.5 -75q0 -30 3.5 -56t6.5 -52h228l-11 -52h-212v-17q0 -80 -36 -140.5t-93 -108.5h390l-21 -56h-448l11 56q30 25 55 51t43.5 55.5t29 62.5t10.5 71q0 7 -0.5 13t-0.5 13h-90l11 52h73l-6 46 t-3 49q0 54 12 99.5t39 79t69.5 51.5t105.5 18q82 0 126 -40t61 -117z" />
<glyph unicode="&#xa4;" d="M290 111q-74 0 -122 46l-68 -59l-33 40l68 60q-23 43 -23 99q0 70 22 124t59 92l-45 63l45 32l42 -61q30 20 64 30t71 10q76 0 125 -49l71 62l33 -40l-73 -64q22 -43 22 -95q0 -69 -20.5 -123t-56.5 -91l46 -65l-45 -32l-44 62q-62 -41 -138 -41zM295 165q43 0 79 17.5 t61 48.5t38.5 73t13.5 91q0 64 -31 101t-91 37q-45 0 -80.5 -17.5t-60.5 -48.5t-38.5 -73t-13.5 -90q0 -64 31 -101.5t92 -37.5z" />
<glyph unicode="&#xa5;" d="M318 171l-35 -171h-60l36 171h-188l11 50h188l17 81l-11 31h-174l10 52h143l-125 313h66l127 -348l280 348h66l-256 -313h141l-10 -52h-172l-26 -31l-17 -81h195l-11 -50h-195z" />
<glyph unicode="&#xa6;" horiz-adv-x="204" d="M116 402l73 339h60l-72 -339h-61zM140 231l-75 -356h-61l76 356h60z" />
<glyph unicode="&#xa7;" horiz-adv-x="515" d="M201 461q-41 19 -57.5 50t-16.5 68q0 44 17 74.5t45.5 49.5t67 27t80.5 8q57 0 95.5 -14t62.5 -35t35.5 -47t15.5 -49l-54 -10q-5 22 -14.5 41t-28 33t-46.5 22t-70 8q-45 0 -74 -8.5t-45.5 -23.5t-22.5 -35t-6 -43q0 -29 19 -52t65 -37l81 -25q73 -24 105.5 -58.5 t32.5 -88.5q0 -55 -30 -96t-93 -56q42 -21 57.5 -54t15.5 -67q0 -45 -16 -76.5t-44 -50t-66 -26.5t-83 -8q-60 0 -101 15.5t-66 39.5t-35.5 52t-10.5 54h56q3 -26 12.5 -46t28.5 -34.5t49 -22t72 -7.5q47 0 75.5 10t44.5 26t21.5 36.5t5.5 41.5q0 25 -17 50.5t-66 39.5 l-83 25q-75 22 -107 57.5t-32 88.5q0 56 30.5 96.5t94.5 56.5zM256 430q-24 0 -45.5 -7t-38 -21.5t-27 -38.5t-10.5 -57q0 -31 22 -54.5t72 -39.5l31 -10q14 -5 27 -6.5t24 -1.5q22 0 43.5 7.5t37.5 22.5t26 38.5t10 55.5t-21 54.5t-73 39.5l-30 10q-26 8 -48 8z" />
<glyph unicode="&#xa8;" horiz-adv-x="563" d="M159 625l18 86h65l-18 -86h-65zM320 625l18 86h67l-18 -86h-67z" />
<glyph unicode="&#xa9;" horiz-adv-x="779" d="M531 431q-10 43 -34 67.5t-75 24.5q-34 0 -59 -12t-40.5 -34.5t-22.5 -52t-7 -64.5t7 -64.5t22.5 -51.5t40 -34.5t58.5 -12.5q52 0 78.5 25.5t34.5 71.5h56q-12 -67 -54.5 -105.5t-115.5 -38.5q-88 0 -137 55.5t-49 153.5q0 47 13.5 86t38 66t59.5 42.5t78 15.5 q68 0 107.5 -33.5t51.5 -94.5zM420 721q76 0 139 -25.5t108.5 -72.5t70.5 -114t25 -148q0 -82 -27 -149t-73 -113.5t-108.5 -72.5t-134.5 -26q-76 0 -139.5 26t-109 72.5t-70.5 113.5t-25 149q0 81 26.5 148t73.5 114t109.5 72.5t134.5 25.5zM419 670q-63 0 -115.5 -22.5 t-90 -63t-58.5 -97.5t-21 -126q0 -70 21 -127t58.5 -98t90 -63.5t115.5 -22.5t115 22.5t90 63.5t59 98t21 127q0 69 -21 126t-59 97.5t-90 63t-115 22.5z" />
<glyph unicode="&#xaa;" horiz-adv-x="428" d="M104 439q0 40 15 66.5t43.5 43.5t69 25t90.5 10l73 3l1 5q2 10 2.5 18t0.5 15q0 31 -18.5 50.5t-63.5 19.5q-26 0 -44.5 -3t-32 -10t-22 -20t-15.5 -31l-45 8q18 55 57.5 77.5t104.5 22.5t96.5 -30.5t31.5 -82.5q0 -10 -1 -21t-3 -22l-49 -236h-50l10 47q-27 -22 -58 -39 t-78 -17q-50 0 -82.5 28t-32.5 73zM225 384q23 0 46.5 6t40.5 17q28 17 42.5 37t21.5 51l11 50l-66 -3q-46 -2 -77.5 -9t-50.5 -19t-27 -30t-8 -44q0 -22 16 -39t51 -17z" />
<glyph unicode="&#xab;" horiz-adv-x="473" d="M252 483h60l-183 -226l83 -223h-55l-92 226zM443 483h60l-183 -226l83 -223h-55l-92 226z" />
<glyph unicode="&#xac;" d="M509 163h-53l45 216h-399l11 52h453z" />
<glyph unicode="&#xad;" horiz-adv-x="394" d="M66 262l12 60h294l-12 -60h-294z" />
<glyph unicode="&#xae;" horiz-adv-x="484" d="M273 502v-77h-42v204h76q27 0 44 -5.5t26.5 -14t12.5 -19.5t3 -23q0 -23 -7.5 -35.5t-27.5 -20.5l44 -86h-45l-39 77h-45zM351 570q0 11 -8.5 18.5t-37.5 7.5h-32v-59h38q27 0 33.5 10t6.5 23zM309 739q47 0 84.5 -15t65 -43t42 -68t14.5 -90t-16 -90t-44 -68t-66 -43 t-80 -15q-45 0 -83 15t-65.5 43t-42.5 68t-15 90t16 90t44 68t66 43t80 15zM308 699q-72 0 -115.5 -46t-43.5 -130t43.5 -130t115.5 -46t116.5 46t44.5 130t-44.5 130t-116.5 46z" />
<glyph unicode="&#xaf;" horiz-adv-x="563" d="M164 685h246l-11 -52h-246z" />
<glyph unicode="&#xb0;" horiz-adv-x="319" d="M81 585q0 28 10 52.5t28 42t43 27.5t54 10q28 0 52.5 -10t42.5 -27.5t28 -42t10 -52.5q0 -29 -10 -53.5t-28 -42.5t-42.5 -28.5t-52.5 -10.5q-29 0 -54 10.5t-43 28.5t-28 42.5t-10 53.5zM132 584q0 -41 23 -64.5t61 -23.5q36 0 59 23.5t23 64.5q0 38 -23 63t-59 25 q-38 0 -61 -25t-23 -63z" />
<glyph unicode="&#xb1;" d="M32 0l11 56h463l-11 -56h-463zM352 317l-45 -217h-55l46 217h-203l12 54h203l46 216h54l-45 -216h203l-12 -54h-204z" />
<glyph unicode="&#xb2;" horiz-adv-x="416" d="M294 667q-43 0 -66 -17t-40 -58l-48 11q14 46 51.5 78.5t105.5 32.5q54 0 87.5 -30.5t33.5 -79.5q0 -34 -12 -61t-32 -49t-46.5 -42.5t-54.5 -40.5q-21 -15 -44.5 -30.5t-48.5 -34.5h193l-19 -48h-265l8 44q36 27 74.5 54t76.5 56q24 17 45 32.5t36.5 33t24.5 38.5t9 48 q0 24 -18 43.5t-51 19.5z" />
<glyph unicode="&#xb3;" horiz-adv-x="416" d="M283 528q43 0 66 22t23 60q0 24 -18 42.5t-54 18.5q-46 0 -69.5 -16.5t-41.5 -58.5l-45 10q7 23 19 43t31.5 34.5t45.5 22.5t61 8q31 0 53.5 -8.5t38 -22.5t22.5 -33t7 -38q0 -43 -21 -68t-52 -39q24 -16 34.5 -37.5t10.5 -47.5q0 -60 -37.5 -98t-114.5 -38 q-28 0 -53.5 8t-44.5 24t-30 40t-11 54h46q4 -42 30.5 -62.5t64.5 -20.5q48 0 74.5 23.5t26.5 67.5q0 33 -17 50t-48 17h-62l10 43h55z" />
<glyph unicode="&#xb4;" horiz-adv-x="563" d="M173 596l134 135h83l-151 -135h-66z" />
<glyph unicode="&#xb5;" horiz-adv-x="552" d="M195 520l-70 -327q-2 -12 -3.5 -25t-1.5 -28q0 -20 4 -38.5t14.5 -32.5t29 -23.5t45.5 -9.5q29 0 61.5 12t63.5 38q32 26 55 54t33 75l65 305h58l-110 -520h-58l18 85q-49 -55 -98.5 -78t-96.5 -23q-43 0 -70 13t-42 39l-50 -232h-58l152 716h59z" />
<glyph unicode="&#xb6;" horiz-adv-x="588" d="M381 -140l171 809h-138l-172 -809h-62l97 458q-53 0 -88.5 14.5t-58 38.5t-32 54.5t-9.5 60.5q0 49 16.5 92t54.5 75t98 50t147 18h221l-183 -861h-62z" />
<glyph unicode="&#xb7;" horiz-adv-x="200" d="M92 330l19 94h76l-19 -94h-76z" />
<glyph unicode="&#xb8;" horiz-adv-x="563" d="M282 3h46l-31 -56q43 -7 60 -26t17 -39q0 -50 -35.5 -68.5t-89.5 -18.5q-14 0 -30 2t-30 5l10 44q14 -3 25 -4.5t25 -1.5q33 0 50.5 8.5t17.5 30.5q0 15 -16.5 24.5t-57.5 9.5h-12z" />
<glyph unicode="&#xb9;" horiz-adv-x="416" d="M215 298l72 341l-99 -46l-19 45l126 62h64l-86 -402h-58z" />
<glyph unicode="&#xba;" horiz-adv-x="436" d="M258 384q36 0 65 15t50 41t32 61t11 76q0 52 -25.5 84.5t-77.5 32.5q-36 0 -65.5 -15t-50 -41.5t-31.5 -61.5t-11 -75q0 -53 25.5 -85t77.5 -32zM251 337q-33 0 -60 12t-47.5 32.5t-31.5 49.5t-11 64q0 56 17 101t47 77t70 49t84 17q32 0 60 -11t48 -31.5t31.5 -49.5 t11.5 -64q0 -57 -17 -102.5t-46 -77t-69 -49t-87 -17.5z" />
<glyph unicode="&#xbb;" horiz-adv-x="483" d="M59 34h-61l183 227l-83 222h55l92 -225zM260 34h-61l183 227l-83 222h55l92 -225z" />
<glyph unicode="&#xbc;" horiz-adv-x="905" d="M249 0h-66l503 698h64zM710 0l21 101h-208l8 37l263 264h52l-55 -257h51l-19 -44h-42l-21 -101h-50zM595 145h147l38 186zM175 298l72 341l-99 -46l-19 45l126 62h64l-86 -402h-58z" />
<glyph unicode="&#xbd;" horiz-adv-x="905" d="M218 0h-66l503 698h64zM744 369q-43 0 -66 -17t-40 -58l-48 11q14 46 51.5 78.5t105.5 32.5q54 0 87.5 -30.5t33.5 -79.5q0 -34 -12 -61t-32 -49t-46.5 -42.5t-54.5 -40.5q-21 -15 -44.5 -30.5t-48.5 -34.5h193l-19 -48h-265l8 44q36 27 74.5 54t76.5 56q24 17 45 32.5 t36.5 33t24.5 38.5t9 48q0 24 -18 43.5t-51 19.5zM175 298l72 341l-99 -46l-19 45l126 62h64l-86 -402h-58z" />
<glyph unicode="&#xbe;" horiz-adv-x="905" d="M286 0h-66l503 698h64zM710 0l21 101h-208l8 37l263 264h52l-55 -257h51l-19 -44h-42l-21 -101h-50zM595 145h147l38 186zM273 528q43 0 66 22t23 60q0 24 -18 42.5t-54 18.5q-46 0 -69.5 -16.5t-41.5 -58.5l-45 10q7 23 19 43t31.5 34.5t45.5 22.5t61 8q31 0 53.5 -8.5 t38 -22.5t22.5 -33t7 -38q0 -43 -21 -68t-52 -39q24 -16 34.5 -37.5t10.5 -47.5q0 -60 -37.5 -98t-114.5 -38q-28 0 -53.5 8t-44.5 24t-30 40t-11 54h46q4 -42 30.5 -62.5t64.5 -20.5q48 0 74.5 23.5t26.5 67.5q0 33 -17 50t-48 17h-62l10 43h55z" />
<glyph unicode="&#xbf;" horiz-adv-x="497" d="M9 -55q0 67 33 114.5t87 90.5q25 20 47.5 37t41 35.5t32.5 40.5t20 51l2 11h58l-2 -11q-8 -38 -23.5 -65t-36.5 -48.5t-45.5 -41t-50.5 -40.5q-22 -17 -41 -34.5t-32.5 -38t-21.5 -44t-8 -52.5q1 -50 33.5 -78.5t96.5 -28.5q34 0 61.5 6.5t49.5 21.5t39.5 40.5t31.5 64.5 l51 -10q-12 -40 -31.5 -72t-48.5 -55t-68.5 -35.5t-90.5 -12.5q-47 0 -81.5 12t-57.5 33.5t-34 49t-11 59.5zM376 520l-19 -93h-75l19 93h75z" />
<glyph unicode="&#xc0;" horiz-adv-x="667" d="M410 721h73l132 -721h-64l-40 220h-339l-133 -220h-67zM206 277h295l-69 376zM454 782l-105 130h76l89 -130h-60z" />
<glyph unicode="&#xc1;" horiz-adv-x="667" d="M410 721h73l132 -721h-64l-40 220h-339l-133 -220h-67zM206 277h295l-69 376zM386 782l134 130h82l-152 -130h-64z" />
<glyph unicode="&#xc2;" horiz-adv-x="667" d="M410 721h73l132 -721h-64l-40 220h-339l-133 -220h-67zM206 277h295l-69 376zM316 782l141 130h57l86 -130h-60l-60 84l-101 -84h-63z" />
<glyph unicode="&#xc3;" horiz-adv-x="667" d="M410 721h73l132 -721h-64l-40 220h-339l-133 -220h-67zM206 277h295l-69 376zM531 789q-25 0 -43.5 9t-34.5 20t-31.5 20t-31.5 9q-26 0 -38 -13.5t-18 -43.5h-50q8 52 32.5 79t72.5 27q25 0 44 -9t35 -20t30.5 -20t31.5 -9q27 0 39 13.5t17 43.5h51q-9 -53 -33 -79.5 t-73 -26.5z" />
<glyph unicode="&#xc4;" horiz-adv-x="667" d="M410 721h73l132 -721h-64l-40 220h-339l-133 -220h-67zM206 277h295l-69 376zM336 803l19 88h67l-19 -88h-67zM501 803l19 88h69l-19 -88h-69z" />
<glyph unicode="&#xc5;" horiz-adv-x="667" d="M352 777q0 48 29 72.5t67 24.5q20 0 37 -6t30.5 -18.5t21.5 -30.5t8 -42q0 -35 -16 -57t-40 -32l126 -688h-64l-40 220h-339l-133 -220h-67l422 695q-18 12 -30 32t-12 50zM206 277h295l-69 376zM397 777q0 -29 14 -42t37 -13q25 0 38.5 13t13.5 42t-13.5 42.5 t-38.5 13.5q-23 0 -37 -13.5t-14 -42.5z" />
<glyph unicode="&#xc6;" horiz-adv-x="1022" d="M-35 0l578 721h534l-11 -55h-367l-57 -265h347l-12 -58h-347l-61 -286h387l-24 -57h-433l52 251h-315l-201 -251h-70zM282 308h282l76 358h-71z" />
<glyph unicode="&#xc7;" horiz-adv-x="716" d="M337 -17q-55 4 -102.5 25.5t-82 59.5t-53.5 90.5t-19 119.5q0 92 25.5 175.5t75 147.5t120.5 101t162 37q113 0 177 -61t75 -172l-62 -12q-13 98 -58.5 145t-136.5 47q-72 0 -129.5 -32t-98 -86.5t-62.5 -127.5t-22 -156q0 -52 14.5 -97t41.5 -78.5t68 -53t95 -19.5 q52 0 92.5 14t70.5 38.5t49.5 58.5t28.5 74h68q-12 -48 -36 -90t-59.5 -74t-83.5 -51.5t-109 -22.5l-22 -42q23 -4 38.5 -12t24.5 -18t13 -21t4 -20q0 -27 -10 -44t-27 -27.5t-41.5 -14.5t-52.5 -4q-16 0 -32 2t-32 5l12 45q15 -3 25.5 -4.5t26.5 -1.5q34 0 53 9t19 33 q0 16 -18 26.5t-61 10.5h-12z" />
<glyph unicode="&#xc8;" horiz-adv-x="593" d="M245 666l-56 -265h372l-13 -58h-371l-62 -286h413l-24 -57h-462l153 721h453l-11 -55h-392zM443 782l-105 130h76l89 -130h-60z" />
<glyph unicode="&#xc9;" horiz-adv-x="593" d="M245 666l-56 -265h372l-13 -58h-371l-62 -286h413l-24 -57h-462l153 721h453l-11 -55h-392zM359 782l134 130h82l-152 -130h-64z" />
<glyph unicode="&#xca;" horiz-adv-x="593" d="M245 666l-56 -265h372l-13 -58h-371l-62 -286h413l-24 -57h-462l153 721h453l-11 -55h-392zM287 782l141 130h57l86 -130h-60l-60 84l-101 -84h-63z" />
<glyph unicode="&#xcb;" horiz-adv-x="593" d="M245 666l-56 -265h372l-13 -58h-371l-62 -286h413l-24 -57h-462l153 721h453l-11 -55h-392zM315 803l19 88h67l-19 -88h-67zM480 803l19 88h69l-19 -88h-69z" />
<glyph unicode="&#xcc;" horiz-adv-x="227" d="M42 0l153 721h62l-153 -721h-62zM225 782l-105 130h76l89 -130h-60z" />
<glyph unicode="&#xcd;" horiz-adv-x="227" d="M42 0l153 721h62l-153 -721h-62zM176 782l134 130h82l-152 -130h-64z" />
<glyph unicode="&#xce;" horiz-adv-x="227" d="M42 0l153 721h62l-153 -721h-62zM97 782l141 130h57l86 -130h-60l-60 84l-101 -84h-63z" />
<glyph unicode="&#xcf;" horiz-adv-x="227" d="M42 0l153 721h62l-153 -721h-62zM117 803l19 88h67l-19 -88h-67zM282 803l19 88h69l-19 -88h-69z" />
<glyph unicode="&#xd0;" horiz-adv-x="719" d="M53 0l72 345h-83l13 55h82l68 321h228q63 0 114 -21t87.5 -59t56 -90.5t19.5 -116.5q0 -91 -25.5 -170t-79.5 -137.5t-135.5 -92.5t-192.5 -34h-224zM286 55q89 0 156 26.5t112.5 76.5t68 120t22.5 158q0 48 -14 90t-41 73.5t-68 50t-95 18.5h-171l-58 -268h202l-12 -55 h-201l-62 -290h161z" />
<glyph unicode="&#xd1;" horiz-adv-x="696" d="M510 0l-275 628l-133 -628h-60l153 721h65l273 -626l134 626h59l-152 -721h-64zM553 789q-25 0 -43.5 9t-34.5 20t-31.5 20t-31.5 9q-26 0 -38 -13.5t-18 -43.5h-50q8 52 32.5 79t72.5 27q25 0 44 -9t35 -20t30.5 -20t31.5 -9q27 0 39 13.5t17 43.5h51q-9 -53 -33 -79.5 t-73 -26.5z" />
<glyph unicode="&#xd2;" horiz-adv-x="763" d="M471 739q59 0 111 -20t90.5 -58.5t60 -93.5t21.5 -126q0 -83 -25.5 -165t-75.5 -147.5t-122 -106t-166 -40.5q-60 0 -112 20t-90.5 58t-60 93t-21.5 126q0 83 26.5 165.5t76.5 148t122.5 106t164.5 40.5zM367 36q75 0 135.5 35t101.5 92t63 129.5t22 146.5q0 54 -14 99 t-42.5 77.5t-69.5 51t-94 18.5q-76 0 -136 -35.5t-101.5 -92t-63.5 -129t-22 -146.5q0 -54 14.5 -99.5t42.5 -77.5t69 -50.5t95 -18.5zM490 782l-105 130h76l89 -130h-60z" />
<glyph unicode="&#xd3;" horiz-adv-x="763" d="M471 739q59 0 111 -20t90.5 -58.5t60 -93.5t21.5 -126q0 -83 -25.5 -165t-75.5 -147.5t-122 -106t-166 -40.5q-60 0 -112 20t-90.5 58t-60 93t-21.5 126q0 83 26.5 165.5t76.5 148t122.5 106t164.5 40.5zM367 36q75 0 135.5 35t101.5 92t63 129.5t22 146.5q0 54 -14 99 t-42.5 77.5t-69.5 51t-94 18.5q-76 0 -136 -35.5t-101.5 -92t-63.5 -129t-22 -146.5q0 -54 14.5 -99.5t42.5 -77.5t69 -50.5t95 -18.5zM414 782l134 130h82l-152 -130h-64z" />
<glyph unicode="&#xd4;" horiz-adv-x="763" d="M471 739q59 0 111 -20t90.5 -58.5t60 -93.5t21.5 -126q0 -83 -25.5 -165t-75.5 -147.5t-122 -106t-166 -40.5q-60 0 -112 20t-90.5 58t-60 93t-21.5 126q0 83 26.5 165.5t76.5 148t122.5 106t164.5 40.5zM367 36q75 0 135.5 35t101.5 92t63 129.5t22 146.5q0 54 -14 99 t-42.5 77.5t-69.5 51t-94 18.5q-76 0 -136 -35.5t-101.5 -92t-63.5 -129t-22 -146.5q0 -54 14.5 -99.5t42.5 -77.5t69 -50.5t95 -18.5zM348 782l141 130h57l86 -130h-60l-60 84l-101 -84h-63z" />
<glyph unicode="&#xd5;" horiz-adv-x="763" d="M471 739q59 0 111 -20t90.5 -58.5t60 -93.5t21.5 -126q0 -83 -25.5 -165t-75.5 -147.5t-122 -106t-166 -40.5q-60 0 -112 20t-90.5 58t-60 93t-21.5 126q0 83 26.5 165.5t76.5 148t122.5 106t164.5 40.5zM367 36q75 0 135.5 35t101.5 92t63 129.5t22 146.5q0 54 -14 99 t-42.5 77.5t-69.5 51t-94 18.5q-76 0 -136 -35.5t-101.5 -92t-63.5 -129t-22 -146.5q0 -54 14.5 -99.5t42.5 -77.5t69 -50.5t95 -18.5zM563 789q-25 0 -43.5 9t-34.5 20t-31.5 20t-31.5 9q-26 0 -38 -13.5t-18 -43.5h-50q8 52 32.5 79t72.5 27q25 0 44 -9t35 -20t30.5 -20 t31.5 -9q27 0 39 13.5t17 43.5h51q-9 -53 -33 -79.5t-73 -26.5z" />
<glyph unicode="&#xd6;" horiz-adv-x="763" d="M471 739q59 0 111 -20t90.5 -58.5t60 -93.5t21.5 -126q0 -83 -25.5 -165t-75.5 -147.5t-122 -106t-166 -40.5q-60 0 -112 20t-90.5 58t-60 93t-21.5 126q0 83 26.5 165.5t76.5 148t122.5 106t164.5 40.5zM367 36q75 0 135.5 35t101.5 92t63 129.5t22 146.5q0 54 -14 99 t-42.5 77.5t-69.5 51t-94 18.5q-76 0 -136 -35.5t-101.5 -92t-63.5 -129t-22 -146.5q0 -54 14.5 -99.5t42.5 -77.5t69 -50.5t95 -18.5zM368 803l19 88h67l-19 -88h-67zM533 803l19 88h69l-19 -88h-69z" />
<glyph unicode="&#xd7;" d="M128 136l-34 39l204 168l-138 172l41 33l138 -170l206 174l35 -37l-209 -176l130 -165l-42 -35l-130 167z" />
<glyph unicode="&#xd8;" horiz-adv-x="763" d="M471 739q54 0 101.5 -16.5t85.5 -47.5l69 79l42 -33l-75 -86q29 -36 44.5 -84.5t15.5 -109.5q0 -83 -25.5 -165t-75.5 -147.5t-122 -106t-166 -40.5q-110 0 -186 63l-68 -77l-41 33l71 83q-29 36 -44.5 85t-15.5 110q0 83 26.5 165.5t76.5 148t122.5 106t164.5 40.5z M146 282q0 -45 9.5 -82.5t28.5 -68.5l434 499q-27 26 -64.5 40.5t-84.5 14.5q-76 0 -136 -35.5t-101.5 -92t-63.5 -129t-22 -146.5zM367 36q75 0 135.5 35t101.5 92t63 129.5t22 146.5q0 88 -37 149l-435 -498q57 -54 150 -54z" />
<glyph unicode="&#xd9;" horiz-adv-x="682" d="M319 -18q-52 0 -95 12t-73.5 38t-47 65.5t-16.5 94.5q0 21 3 45t8 50l92 434h61l-92 -439q-11 -47 -11 -88q0 -79 42 -118.5t131 -39.5q56 0 96 16t67.5 46.5t46 76.5t32.5 107l92 439h62l-93 -438q-17 -80 -43.5 -137t-63 -93.5t-86 -53.5t-112.5 -17zM463 782l-105 130 h76l89 -130h-60z" />
<glyph unicode="&#xda;" horiz-adv-x="682" d="M319 -18q-52 0 -95 12t-73.5 38t-47 65.5t-16.5 94.5q0 21 3 45t8 50l92 434h61l-92 -439q-11 -47 -11 -88q0 -79 42 -118.5t131 -39.5q56 0 96 16t67.5 46.5t46 76.5t32.5 107l92 439h62l-93 -438q-17 -80 -43.5 -137t-63 -93.5t-86 -53.5t-112.5 -17zM394 782l134 130 h82l-152 -130h-64z" />
<glyph unicode="&#xdb;" horiz-adv-x="682" d="M319 -18q-52 0 -95 12t-73.5 38t-47 65.5t-16.5 94.5q0 21 3 45t8 50l92 434h61l-92 -439q-11 -47 -11 -88q0 -79 42 -118.5t131 -39.5q56 0 96 16t67.5 46.5t46 76.5t32.5 107l92 439h62l-93 -438q-17 -80 -43.5 -137t-63 -93.5t-86 -53.5t-112.5 -17zM315 782l141 130 h57l86 -130h-60l-60 84l-101 -84h-63z" />
<glyph unicode="&#xdc;" horiz-adv-x="682" d="M319 -18q-52 0 -95 12t-73.5 38t-47 65.5t-16.5 94.5q0 21 3 45t8 50l92 434h61l-92 -439q-11 -47 -11 -88q0 -79 42 -118.5t131 -39.5q56 0 96 16t67.5 46.5t46 76.5t32.5 107l92 439h62l-93 -438q-17 -80 -43.5 -137t-63 -93.5t-86 -53.5t-112.5 -17zM344 803l19 88h67 l-19 -88h-67zM509 803l19 88h69l-19 -88h-69z" />
<glyph unicode="&#xdd;" horiz-adv-x="593" d="M127 721h67l137 -356l289 356h71l-336 -409l-66 -312h-62l66 312zM349 782l134 130h82l-152 -130h-64z" />
<glyph unicode="&#xde;" horiz-adv-x="625" d="M619 405q0 -67 -22.5 -115t-63.5 -78.5t-98.5 -45t-127.5 -14.5h-173l-31 -152h-61l153 721h61l-30 -140h168q65 0 107.5 -16.5t69 -41.5t37.5 -56.5t11 -61.5zM316 205q54 0 98.5 9.5t75.5 33t48.5 61.5t17.5 97q0 26 -9.5 48.5t-29.5 38.5t-53 25t-80 9h-170l-68 -322 h170z" />
<glyph unicode="&#xdf;" horiz-adv-x="566" d="M187 63q26 -14 55.5 -19.5t55.5 -5.5q48 0 81 13.5t53.5 37t30 57t9.5 74.5q0 67 -41.5 104t-118.5 37h-60l12 51h44q35 0 67.5 9t57.5 29t39.5 49t14.5 71q0 45 -27.5 78t-89.5 33q-71 0 -111 -37t-57 -120l-111 -524h-59l113 536q21 95 75 144t152 49q44 0 77 -12.5 t54.5 -33.5t32 -49.5t10.5 -59.5q0 -71 -35.5 -116t-104.5 -68q25 -7 48.5 -21t41 -35.5t27.5 -49t10 -61.5q0 -50 -13 -93.5t-41.5 -75t-74 -49t-110.5 -17.5q-32 0 -66.5 6.5t-60.5 20.5z" />
<glyph unicode="&#xe0;" horiz-adv-x="530" d="M25 124q0 55 22.5 90.5t62 58.5t94.5 33t119 13l105 4l2 10l4 26t2 24q0 45 -26 74.5t-94 29.5q-37 0 -63.5 -4.5t-44.5 -14.5t-30.5 -27.5t-22.5 -42.5l-55 9q24 71 77 100t144 29q90 0 132.5 -42t42.5 -111q0 -14 -2 -29t-5 -30l-69 -324h-58l15 74q-36 -36 -82.5 -61 t-114.5 -25t-111.5 37t-43.5 99zM188 40q33 0 66 8t58 25q20 13 35 25.5t25.5 26.5t18 32.5t12.5 42.5l16 77l-97 -4q-66 -3 -111 -13t-72.5 -27.5t-39 -44t-11.5 -63.5q0 -34 22 -59.5t78 -25.5zM347 596l-106 135h75l90 -135h-59z" />
<glyph unicode="&#xe1;" horiz-adv-x="530" d="M25 124q0 55 22.5 90.5t62 58.5t94.5 33t119 13l105 4l2 10l4 26t2 24q0 45 -26 74.5t-94 29.5q-37 0 -63.5 -4.5t-44.5 -14.5t-30.5 -27.5t-22.5 -42.5l-55 9q24 71 77 100t144 29q90 0 132.5 -42t42.5 -111q0 -14 -2 -29t-5 -30l-69 -324h-58l15 74q-36 -36 -82.5 -61 t-114.5 -25t-111.5 37t-43.5 99zM188 40q33 0 66 8t58 25q20 13 35 25.5t25.5 26.5t18 32.5t12.5 42.5l16 77l-97 -4q-66 -3 -111 -13t-72.5 -27.5t-39 -44t-11.5 -63.5q0 -34 22 -59.5t78 -25.5zM268 596l134 135h83l-151 -135h-66z" />
<glyph unicode="&#xe2;" horiz-adv-x="530" d="M25 124q0 55 22.5 90.5t62 58.5t94.5 33t119 13l105 4l2 10l4 26t2 24q0 45 -26 74.5t-94 29.5q-37 0 -63.5 -4.5t-44.5 -14.5t-30.5 -27.5t-22.5 -42.5l-55 9q24 71 77 100t144 29q90 0 132.5 -42t42.5 -111q0 -14 -2 -29t-5 -30l-69 -324h-58l15 74q-36 -36 -82.5 -61 t-114.5 -25t-111.5 37t-43.5 99zM188 40q33 0 66 8t58 25q20 13 35 25.5t25.5 26.5t18 32.5t12.5 42.5l16 77l-97 -4q-66 -3 -111 -13t-72.5 -27.5t-39 -44t-11.5 -63.5q0 -34 22 -59.5t78 -25.5zM183 596l143 135h57l85 -135h-57l-62 91l-104 -91h-62z" />
<glyph unicode="&#xe3;" horiz-adv-x="530" d="M25 124q0 55 22.5 90.5t62 58.5t94.5 33t119 13l105 4l2 10l4 26t2 24q0 45 -26 74.5t-94 29.5q-37 0 -63.5 -4.5t-44.5 -14.5t-30.5 -27.5t-22.5 -42.5l-55 9q24 71 77 100t144 29q90 0 132.5 -42t42.5 -111q0 -14 -2 -29t-5 -30l-69 -324h-58l15 74q-36 -36 -82.5 -61 t-114.5 -25t-111.5 37t-43.5 99zM188 40q33 0 66 8t58 25q20 13 35 25.5t25.5 26.5t18 32.5t12.5 42.5l16 77l-97 -4q-66 -3 -111 -13t-72.5 -27.5t-39 -44t-11.5 -63.5q0 -34 22 -59.5t78 -25.5zM408 610q-24 0 -42 9t-33.5 19.5t-30.5 20t-31 9.5q-26 0 -37.5 -13.5 t-16.5 -42.5h-49q8 52 31.5 78.5t70.5 26.5q24 0 42.5 -9t34 -19.5t30 -19.5t30.5 -9q27 0 38.5 13t16.5 42h48q-8 -51 -31 -78t-71 -27z" />
<glyph unicode="&#xe4;" horiz-adv-x="530" d="M25 124q0 55 22.5 90.5t62 58.5t94.5 33t119 13l105 4l2 10l4 26t2 24q0 45 -26 74.5t-94 29.5q-37 0 -63.5 -4.5t-44.5 -14.5t-30.5 -27.5t-22.5 -42.5l-55 9q24 71 77 100t144 29q90 0 132.5 -42t42.5 -111q0 -14 -2 -29t-5 -30l-69 -324h-58l15 74q-36 -36 -82.5 -61 t-114.5 -25t-111.5 37t-43.5 99zM188 40q33 0 66 8t58 25q20 13 35 25.5t25.5 26.5t18 32.5t12.5 42.5l16 77l-97 -4q-66 -3 -111 -13t-72.5 -27.5t-39 -44t-11.5 -63.5q0 -34 22 -59.5t78 -25.5zM220 625l18 86h65l-18 -86h-65zM381 625l18 86h67l-18 -86h-67z" />
<glyph unicode="&#xe5;" horiz-adv-x="530" d="M25 124q0 55 22.5 90.5t62 58.5t94.5 33t119 13l105 4l2 10l4 26t2 24q0 45 -26 74.5t-94 29.5q-37 0 -63.5 -4.5t-44.5 -14.5t-30.5 -27.5t-22.5 -42.5l-55 9q24 71 77 100t144 29q90 0 132.5 -42t42.5 -111q0 -14 -2 -29t-5 -30l-69 -324h-58l15 74q-36 -36 -82.5 -61 t-114.5 -25t-111.5 37t-43.5 99zM188 40q33 0 66 8t58 25q20 13 35 25.5t25.5 26.5t18 32.5t12.5 42.5l16 77l-97 -4q-66 -3 -111 -13t-72.5 -27.5t-39 -44t-11.5 -63.5q0 -34 22 -59.5t78 -25.5zM243 690q0 47 28 71.5t67 24.5q18 0 35.5 -6t31 -18.5t21.5 -30.5t8 -41 q0 -24 -8 -42t-21.5 -29.5t-31 -17.5t-35.5 -6q-39 0 -67 23.5t-28 71.5zM287 690q0 -28 14 -42t37 -14t36.5 14t13.5 42t-13.5 41.5t-36.5 13.5t-37 -13.5t-14 -41.5z" />
<glyph unicode="&#xe6;" horiz-adv-x="898" d="M461 205q0 -35 9 -66.5t28 -54.5t49 -37.5t72 -14.5q37 0 63.5 8t44 22t29 33t19.5 41h57q-12 -33 -28 -61.5t-41.5 -48.5t-61 -31t-86.5 -11q-45 0 -79 11t-57 29t-39 41.5t-25 47.5q-47 -69 -101.5 -97t-130.5 -28q-36 0 -64.5 9.5t-49.5 27t-32.5 43t-11.5 56.5 q0 55 22 90.5t60 58.5t90.5 33t113.5 13l109 4l2 10q6 31 4 58.5t-14.5 49t-37.5 34t-64 12.5q-35 0 -60 -4.5t-43 -14.5t-30 -27.5t-22 -42.5l-55 9q24 71 76.5 100t138.5 29q61 0 102.5 -25t55.5 -74q35 47 84 73t122 26q48 0 84 -15.5t59.5 -42.5t35 -63t11.5 -78 q0 -15 -1 -36.5t-4 -38.5l-3 -17h-399q-1 -10 -1 -19.5v-20.5zM191 40q40 0 70 8t49 22q35 25 55 53.5t30 76.5l16 77l-101 -4q-64 -3 -106 -13t-68 -27.5t-37 -44t-11 -63.5q0 -34 22.5 -59.5t80.5 -25.5zM674 489q-80 0 -132.5 -50.5t-71.5 -142.5h339q2 9 2.5 22t0.5 24 q0 32 -8 58.5t-24.5 46.5t-43 31t-62.5 11z" />
<glyph unicode="&#xe7;" horiz-adv-x="559" d="M235 -14q-43 5 -76.5 23.5t-55.5 47.5t-33 66t-11 78q0 80 23 142t62.5 105t91.5 65.5t109 22.5q50 0 85.5 -14t58 -38t34 -55.5t14.5 -64.5l-55 -12q-3 25 -10 48.5t-22.5 42.5t-40.5 31t-65 12q-50 0 -91 -21t-70 -57.5t-45 -88t-16 -112.5q0 -36 8 -68t26.5 -55 t47 -36.5t70.5 -13.5q38 0 67 10.5t49.5 28t34 41t22.5 50.5h60q-23 -76 -77.5 -126t-148.5 -54l-20 -37q43 -7 59.5 -26t16.5 -39q0 -50 -35 -68.5t-89 -18.5q-14 0 -30 2t-30 5l10 44q14 -3 25 -4.5t25 -1.5q32 0 50 8.5t18 30.5q0 15 -17 24.5t-57 9.5h-12z" />
<glyph unicode="&#xe8;" horiz-adv-x="565" d="M119 205q0 -35 9.5 -66.5t29.5 -54.5t50 -37.5t73 -14.5q37 0 64 8t45.5 22t30.5 33t20 41h58q-12 -33 -29.5 -61.5t-43.5 -48.5t-62.5 -31t-86.5 -11q-55 0 -96 18t-68 49t-40.5 71t-13.5 84q0 80 22 141.5t60.5 103.5t89.5 63.5t109 21.5q49 0 86 -15.5t61 -42.5 t36 -63t12 -78q0 -15 -1 -36.5t-4 -38.5l-3 -17h-407q-1 -10 -1 -19.5v-20.5zM335 489q-79 0 -133.5 -50.5t-73.5 -142.5h348q2 9 2.5 22t0.5 24q0 32 -8.5 58.5t-27 46.5t-45 31t-63.5 11zM365 596l-106 135h75l90 -135h-59z" />
<glyph unicode="&#xe9;" horiz-adv-x="565" d="M119 205q0 -35 9.5 -66.5t29.5 -54.5t50 -37.5t73 -14.5q37 0 64 8t45.5 22t30.5 33t20 41h58q-12 -33 -29.5 -61.5t-43.5 -48.5t-62.5 -31t-86.5 -11q-55 0 -96 18t-68 49t-40.5 71t-13.5 84q0 80 22 141.5t60.5 103.5t89.5 63.5t109 21.5q49 0 86 -15.5t61 -42.5 t36 -63t12 -78q0 -15 -1 -36.5t-4 -38.5l-3 -17h-407q-1 -10 -1 -19.5v-20.5zM335 489q-79 0 -133.5 -50.5t-73.5 -142.5h348q2 9 2.5 22t0.5 24q0 32 -8.5 58.5t-27 46.5t-45 31t-63.5 11zM285 596l134 135h83l-151 -135h-66z" />
<glyph unicode="&#xea;" horiz-adv-x="565" d="M119 205q0 -35 9.5 -66.5t29.5 -54.5t50 -37.5t73 -14.5q37 0 64 8t45.5 22t30.5 33t20 41h58q-12 -33 -29.5 -61.5t-43.5 -48.5t-62.5 -31t-86.5 -11q-55 0 -96 18t-68 49t-40.5 71t-13.5 84q0 80 22 141.5t60.5 103.5t89.5 63.5t109 21.5q49 0 86 -15.5t61 -42.5 t36 -63t12 -78q0 -15 -1 -36.5t-4 -38.5l-3 -17h-407q-1 -10 -1 -19.5v-20.5zM335 489q-79 0 -133.5 -50.5t-73.5 -142.5h348q2 9 2.5 22t0.5 24q0 32 -8.5 58.5t-27 46.5t-45 31t-63.5 11zM208 596l143 135h57l85 -135h-57l-62 91l-104 -91h-62z" />
<glyph unicode="&#xeb;" horiz-adv-x="565" d="M119 205q0 -35 9.5 -66.5t29.5 -54.5t50 -37.5t73 -14.5q37 0 64 8t45.5 22t30.5 33t20 41h58q-12 -33 -29.5 -61.5t-43.5 -48.5t-62.5 -31t-86.5 -11q-55 0 -96 18t-68 49t-40.5 71t-13.5 84q0 80 22 141.5t60.5 103.5t89.5 63.5t109 21.5q49 0 86 -15.5t61 -42.5 t36 -63t12 -78q0 -15 -1 -36.5t-4 -38.5l-3 -17h-407q-1 -10 -1 -19.5v-20.5zM335 489q-79 0 -133.5 -50.5t-73.5 -142.5h348q2 9 2.5 22t0.5 24q0 32 -8.5 58.5t-27 46.5t-45 31t-63.5 11zM238 625l18 86h65l-18 -86h-65zM399 625l18 86h67l-18 -86h-67z" />
<glyph unicode="&#xec;" horiz-adv-x="206" d="M33 0l110 520h59l-110 -520h-59zM155 596l-106 135h75l90 -135h-59z" />
<glyph unicode="&#xed;" horiz-adv-x="206" d="M33 0l110 520h59l-110 -520h-59zM134 596l134 135h83l-151 -135h-66z" />
<glyph unicode="&#xee;" horiz-adv-x="206" d="M33 0l110 520h59l-110 -520h-59zM32 596l143 135h57l85 -135h-57l-62 91l-104 -91h-62z" />
<glyph unicode="&#xef;" horiz-adv-x="206" d="M33 0l110 520h59l-110 -520h-59zM67 625l18 86h65l-18 -86h-65zM228 625l18 86h67l-18 -86h-67z" />
<glyph unicode="&#xf0;" horiz-adv-x="598" d="M288 589l69 59q-55 27 -126 34l11 49q48 -5 86.5 -16.5t70.5 -28.5l84 73l32 -36l-75 -64q38 -30 62 -68t38 -81t20.5 -91.5t6.5 -98.5q0 -76 -22.5 -138t-62 -106t-93 -68t-115.5 -24q-48 0 -87.5 15.5t-67.5 43.5t-43.5 65.5t-15.5 81.5q0 65 22 121t60 97t89.5 64.5 t109.5 23.5q51 0 90 -17.5t66 -48.5q-7 68 -32 115.5t-66 77.5l-79 -69zM279 34q50 0 91.5 20.5t71.5 55t46 82.5t16 103q0 32 -10 58.5t-35 49.5q-47 42 -123 42q-50 0 -89.5 -21t-67 -56.5t-42.5 -80.5t-15 -92q0 -33 10 -62t30.5 -51t49 -35t67.5 -13z" />
<glyph unicode="&#xf1;" horiz-adv-x="563" d="M397 0l69 322q3 14 5 28.5t2 28.5q0 47 -22 76t-76 29q-30 0 -64.5 -12t-67.5 -38q-32 -26 -55.5 -54t-33.5 -75l-65 -305h-59l110 520h59l-18 -85q50 55 102.5 78t100.5 23q73 0 110.5 -39t37.5 -109q0 -26 -6 -55l-70 -333h-59zM458 610q-24 0 -42 9t-33.5 19.5 t-30.5 20t-31 9.5q-26 0 -37.5 -13.5t-16.5 -42.5h-49q8 52 31.5 78.5t70.5 26.5q24 0 42.5 -9t34 -19.5t30 -19.5t30.5 -9q27 0 38.5 13t16.5 42h48q-8 -51 -31 -78t-71 -27z" />
<glyph unicode="&#xf2;" horiz-adv-x="598" d="M272 34q52 0 95 22t73.5 60t47 89.5t16.5 109.5q0 76 -38 123.5t-111 47.5q-53 0 -96 -22t-73 -59.5t-47 -89t-17 -110.5q0 -76 38 -123.5t112 -47.5zM267 -16q-46 0 -84 15.5t-65 44t-42.5 68.5t-15.5 88q0 78 23.5 140t64.5 106t95.5 67t116.5 23q45 0 83 -15.5t65 -44 t43 -68t16 -88.5q0 -78 -23.5 -140t-63.5 -106t-95 -67t-118 -23zM375 596l-106 135h75l90 -135h-59z" />
<glyph unicode="&#xf3;" horiz-adv-x="598" d="M272 34q52 0 95 22t73.5 60t47 89.5t16.5 109.5q0 76 -38 123.5t-111 47.5q-53 0 -96 -22t-73 -59.5t-47 -89t-17 -110.5q0 -76 38 -123.5t112 -47.5zM267 -16q-46 0 -84 15.5t-65 44t-42.5 68.5t-15.5 88q0 78 23.5 140t64.5 106t95.5 67t116.5 23q45 0 83 -15.5t65 -44 t43 -68t16 -88.5q0 -78 -23.5 -140t-63.5 -106t-95 -67t-118 -23zM315 596l134 135h83l-151 -135h-66z" />
<glyph unicode="&#xf4;" horiz-adv-x="598" d="M272 34q52 0 95 22t73.5 60t47 89.5t16.5 109.5q0 76 -38 123.5t-111 47.5q-53 0 -96 -22t-73 -59.5t-47 -89t-17 -110.5q0 -76 38 -123.5t112 -47.5zM267 -16q-46 0 -84 15.5t-65 44t-42.5 68.5t-15.5 88q0 78 23.5 140t64.5 106t95.5 67t116.5 23q45 0 83 -15.5t65 -44 t43 -68t16 -88.5q0 -78 -23.5 -140t-63.5 -106t-95 -67t-118 -23zM226 596l143 135h57l85 -135h-57l-62 91l-104 -91h-62z" />
<glyph unicode="&#xf5;" horiz-adv-x="598" d="M272 34q52 0 95 22t73.5 60t47 89.5t16.5 109.5q0 76 -38 123.5t-111 47.5q-53 0 -96 -22t-73 -59.5t-47 -89t-17 -110.5q0 -76 38 -123.5t112 -47.5zM267 -16q-46 0 -84 15.5t-65 44t-42.5 68.5t-15.5 88q0 78 23.5 140t64.5 106t95.5 67t116.5 23q45 0 83 -15.5t65 -44 t43 -68t16 -88.5q0 -78 -23.5 -140t-63.5 -106t-95 -67t-118 -23zM452 610q-24 0 -42 9t-33.5 19.5t-30.5 20t-31 9.5q-26 0 -37.5 -13.5t-16.5 -42.5h-49q8 52 31.5 78.5t70.5 26.5q24 0 42.5 -9t34 -19.5t30 -19.5t30.5 -9q27 0 38.5 13t16.5 42h48q-8 -51 -31 -78 t-71 -27z" />
<glyph unicode="&#xf6;" horiz-adv-x="598" d="M272 34q52 0 95 22t73.5 60t47 89.5t16.5 109.5q0 76 -38 123.5t-111 47.5q-53 0 -96 -22t-73 -59.5t-47 -89t-17 -110.5q0 -76 38 -123.5t112 -47.5zM267 -16q-46 0 -84 15.5t-65 44t-42.5 68.5t-15.5 88q0 78 23.5 140t64.5 106t95.5 67t116.5 23q45 0 83 -15.5t65 -44 t43 -68t16 -88.5q0 -78 -23.5 -140t-63.5 -106t-95 -67t-118 -23zM261 625l18 86h65l-18 -86h-65zM422 625l18 86h67l-18 -86h-67z" />
<glyph unicode="&#xf7;" d="M324 484l19 87h72l-19 -87h-72zM246 116l19 87h71l-18 -87h-72zM108 316l12 56h434l-12 -56h-434z" />
<glyph unicode="&#xf8;" horiz-adv-x="598" d="M522 460q21 -28 33 -62.5t12 -77.5q0 -78 -23.5 -140t-63.5 -106t-95 -67t-118 -23q-37 0 -68 10t-57 28l-57 -65l-39 31l60 69q-22 27 -34 63.5t-12 79.5q0 78 23.5 140t64.5 106t95.5 67t116.5 23q37 0 69 -10.5t58 -30.5l57 66l39 -32zM122 205q0 -60 23 -103l305 351 q-18 16 -42 24.5t-53 8.5q-53 0 -96 -22t-73 -59.5t-47 -89t-17 -110.5zM272 34q52 0 95 22t73.5 60t47 89.5t16.5 109.5q0 56 -22 98l-304 -349q37 -30 94 -30z" />
<glyph unicode="&#xf9;" horiz-adv-x="552" d="M195 520l-70 -327q-2 -12 -3.5 -27.5t-1.5 -29.5q0 -20 4 -37.5t14.5 -31.5t29 -22.5t45.5 -8.5q29 0 61.5 12t63.5 38q32 26 55 54t33 75l65 305h58l-110 -520h-58l18 85q-49 -55 -98.5 -78t-96.5 -23q-37 0 -64.5 11t-45 30.5t-26 46.5t-8.5 58q0 13 1.5 28t4.5 29 l70 333h59zM337 596l-106 135h75l90 -135h-59z" />
<glyph unicode="&#xfa;" horiz-adv-x="552" d="M195 520l-70 -327q-2 -12 -3.5 -27.5t-1.5 -29.5q0 -20 4 -37.5t14.5 -31.5t29 -22.5t45.5 -8.5q29 0 61.5 12t63.5 38q32 26 55 54t33 75l65 305h58l-110 -520h-58l18 85q-49 -55 -98.5 -78t-96.5 -23q-37 0 -64.5 11t-45 30.5t-26 46.5t-8.5 58q0 13 1.5 28t4.5 29 l70 333h59zM287 596l134 135h83l-151 -135h-66z" />
<glyph unicode="&#xfb;" horiz-adv-x="552" d="M195 520l-70 -327q-2 -12 -3.5 -27.5t-1.5 -29.5q0 -20 4 -37.5t14.5 -31.5t29 -22.5t45.5 -8.5q29 0 61.5 12t63.5 38q32 26 55 54t33 75l65 305h58l-110 -520h-58l18 85q-49 -55 -98.5 -78t-96.5 -23q-37 0 -64.5 11t-45 30.5t-26 46.5t-8.5 58q0 13 1.5 28t4.5 29 l70 333h59zM202 596l143 135h57l85 -135h-57l-62 91l-104 -91h-62z" />
<glyph unicode="&#xfc;" horiz-adv-x="552" d="M195 520l-70 -327q-2 -12 -3.5 -27.5t-1.5 -29.5q0 -20 4 -37.5t14.5 -31.5t29 -22.5t45.5 -8.5q29 0 61.5 12t63.5 38q32 26 55 54t33 75l65 305h58l-110 -520h-58l18 85q-49 -55 -98.5 -78t-96.5 -23q-37 0 -64.5 11t-45 30.5t-26 46.5t-8.5 58q0 13 1.5 28t4.5 29 l70 333h59zM235 625l18 86h65l-18 -86h-65zM396 625l18 86h67l-18 -86h-67z" />
<glyph unicode="&#xfd;" horiz-adv-x="502" d="M184 7l-114 513h63l95 -446l263 446h70l-362 -589q-19 -29 -35 -52.5t-32.5 -40.5t-35.5 -25.5t-46 -8.5q-23 0 -41.5 4t-32.5 11l19 48q9 -4 21 -7.5t27 -3.5q19 0 31 4.5t23 14.5t22 27t27 43zM248 596l134 135h83l-151 -135h-66z" />
<glyph unicode="&#xfe;" horiz-adv-x="588" d="M46 -196h-58l195 917h58l-58 -279q40 46 86.5 70t104.5 24q51 0 86.5 -18.5t57 -49.5t31.5 -70t10 -80q0 -59 -18.5 -119t-54.5 -107.5t-89 -77.5t-121 -30q-53 0 -98.5 23.5t-72.5 72.5zM279 34q48 0 88 23t69 62t44.5 89.5t15.5 106.5q0 86 -34 128.5t-95 42.5 q-33 0 -58 -8t-53 -28q-40 -26 -68 -66t-42 -101l-9 -44q-9 -39 -9 -68q0 -35 11 -58t34 -43q20 -17 45.5 -26.5t60.5 -9.5z" />
<glyph unicode="&#xff;" horiz-adv-x="502" d="M184 7l-114 513h63l95 -446l263 446h70l-362 -589q-19 -29 -35 -52.5t-32.5 -40.5t-35.5 -25.5t-46 -8.5q-23 0 -41.5 4t-32.5 11l19 48q9 -4 21 -7.5t27 -3.5q19 0 31 4.5t23 14.5t22 27t27 43zM203 625l18 86h65l-18 -86h-65zM364 625l18 86h67l-18 -86h-67z" />
<glyph unicode="&#x100;" horiz-adv-x="667" d="M410 721h73l132 -721h-64l-40 220h-339l-133 -220h-67zM206 277h295l-69 376zM311 806l11 54h285l-11 -54h-285z" />
<glyph unicode="&#x101;" horiz-adv-x="530" d="M25 124q0 55 22.5 90.5t62 58.5t94.5 33t119 13l105 4l2 10l4 26t2 24q0 45 -26 74.5t-94 29.5q-37 0 -63.5 -4.5t-44.5 -14.5t-30.5 -27.5t-22.5 -42.5l-55 9q24 71 77 100t144 29q90 0 132.5 -42t42.5 -111q0 -14 -2 -29t-5 -30l-69 -324h-58l15 74q-36 -36 -82.5 -61 t-114.5 -25t-111.5 37t-43.5 99zM188 40q33 0 66 8t58 25q20 13 35 25.5t25.5 26.5t18 32.5t12.5 42.5l16 77l-97 -4q-66 -3 -111 -13t-72.5 -27.5t-39 -44t-11.5 -63.5q0 -34 22 -59.5t78 -25.5zM221 685h246l-11 -52h-246z" />
<glyph unicode="&#x102;" horiz-adv-x="667" d="M410 721h73l132 -721h-64l-40 220h-339l-133 -220h-67zM206 277h295l-69 376zM481 782q-52 0 -81.5 25.5t-29.5 74.5q0 13 3 30h48q-3 -14 -3 -24q0 -33 17.5 -47.5t47.5 -14.5q35 0 61.5 19t34.5 67h48q-13 -70 -49.5 -100t-96.5 -30z" />
<glyph unicode="&#x103;" horiz-adv-x="530" d="M25 124q0 55 22.5 90.5t62 58.5t94.5 33t119 13l105 4l2 10l4 26t2 24q0 45 -26 74.5t-94 29.5q-37 0 -63.5 -4.5t-44.5 -14.5t-30.5 -27.5t-22.5 -42.5l-55 9q24 71 77 100t144 29q90 0 132.5 -42t42.5 -111q0 -14 -2 -29t-5 -30l-69 -324h-58l15 74q-36 -36 -82.5 -61 t-114.5 -25t-111.5 37t-43.5 99zM188 40q33 0 66 8t58 25q20 13 35 25.5t25.5 26.5t18 32.5t12.5 42.5l16 77l-97 -4q-66 -3 -111 -13t-72.5 -27.5t-39 -44t-11.5 -63.5q0 -34 22 -59.5t78 -25.5zM340 595q-52 0 -81.5 26.5t-29.5 75.5q0 13 3 30h48q-3 -14 -3 -24 q0 -32 17.5 -48.5t47.5 -16.5q35 0 61.5 20.5t34.5 68.5h48q-13 -69 -49.5 -100.5t-96.5 -31.5z" />
<glyph unicode="&#x104;" horiz-adv-x="667" d="M592 -177q-6 -1 -13 -1.5t-17 -0.5q-39 0 -61.5 19.5t-22.5 49.5t17 57t58 53h-2l-40 220h-339l-133 -220h-67l438 721h73l132 -721q-78 -54 -78 -95q0 -16 10.5 -25.5t30.5 -9.5q5 0 12 0.5t13 1.5zM206 277h295l-69 376z" />
<glyph unicode="&#x105;" horiz-adv-x="530" d="M397 -172q-6 -1 -13 -1.5t-16 -0.5q-39 0 -60.5 19t-21.5 48t17.5 55t58.5 52l15 74q-36 -36 -82.5 -61t-114.5 -25t-111.5 37t-43.5 99q0 55 22.5 90.5t62 58.5t94.5 33t119 13l105 4l2 10l4 26t2 24q0 45 -26 74.5t-94 29.5q-37 0 -63.5 -4.5t-44.5 -14.5t-30.5 -27.5 t-22.5 -42.5l-55 9q24 71 77 100t144 29q90 0 132.5 -42t42.5 -111q0 -14 -2 -29t-5 -30l-69 -324h-1q-38 -26 -57 -48.5t-19 -43.5q0 -34 40 -34q5 0 12 0.5t12 1.5zM188 40q33 0 66 8t58 25q20 13 35 25.5t25.5 26.5t18 32.5t12.5 42.5l16 77l-97 -4q-66 -3 -111 -13 t-72.5 -27.5t-39 -44t-11.5 -63.5q0 -34 22 -59.5t78 -25.5z" />
<glyph unicode="&#x106;" horiz-adv-x="716" d="M674 221q-12 -50 -37.5 -94t-64.5 -76.5t-91.5 -50.5t-119.5 -18q-60 0 -111.5 20t-89.5 58t-59 93t-21 125q0 92 25.5 175.5t75 147.5t120.5 101t162 37q113 0 177 -61t75 -172l-62 -12q-13 98 -58.5 145t-136.5 47q-72 0 -129.5 -32t-98 -86.5t-62.5 -127.5t-22 -156 q0 -52 14.5 -97t41.5 -78.5t68 -53t95 -19.5q52 0 92.5 14t70.5 38.5t49.5 58.5t28.5 74h68zM419 782l134 130h82l-152 -130h-64z" />
<glyph unicode="&#x107;" horiz-adv-x="559" d="M482 352q-3 25 -10 48.5t-22.5 42.5t-40.5 31t-65 12q-50 0 -91 -21t-70 -57.5t-45 -88t-16 -112.5q0 -36 8 -68t26.5 -55t47 -36.5t70.5 -13.5q38 0 67 10.5t49.5 28t34 41t22.5 50.5h60q-12 -40 -32.5 -72.5t-49.5 -56.5t-68.5 -37.5t-88.5 -13.5q-52 0 -91 17 t-65.5 46.5t-39.5 69t-13 84.5q0 80 23 142t62.5 105t91.5 65.5t109 22.5q50 0 85.5 -14t58 -38t34 -55.5t14.5 -64.5zM297 596l134 135h83l-151 -135h-66z" />
<glyph unicode="&#x108;" horiz-adv-x="716" d="M674 221q-12 -50 -37.5 -94t-64.5 -76.5t-91.5 -50.5t-119.5 -18q-60 0 -111.5 20t-89.5 58t-59 93t-21 125q0 92 25.5 175.5t75 147.5t120.5 101t162 37q113 0 177 -61t75 -172l-62 -12q-13 98 -58.5 145t-136.5 47q-72 0 -129.5 -32t-98 -86.5t-62.5 -127.5t-22 -156 q0 -52 14.5 -97t41.5 -78.5t68 -53t95 -19.5q52 0 92.5 14t70.5 38.5t49.5 58.5t28.5 74h68zM328 782l141 130h57l86 -130h-60l-60 84l-101 -84h-63z" />
<glyph unicode="&#x109;" horiz-adv-x="559" d="M482 352q-3 25 -10 48.5t-22.5 42.5t-40.5 31t-65 12q-50 0 -91 -21t-70 -57.5t-45 -88t-16 -112.5q0 -36 8 -68t26.5 -55t47 -36.5t70.5 -13.5q38 0 67 10.5t49.5 28t34 41t22.5 50.5h60q-12 -40 -32.5 -72.5t-49.5 -56.5t-68.5 -37.5t-88.5 -13.5q-52 0 -91 17 t-65.5 46.5t-39.5 69t-13 84.5q0 80 23 142t62.5 105t91.5 65.5t109 22.5q50 0 85.5 -14t58 -38t34 -55.5t14.5 -64.5zM218 596l143 135h57l85 -135h-57l-62 91l-104 -91h-62z" />
<glyph unicode="&#x10a;" horiz-adv-x="716" d="M674 221q-12 -50 -37.5 -94t-64.5 -76.5t-91.5 -50.5t-119.5 -18q-60 0 -111.5 20t-89.5 58t-59 93t-21 125q0 92 25.5 175.5t75 147.5t120.5 101t162 37q113 0 177 -61t75 -172l-62 -12q-13 98 -58.5 145t-136.5 47q-72 0 -129.5 -32t-98 -86.5t-62.5 -127.5t-22 -156 q0 -52 14.5 -97t41.5 -78.5t68 -53t95 -19.5q52 0 92.5 14t70.5 38.5t49.5 58.5t28.5 74h68zM443 802l20 90h68l-19 -90h-69z" />
<glyph unicode="&#x10b;" horiz-adv-x="559" d="M482 352q-3 25 -10 48.5t-22.5 42.5t-40.5 31t-65 12q-50 0 -91 -21t-70 -57.5t-45 -88t-16 -112.5q0 -36 8 -68t26.5 -55t47 -36.5t70.5 -13.5q38 0 67 10.5t49.5 28t34 41t22.5 50.5h60q-12 -40 -32.5 -72.5t-49.5 -56.5t-68.5 -37.5t-88.5 -13.5q-52 0 -91 17 t-65.5 46.5t-39.5 69t-13 84.5q0 80 23 142t62.5 105t91.5 65.5t109 22.5q50 0 85.5 -14t58 -38t34 -55.5t14.5 -64.5zM325 624l19 88h66l-18 -88h-67z" />
<glyph unicode="&#x10c;" horiz-adv-x="716" d="M674 221q-12 -50 -37.5 -94t-64.5 -76.5t-91.5 -50.5t-119.5 -18q-60 0 -111.5 20t-89.5 58t-59 93t-21 125q0 92 25.5 175.5t75 147.5t120.5 101t162 37q113 0 177 -61t75 -172l-62 -12q-13 98 -58.5 145t-136.5 47q-72 0 -129.5 -32t-98 -86.5t-62.5 -127.5t-22 -156 q0 -52 14.5 -97t41.5 -78.5t68 -53t95 -19.5q52 0 92.5 14t70.5 38.5t49.5 58.5t28.5 74h68zM643 915l-140 -130h-58l-86 130h61l60 -84l101 84h62z" />
<glyph unicode="&#x10d;" horiz-adv-x="559" d="M482 352q-3 25 -10 48.5t-22.5 42.5t-40.5 31t-65 12q-50 0 -91 -21t-70 -57.5t-45 -88t-16 -112.5q0 -36 8 -68t26.5 -55t47 -36.5t70.5 -13.5q38 0 67 10.5t49.5 28t34 41t22.5 50.5h60q-12 -40 -32.5 -72.5t-49.5 -56.5t-68.5 -37.5t-88.5 -13.5q-52 0 -91 17 t-65.5 46.5t-39.5 69t-13 84.5q0 80 23 142t62.5 105t91.5 65.5t109 22.5q50 0 85.5 -14t58 -38t34 -55.5t14.5 -64.5zM532 733l-142 -135h-58l-85 135h58l62 -91l104 91h61z" />
<glyph unicode="&#x10e;" horiz-adv-x="709" d="M42 0l153 721h228q63 0 114 -21t87.5 -59t56 -90.5t19.5 -116.5q0 -91 -26 -170t-79.5 -137.5t-135 -92.5t-192.5 -34h-225zM276 55q89 0 156 26.5t112.5 76.5t68 120t22.5 158q0 48 -14 90t-41.5 73.5t-68 50t-94.5 18.5h-172l-130 -613h161zM579 915l-140 -130h-58 l-86 130h61l60 -84l101 84h62z" />
<glyph unicode="&#x10f;" horiz-adv-x="586" d="M433 78q-38 -49 -83 -71.5t-103 -22.5q-51 0 -87.5 19.5t-59 50.5t-32.5 70.5t-10 78.5q0 60 18.5 119.5t54.5 107t88.5 77t120.5 29.5q53 0 98.5 -24t72.5 -73l60 282h58l-153 -721h-59zM479 281q9 40 9 70q0 33 -11 56.5t-34 42.5q-20 18 -45.5 27t-60.5 9 q-48 0 -88 -22.5t-68.5 -60.5t-44.5 -89t-16 -109q0 -83 36.5 -127t100.5 -44q32 0 56 7t51 26q38 27 65.5 68t40.5 102zM654 537l64 184h63l-76 -184h-51z" />
<glyph unicode="&#x110;" horiz-adv-x="719" d="M53 0l72 345h-83l13 55h82l68 321h228q63 0 114 -21t87.5 -59t56 -90.5t19.5 -116.5q0 -91 -25.5 -170t-79.5 -137.5t-135.5 -92.5t-192.5 -34h-224zM286 55q89 0 156 26.5t112.5 76.5t68 120t22.5 158q0 48 -14 90t-41 73.5t-68 50t-95 18.5h-171l-58 -268h202l-12 -55 h-201l-62 -290h161z" />
<glyph unicode="&#x111;" d="M602 593l-126 -593h-59l16 78q-40 -46 -84 -70t-102 -24q-51 0 -87.5 19.5t-59 50.5t-32.5 69t-10 73q0 55 19 112.5t55.5 103.5t89 75t118.5 29q53 0 96.5 -23.5t70.5 -72.5l36 173h-177l11 50h176l18 78h58l-17 -78h72l-11 -50h-71zM475 261q10 43 10 76q0 31 -10.5 53 t-31.5 40q-20 17 -45.5 26.5t-60.5 9.5q-48 0 -88 -23.5t-68.5 -61.5t-44.5 -86.5t-16 -99.5q0 -74 36.5 -117.5t100.5 -43.5q32 0 56 8t51 28q36 28 64.5 64.5t39.5 92.5z" />
<glyph unicode="&#x112;" horiz-adv-x="593" d="M245 666l-56 -265h372l-13 -58h-371l-62 -286h413l-24 -57h-462l153 721h453l-11 -55h-392zM290 806l11 54h285l-11 -54h-285z" />
<glyph unicode="&#x113;" horiz-adv-x="565" d="M119 205q0 -35 9.5 -66.5t29.5 -54.5t50 -37.5t73 -14.5q37 0 64 8t45.5 22t30.5 33t20 41h58q-12 -33 -29.5 -61.5t-43.5 -48.5t-62.5 -31t-86.5 -11q-55 0 -96 18t-68 49t-40.5 71t-13.5 84q0 80 22 141.5t60.5 103.5t89.5 63.5t109 21.5q49 0 86 -15.5t61 -42.5 t36 -63t12 -78q0 -15 -1 -36.5t-4 -38.5l-3 -17h-407q-1 -10 -1 -19.5v-20.5zM335 489q-79 0 -133.5 -50.5t-73.5 -142.5h348q2 9 2.5 22t0.5 24q0 32 -8.5 58.5t-27 46.5t-45 31t-63.5 11zM238 685h246l-11 -52h-246z" />
<glyph unicode="&#x114;" horiz-adv-x="593" d="M245 666l-56 -265h372l-13 -58h-371l-62 -286h413l-24 -57h-462l153 721h453l-11 -55h-392zM455 782q-52 0 -81.5 25.5t-29.5 74.5q0 13 3 30h48q-3 -14 -3 -24q0 -33 17.5 -47.5t47.5 -14.5q35 0 61.5 19t34.5 67h48q-13 -70 -49.5 -100t-96.5 -30z" />
<glyph unicode="&#x115;" horiz-adv-x="565" d="M119 205q0 -35 9.5 -66.5t29.5 -54.5t50 -37.5t73 -14.5q37 0 64 8t45.5 22t30.5 33t20 41h58q-12 -33 -29.5 -61.5t-43.5 -48.5t-62.5 -31t-86.5 -11q-55 0 -96 18t-68 49t-40.5 71t-13.5 84q0 80 22 141.5t60.5 103.5t89.5 63.5t109 21.5q49 0 86 -15.5t61 -42.5 t36 -63t12 -78q0 -15 -1 -36.5t-4 -38.5l-3 -17h-407q-1 -10 -1 -19.5v-20.5zM335 489q-79 0 -133.5 -50.5t-73.5 -142.5h348q2 9 2.5 22t0.5 24q0 32 -8.5 58.5t-27 46.5t-45 31t-63.5 11zM355 595q-52 0 -81.5 26.5t-29.5 75.5q0 13 3 30h48q-3 -14 -3 -24 q0 -32 17.5 -48.5t47.5 -16.5q35 0 61.5 20.5t34.5 68.5h48q-13 -69 -49.5 -100.5t-96.5 -31.5z" />
<glyph unicode="&#x116;" horiz-adv-x="593" d="M245 666l-56 -265h372l-13 -58h-371l-62 -286h413l-24 -57h-462l153 721h453l-11 -55h-392zM397 802l20 90h68l-19 -90h-69z" />
<glyph unicode="&#x117;" horiz-adv-x="565" d="M119 205q0 -35 9.5 -66.5t29.5 -54.5t50 -37.5t73 -14.5q37 0 64 8t45.5 22t30.5 33t20 41h58q-12 -33 -29.5 -61.5t-43.5 -48.5t-62.5 -31t-86.5 -11q-55 0 -96 18t-68 49t-40.5 71t-13.5 84q0 80 22 141.5t60.5 103.5t89.5 63.5t109 21.5q49 0 86 -15.5t61 -42.5 t36 -63t12 -78q0 -15 -1 -36.5t-4 -38.5l-3 -17h-407q-1 -10 -1 -19.5v-20.5zM335 489q-79 0 -133.5 -50.5t-73.5 -142.5h348q2 9 2.5 22t0.5 24q0 32 -8.5 58.5t-27 46.5t-45 31t-63.5 11zM321 624l19 88h66l-18 -88h-67z" />
<glyph unicode="&#x118;" horiz-adv-x="593" d="M481 -177q-6 -1 -13 -1.5t-18 -0.5q-38 0 -60.5 19.5t-22.5 49.5t17 57t58 53h-400l153 721h453l-11 -55h-392l-56 -265h372l-13 -58h-371l-62 -286h413l-24 -57q-78 -54 -78 -95q0 -16 10 -25.5t31 -9.5q5 0 12 0.5t13 1.5z" />
<glyph unicode="&#x119;" horiz-adv-x="565" d="M356 -172q-7 -1 -14 -1.5t-16 -0.5q-38 0 -60 19t-22 48q0 25 13 47.5t41 44.5q-5 -1 -10.5 -1h-10.5q-55 0 -96 18t-68 49t-40.5 71t-13.5 84q0 80 22 141.5t60.5 103.5t89.5 63.5t109 21.5q49 0 86 -15.5t61 -42.5t36 -63t12 -78q0 -15 -1 -36.5t-4 -38.5l-3 -17h-407 q-1 -10 -1 -19.5v-20.5q0 -35 9.5 -66.5t29.5 -54.5t50 -37.5t73 -14.5q37 0 64 8t45.5 22t30.5 33t20 41h58q-17 -48 -45 -83.5t-77 -52.5q-38 -26 -56.5 -48.5t-18.5 -43.5q0 -34 39 -34q5 0 12.5 0.5t12.5 1.5zM335 489q-79 0 -133.5 -50.5t-73.5 -142.5h348q2 9 2.5 22 t0.5 24q0 32 -8.5 58.5t-27 46.5t-45 31t-63.5 11z" />
<glyph unicode="&#x11a;" horiz-adv-x="593" d="M245 666l-56 -265h372l-13 -58h-371l-62 -286h413l-24 -57h-462l153 721h453l-11 -55h-392zM598 915l-140 -130h-58l-86 130h61l60 -84l101 84h62z" />
<glyph unicode="&#x11b;" horiz-adv-x="565" d="M119 205q0 -35 9.5 -66.5t29.5 -54.5t50 -37.5t73 -14.5q37 0 64 8t45.5 22t30.5 33t20 41h58q-12 -33 -29.5 -61.5t-43.5 -48.5t-62.5 -31t-86.5 -11q-55 0 -96 18t-68 49t-40.5 71t-13.5 84q0 80 22 141.5t60.5 103.5t89.5 63.5t109 21.5q49 0 86 -15.5t61 -42.5 t36 -63t12 -78q0 -15 -1 -36.5t-4 -38.5l-3 -17h-407q-1 -10 -1 -19.5v-20.5zM335 489q-79 0 -133.5 -50.5t-73.5 -142.5h348q2 9 2.5 22t0.5 24q0 32 -8.5 58.5t-27 46.5t-45 31t-63.5 11zM522 733l-142 -135h-58l-85 135h58l62 -91l104 91h61z" />
<glyph unicode="&#x11c;" horiz-adv-x="718" d="M653 529q-15 79 -65.5 118t-127.5 39t-135.5 -34t-98.5 -90t-60.5 -128.5t-20.5 -149.5q0 -51 14.5 -96t41.5 -78.5t67.5 -53.5t92.5 -20q43 0 77.5 6t61 16t45.5 21t33 21l43 201h-207l12 56h266l-61 -285q-17 -15 -42.5 -31t-60.5 -29t-77.5 -21.5t-92.5 -8.5 q-61 0 -112 21t-88.5 60t-58 93.5t-20.5 121.5q0 88 24.5 170.5t73 147.5t121 104t168.5 39q97 0 162.5 -49.5t84.5 -147.5zM328 782l141 130h57l86 -130h-60l-60 84l-101 -84h-63z" />
<glyph unicode="&#x11d;" horiz-adv-x="585" d="M480 19q-11 -52 -30.5 -94t-49.5 -71.5t-74 -45t-105 -15.5q-42 0 -78.5 8t-62.5 25.5t-42.5 46.5t-17.5 70h56q4 -27 13.5 -46t26 -31t42.5 -18t63 -6q86 0 133 42t68 141l15 71q-34 -44 -82.5 -66t-106.5 -22q-51 0 -86.5 18.5t-57.5 48.5t-31.5 67.5t-9.5 73.5 q0 57 18 114t53.5 103t87.5 74.5t118 28.5q53 0 98.5 -24t72.5 -73l17 81h59zM337 486q-48 0 -87.5 -22.5t-66.5 -59.5t-42.5 -85.5t-15.5 -101.5q0 -76 34.5 -117t96.5 -41q32 0 61.5 8t58.5 27q39 26 62 63.5t36 99.5l5 24q9 40 9 71q0 33 -11 56t-34 42q-20 18 -45.5 27 t-60.5 9zM221 596l143 135h57l85 -135h-57l-62 91l-104 -91h-62z" />
<glyph unicode="&#x11e;" horiz-adv-x="718" d="M653 529q-15 79 -65.5 118t-127.5 39t-135.5 -34t-98.5 -90t-60.5 -128.5t-20.5 -149.5q0 -51 14.5 -96t41.5 -78.5t67.5 -53.5t92.5 -20q43 0 77.5 6t61 16t45.5 21t33 21l43 201h-207l12 56h266l-61 -285q-17 -15 -42.5 -31t-60.5 -29t-77.5 -21.5t-92.5 -8.5 q-61 0 -112 21t-88.5 60t-58 93.5t-20.5 121.5q0 88 24.5 170.5t73 147.5t121 104t168.5 39q97 0 162.5 -49.5t84.5 -147.5zM497 782q-52 0 -81.5 25.5t-29.5 74.5q0 13 3 30h48q-3 -14 -3 -24q0 -33 17.5 -47.5t47.5 -14.5q35 0 61.5 19t34.5 67h48q-13 -70 -49.5 -100 t-96.5 -30z" />
<glyph unicode="&#x11f;" horiz-adv-x="585" d="M480 19q-11 -52 -30.5 -94t-49.5 -71.5t-74 -45t-105 -15.5q-42 0 -78.5 8t-62.5 25.5t-42.5 46.5t-17.5 70h56q4 -27 13.5 -46t26 -31t42.5 -18t63 -6q86 0 133 42t68 141l15 71q-34 -44 -82.5 -66t-106.5 -22q-51 0 -86.5 18.5t-57.5 48.5t-31.5 67.5t-9.5 73.5 q0 57 18 114t53.5 103t87.5 74.5t118 28.5q53 0 98.5 -24t72.5 -73l17 81h59zM337 486q-48 0 -87.5 -22.5t-66.5 -59.5t-42.5 -85.5t-15.5 -101.5q0 -76 34.5 -117t96.5 -41q32 0 61.5 8t58.5 27q39 26 62 63.5t36 99.5l5 24q9 40 9 71q0 33 -11 56t-34 42q-20 18 -45.5 27 t-60.5 9zM374 595q-52 0 -81.5 26.5t-29.5 75.5q0 13 3 30h48q-3 -14 -3 -24q0 -32 17.5 -48.5t47.5 -16.5q35 0 61.5 20.5t34.5 68.5h48q-13 -69 -49.5 -100.5t-96.5 -31.5z" />
<glyph unicode="&#x120;" horiz-adv-x="718" d="M653 529q-15 79 -65.5 118t-127.5 39t-135.5 -34t-98.5 -90t-60.5 -128.5t-20.5 -149.5q0 -51 14.5 -96t41.5 -78.5t67.5 -53.5t92.5 -20q43 0 77.5 6t61 16t45.5 21t33 21l43 201h-207l12 56h266l-61 -285q-17 -15 -42.5 -31t-60.5 -29t-77.5 -21.5t-92.5 -8.5 q-61 0 -112 21t-88.5 60t-58 93.5t-20.5 121.5q0 88 24.5 170.5t73 147.5t121 104t168.5 39q97 0 162.5 -49.5t84.5 -147.5zM443 802l20 90h68l-19 -90h-69z" />
<glyph unicode="&#x121;" horiz-adv-x="585" d="M480 19q-11 -52 -30.5 -94t-49.5 -71.5t-74 -45t-105 -15.5q-42 0 -78.5 8t-62.5 25.5t-42.5 46.5t-17.5 70h56q4 -27 13.5 -46t26 -31t42.5 -18t63 -6q86 0 133 42t68 141l15 71q-34 -44 -82.5 -66t-106.5 -22q-51 0 -86.5 18.5t-57.5 48.5t-31.5 67.5t-9.5 73.5 q0 57 18 114t53.5 103t87.5 74.5t118 28.5q53 0 98.5 -24t72.5 -73l17 81h59zM337 486q-48 0 -87.5 -22.5t-66.5 -59.5t-42.5 -85.5t-15.5 -101.5q0 -76 34.5 -117t96.5 -41q32 0 61.5 8t58.5 27q39 26 62 63.5t36 99.5l5 24q9 40 9 71q0 33 -11 56t-34 42q-20 18 -45.5 27 t-60.5 9zM334 624l19 88h66l-18 -88h-67z" />
<glyph unicode="&#x122;" horiz-adv-x="718" d="M653 529q-15 79 -65.5 118t-127.5 39t-135.5 -34t-98.5 -90t-60.5 -128.5t-20.5 -149.5q0 -51 14.5 -96t41.5 -78.5t67.5 -53.5t92.5 -20q43 0 77.5 6t61 16t45.5 21t33 21l43 201h-207l12 56h266l-61 -285q-17 -15 -42.5 -31t-60.5 -29t-77.5 -21.5t-92.5 -8.5 q-61 0 -112 21t-88.5 60t-58 93.5t-20.5 121.5q0 88 24.5 170.5t73 147.5t121 104t168.5 39q97 0 162.5 -49.5t84.5 -147.5zM210 -214l104 145h77l-122 -145h-59z" />
<glyph unicode="&#x123;" horiz-adv-x="585" d="M480 19q-11 -52 -30.5 -94t-49.5 -71.5t-74 -45t-105 -15.5q-42 0 -78.5 8t-62.5 25.5t-42.5 46.5t-17.5 70h56q4 -27 13.5 -46t26 -31t42.5 -18t63 -6q86 0 133 42t68 141l15 71q-34 -44 -82.5 -66t-106.5 -22q-51 0 -86.5 18.5t-57.5 48.5t-31.5 67.5t-9.5 73.5 q0 57 18 114t53.5 103t87.5 74.5t118 28.5q53 0 98.5 -24t72.5 -73l17 81h59zM337 486q-48 0 -87.5 -22.5t-66.5 -59.5t-42.5 -85.5t-15.5 -101.5q0 -76 34.5 -117t96.5 -41q32 0 61.5 8t58.5 27q39 26 62 63.5t36 99.5l5 24q9 40 9 71q0 33 -11 56t-34 42q-20 18 -45.5 27 t-60.5 9zM509 731l-101 -141h-75l118 141h58z" />
<glyph unicode="&#x124;" horiz-adv-x="695" d="M511 0l73 344h-407l-73 -344h-62l153 721h62l-68 -319h407l68 319h61l-152 -721h-62zM322 782l141 130h57l86 -130h-60l-60 84l-101 -84h-63z" />
<glyph unicode="&#x125;" horiz-adv-x="563" d="M181 435q50 55 102.5 78t100.5 23q73 0 110.5 -39t37.5 -109q0 -26 -6 -55l-70 -333h-59l69 322q3 14 5 28.5t2 28.5q0 47 -22 76t-76 29q-30 0 -64.5 -12t-67.5 -38q-32 -26 -55.5 -54t-33.5 -75l-65 -305h-59l153 721h58zM196 782l141 130h57l86 -130h-60l-60 84 l-101 -84h-63z" />
<glyph unicode="&#x126;" horiz-adv-x="716" d="M521 0l71 336h-407l-71 -336h-61l113 534h-83l11 54h83l28 133h62l-29 -133h407l29 133h61l-28 -133h83l-11 -54h-83l-113 -534h-62zM604 394l29 140h-407l-29 -140h407z" />
<glyph unicode="&#x127;" horiz-adv-x="574" d="M235 643h179l-11 -50h-178l-37 -178q50 55 102.5 78t100.5 23q73 0 110.5 -39.5t37.5 -108.5q0 -27 -6 -55l-66 -313h-59l65 302q3 14 5 28t2 29q0 47 -22 76t-76 29q-30 0 -64.5 -12.5t-67.5 -37.5q-32 -26 -55.5 -54t-33.5 -75l-61 -285h-59l126 593h-72l11 50h71 l17 78h58z" />
<glyph unicode="&#x128;" horiz-adv-x="227" d="M42 0l153 721h62l-153 -721h-62zM312 789q-25 0 -43.5 9t-34.5 20t-31.5 20t-31.5 9q-26 0 -38 -13.5t-18 -43.5h-50q8 52 32.5 79t72.5 27q25 0 44 -9t35 -20t30.5 -20t31.5 -9q27 0 39 13.5t17 43.5h51q-9 -53 -33 -79.5t-73 -26.5z" />
<glyph unicode="&#x129;" horiz-adv-x="206" d="M33 0l110 520h59l-110 -520h-59zM253 610q-24 0 -42 9t-33.5 19.5t-30.5 20t-31 9.5q-26 0 -37.5 -13.5t-16.5 -42.5h-49q8 52 31.5 78.5t70.5 26.5q24 0 42.5 -9t34 -19.5t30 -19.5t30.5 -9q27 0 38.5 13t16.5 42h48q-8 -51 -31 -78t-71 -27z" />
<glyph unicode="&#x12a;" horiz-adv-x="227" d="M42 0l153 721h62l-153 -721h-62zM92 806l11 54h285l-11 -54h-285z" />
<glyph unicode="&#x12b;" horiz-adv-x="206" d="M33 0l110 520h59l-110 -520h-59zM71 685h246l-11 -52h-246z" />
<glyph unicode="&#x12c;" horiz-adv-x="227" d="M42 0l153 721h62l-153 -721h-62zM262 782q-52 0 -81.5 25.5t-29.5 74.5q0 13 3 30h48q-3 -14 -3 -24q0 -33 17.5 -47.5t47.5 -14.5q35 0 61.5 19t34.5 67h48q-13 -70 -49.5 -100t-96.5 -30z" />
<glyph unicode="&#x12d;" horiz-adv-x="206" d="M33 0l110 520h59l-110 -520h-59zM189 595q-52 0 -81.5 26.5t-29.5 75.5q0 13 3 30h48q-3 -14 -3 -24q0 -32 17.5 -48.5t47.5 -16.5q35 0 61.5 20.5t34.5 68.5h48q-13 -69 -49.5 -100.5t-96.5 -31.5z" />
<glyph unicode="&#x12e;" horiz-adv-x="227" d="M81 -177q-6 -1 -13 -1.5t-18 -0.5q-38 0 -60.5 19.5t-22.5 49.5t17 57t58 53l153 721h62l-153 -721q-78 -54 -78 -95q0 -16 10 -25.5t31 -9.5q5 0 12 0.5t13 1.5z" />
<glyph unicode="&#x12f;" horiz-adv-x="206" d="M70 -172q-6 -1 -13.5 -1.5t-16.5 -0.5q-38 0 -59.5 19t-21.5 48t17.5 55t57.5 52h-1l110 520h59l-110 -520q-38 -26 -57 -48.5t-19 -43.5q0 -34 40 -34q5 0 12 0.5t12 1.5zM159 633l18 88h66l-18 -88h-66z" />
<glyph unicode="&#x130;" horiz-adv-x="227" d="M42 0l153 721h62l-153 -721h-62zM209 802l20 90h68l-19 -90h-69z" />
<glyph unicode="&#x131;" horiz-adv-x="206" d="M33 0l110 520h59l-110 -520h-59z" />
<glyph unicode="&#x132;" horiz-adv-x="809" d="M738 226q-26 -126 -91.5 -185t-179.5 -59q-47 0 -86 11.5t-66.5 36t-43.5 60t-16 84.5v12t1 13h59v-13q0 -31 6.5 -58.5t24 -47.5t47.5 -32t76 -12q96 0 143 52.5t67 149.5l102 483h62zM42 0l153 721h62l-153 -721h-62z" />
<glyph unicode="&#x133;" horiz-adv-x="412" d="M294 -18q-8 -36 -18 -66.5t-27.5 -53.5t-43.5 -36.5t-66 -13.5q-34 0 -54.5 6t-35.5 12l21 49q12 -5 28 -9.5t41 -4.5q42 0 62 24.5t29 67.5l119 563h59zM365 633l18 88h66l-18 -88h-66zM33 0l110 520h59l-110 -520h-59zM159 633l18 88h66l-18 -88h-66z" />
<glyph unicode="&#x134;" horiz-adv-x="581" d="M511 226q-26 -126 -91.5 -185t-179.5 -59q-47 0 -86 11.5t-66.5 36t-43.5 60t-16 84.5v12t1 13h59v-13q0 -31 6.5 -58.5t24 -47.5t47.5 -32t76 -12q96 0 143 52.5t67 149.5l102 483h62zM449 782l141 130h57l86 -130h-60l-60 84l-101 -84h-63z" />
<glyph unicode="&#x135;" horiz-adv-x="206" d="M88 -18q-8 -36 -18 -66.5t-27.5 -53.5t-43.5 -36.5t-66 -13.5q-34 0 -54.5 6t-35.5 12l21 49q12 -5 28 -9.5t41 -4.5q42 0 62 24.5t29 67.5l119 563h59zM27 596l143 135h57l85 -135h-57l-62 91l-104 -91h-62z" />
<glyph unicode="&#x136;" horiz-adv-x="642" d="M333 409l-171 -138l-58 -271h-62l153 721h62l-79 -375l457 375h74l-325 -275l198 -446h-71zM152 -214l104 145h77l-122 -145h-59z" />
<glyph unicode="&#x137;" horiz-adv-x="497" d="M30 0l153 721h58l-92 -439l315 238h75l-221 -175l133 -345h-65l-117 313l-136 -101l-44 -212h-59zM81 -210l101 141h75l-119 -141h-57z" />
<glyph unicode="&#x138;" horiz-adv-x="496" d="M30 0l110 520h59l-57 -264l321 264h75l-223 -191l137 -329h-66l-119 296l-140 -113l-38 -183h-59z" />
<glyph unicode="&#x139;" horiz-adv-x="555" d="M483 0h-441l153 721h62l-141 -663h392zM190 782l134 130h82l-152 -130h-64z" />
<glyph unicode="&#x13a;" horiz-adv-x="206" d="M33 0l153 721h58l-152 -721h-59zM180 782l134 130h82l-152 -130h-64z" />
<glyph unicode="&#x13b;" horiz-adv-x="555" d="M483 0h-441l153 721h62l-141 -663h392zM116 -214l104 145h77l-122 -145h-59z" />
<glyph unicode="&#x13c;" horiz-adv-x="206" d="M33 0l153 721h58l-152 -721h-59zM-91 -210l101 141h75l-119 -141h-57z" />
<glyph unicode="&#x13d;" horiz-adv-x="555" d="M483 0h-441l153 721h62l-141 -663h392zM400 538l64 184h63l-76 -184h-51z" />
<glyph unicode="&#x13e;" horiz-adv-x="206" d="M33 0l153 721h58l-152 -721h-59zM270 537l64 184h63l-76 -184h-51z" />
<glyph unicode="&#x13f;" horiz-adv-x="555" d="M483 0h-441l153 721h62l-141 -663h392zM376 350l19 94h76l-19 -94h-76z" />
<glyph unicode="&#x140;" horiz-adv-x="293" d="M33 0l153 721h58l-152 -721h-59zM238 330l19 94h76l-19 -94h-76z" />
<glyph unicode="&#x141;" horiz-adv-x="565" d="M493 0h-440l55 262l-96 -60l13 65l96 59l84 395h62l-75 -352l256 159l-14 -64l-255 -160l-53 -246h392z" />
<glyph unicode="&#x142;" horiz-adv-x="252" d="M57 0l72 344l-107 -69l12 60l108 70l67 316h59l-60 -280l107 71l-12 -62l-107 -69l-81 -381h-58z" />
<glyph unicode="&#x143;" horiz-adv-x="696" d="M510 0l-275 628l-133 -628h-60l153 721h65l273 -626l134 626h59l-152 -721h-64zM410 782l134 130h82l-152 -130h-64z" />
<glyph unicode="&#x144;" horiz-adv-x="563" d="M397 0l69 322q3 14 5 28.5t2 28.5q0 47 -22 76t-76 29q-30 0 -64.5 -12t-67.5 -38q-32 -26 -55.5 -54t-33.5 -75l-65 -305h-59l110 520h59l-18 -85q50 55 102.5 78t100.5 23q73 0 110.5 -39t37.5 -109q0 -26 -6 -55l-70 -333h-59zM291 596l134 135h83l-151 -135h-66z" />
<glyph unicode="&#x145;" horiz-adv-x="696" d="M510 0l-275 628l-133 -628h-60l153 721h65l273 -626l134 626h59l-152 -721h-64zM159 -214l104 145h77l-122 -145h-59z" />
<glyph unicode="&#x146;" horiz-adv-x="563" d="M397 0l69 322q3 14 5 28.5t2 28.5q0 47 -22 76t-76 29q-30 0 -64.5 -12t-67.5 -38q-32 -26 -55.5 -54t-33.5 -75l-65 -305h-59l110 520h59l-18 -85q50 55 102.5 78t100.5 23q73 0 110.5 -39t37.5 -109q0 -26 -6 -55l-70 -333h-59zM113 -210l101 141h75l-119 -141h-57z " />
<glyph unicode="&#x147;" horiz-adv-x="696" d="M510 0l-275 628l-133 -628h-60l153 721h65l273 -626l134 626h59l-152 -721h-64zM636 915l-140 -130h-58l-86 130h61l60 -84l101 84h62z" />
<glyph unicode="&#x148;" horiz-adv-x="563" d="M397 0l69 322q3 14 5 28.5t2 28.5q0 47 -22 76t-76 29q-30 0 -64.5 -12t-67.5 -38q-32 -26 -55.5 -54t-33.5 -75l-65 -305h-59l110 520h59l-18 -85q50 55 102.5 78t100.5 23q73 0 110.5 -39t37.5 -109q0 -26 -6 -55l-70 -333h-59zM546 733l-142 -135h-58l-85 135h58 l62 -91l104 91h61z" />
<glyph unicode="&#x149;" horiz-adv-x="591" d="M425 0l69 322q3 14 5 28.5t2 28.5q0 47 -22 76t-76 29q-30 0 -64.5 -12t-67.5 -38q-32 -26 -55.5 -54t-33.5 -75l-65 -305h-59l110 520h59l-18 -85q50 55 102.5 78t100.5 23q73 0 110.5 -39t37.5 -109q0 -26 -6 -55l-70 -333h-59zM69 533l65 188h67l-86 -188h-46z" />
<glyph unicode="&#x14a;" horiz-adv-x="696" d="M200 -122q21 -11 50.5 -20.5t75.5 -9.5q51 0 83 9.5t52.5 28.5t31 47t18.5 66l-276 629l-133 -628h-60l153 721h65l273 -626l134 626h59l-152 -721q-12 -56 -30.5 -95t-47.5 -64t-71 -36.5t-101 -11.5q-45 0 -81 8t-68 25z" />
<glyph unicode="&#x14b;" horiz-adv-x="563" d="M451 -18q-8 -36 -18 -66.5t-26.5 -53.5t-43 -36.5t-65.5 -13.5q-34 0 -55 6t-35 12l20 49q12 -5 28.5 -9.5t41.5 -4.5q41 0 61 24.5t29 67.5l78 365q3 14 5 28.5t2 28.5q0 47 -22 76t-76 29q-30 0 -64.5 -12t-67.5 -38q-32 -26 -55.5 -54t-33.5 -75l-65 -305h-59l110 520 h59l-18 -85q50 55 102.5 78t100.5 23q73 0 110.5 -39t37.5 -109q0 -26 -6 -55z" />
<glyph unicode="&#x14c;" horiz-adv-x="763" d="M471 739q59 0 111 -20t90.5 -58.5t60 -93.5t21.5 -126q0 -83 -25.5 -165t-75.5 -147.5t-122 -106t-166 -40.5q-60 0 -112 20t-90.5 58t-60 93t-21.5 126q0 83 26.5 165.5t76.5 148t122.5 106t164.5 40.5zM367 36q75 0 135.5 35t101.5 92t63 129.5t22 146.5q0 54 -14 99 t-42.5 77.5t-69.5 51t-94 18.5q-76 0 -136 -35.5t-101.5 -92t-63.5 -129t-22 -146.5q0 -54 14.5 -99.5t42.5 -77.5t69 -50.5t95 -18.5zM343 806l11 54h285l-11 -54h-285z" />
<glyph unicode="&#x14d;" horiz-adv-x="598" d="M272 34q52 0 95 22t73.5 60t47 89.5t16.5 109.5q0 76 -38 123.5t-111 47.5q-53 0 -96 -22t-73 -59.5t-47 -89t-17 -110.5q0 -76 38 -123.5t112 -47.5zM267 -16q-46 0 -84 15.5t-65 44t-42.5 68.5t-15.5 88q0 78 23.5 140t64.5 106t95.5 67t116.5 23q45 0 83 -15.5t65 -44 t43 -68t16 -88.5q0 -78 -23.5 -140t-63.5 -106t-95 -67t-118 -23zM256 685h246l-11 -52h-246z" />
<glyph unicode="&#x14e;" horiz-adv-x="763" d="M471 739q59 0 111 -20t90.5 -58.5t60 -93.5t21.5 -126q0 -83 -25.5 -165t-75.5 -147.5t-122 -106t-166 -40.5q-60 0 -112 20t-90.5 58t-60 93t-21.5 126q0 83 26.5 165.5t76.5 148t122.5 106t164.5 40.5zM367 36q75 0 135.5 35t101.5 92t63 129.5t22 146.5q0 54 -14 99 t-42.5 77.5t-69.5 51t-94 18.5q-76 0 -136 -35.5t-101.5 -92t-63.5 -129t-22 -146.5q0 -54 14.5 -99.5t42.5 -77.5t69 -50.5t95 -18.5zM513 782q-52 0 -81.5 25.5t-29.5 74.5q0 13 3 30h48q-3 -14 -3 -24q0 -33 17.5 -47.5t47.5 -14.5q35 0 61.5 19t34.5 67h48 q-13 -70 -49.5 -100t-96.5 -30z" />
<glyph unicode="&#x14f;" horiz-adv-x="598" d="M272 34q52 0 95 22t73.5 60t47 89.5t16.5 109.5q0 76 -38 123.5t-111 47.5q-53 0 -96 -22t-73 -59.5t-47 -89t-17 -110.5q0 -76 38 -123.5t112 -47.5zM267 -16q-46 0 -84 15.5t-65 44t-42.5 68.5t-15.5 88q0 78 23.5 140t64.5 106t95.5 67t116.5 23q45 0 83 -15.5t65 -44 t43 -68t16 -88.5q0 -78 -23.5 -140t-63.5 -106t-95 -67t-118 -23zM379 595q-52 0 -81.5 26.5t-29.5 75.5q0 13 3 30h48q-3 -14 -3 -24q0 -32 17.5 -48.5t47.5 -16.5q35 0 61.5 20.5t34.5 68.5h48q-13 -69 -49.5 -100.5t-96.5 -31.5z" />
<glyph unicode="&#x150;" horiz-adv-x="763" d="M471 739q59 0 111 -20t90.5 -58.5t60 -93.5t21.5 -126q0 -83 -25.5 -165t-75.5 -147.5t-122 -106t-166 -40.5q-60 0 -112 20t-90.5 58t-60 93t-21.5 126q0 83 26.5 165.5t76.5 148t122.5 106t164.5 40.5zM367 36q75 0 135.5 35t101.5 92t63 129.5t22 146.5q0 54 -14 99 t-42.5 77.5t-69.5 51t-94 18.5q-76 0 -136 -35.5t-101.5 -92t-63.5 -129t-22 -146.5q0 -54 14.5 -99.5t42.5 -77.5t69 -50.5t95 -18.5zM359 782l121 130h77l-137 -130h-61zM523 782l121 130h77l-138 -130h-60z" />
<glyph unicode="&#x151;" horiz-adv-x="598" d="M272 34q52 0 95 22t73.5 60t47 89.5t16.5 109.5q0 76 -38 123.5t-111 47.5q-53 0 -96 -22t-73 -59.5t-47 -89t-17 -110.5q0 -76 38 -123.5t112 -47.5zM267 -16q-46 0 -84 15.5t-65 44t-42.5 68.5t-15.5 88q0 78 23.5 140t64.5 106t95.5 67t116.5 23q45 0 83 -15.5t65 -44 t43 -68t16 -88.5q0 -78 -23.5 -140t-63.5 -106t-95 -67t-118 -23zM254 596l129 135h79l-145 -135h-63zM422 596l129 135h79l-146 -135h-62z" />
<glyph unicode="&#x152;" horiz-adv-x="1093" d="M456 739q91 0 151.5 -47t83.5 -128l32 157h425l-11 -55h-365l-57 -265h345l-12 -58h-345l-62 -286h387l-24 -57h-433l22 104q-42 -52 -101 -87t-143 -35q-55 0 -104 20t-85.5 58t-57.5 93t-21 126q0 83 25.5 165.5t74 148t118.5 106t157 40.5zM351 36q81 0 138 38 t93.5 97t53 130.5t16.5 137.5q0 54 -11 99t-34.5 77.5t-61.5 51t-92 18.5q-72 0 -129 -35.5t-96.5 -92t-60.5 -129t-21 -146.5q0 -54 13.5 -99.5t39.5 -77.5t64 -50.5t88 -18.5z" />
<glyph unicode="&#x153;" horiz-adv-x="982" d="M264 -16q-46 0 -83.5 15.5t-64 44t-41.5 68.5t-15 88q0 78 23 140t63.5 106t94.5 67t116 23q69 0 114.5 -34t65.5 -96q36 61 91 95.5t133 34.5q48 0 84.5 -15.5t60 -42.5t35 -63t11.5 -78q0 -15 -1 -36.5t-4 -38.5l-3 -17h-397q-1 -10 -1 -19.5v-20.5q0 -35 9 -66.5 t28 -54.5t48 -37.5t70 -14.5q37 0 63.5 8t44.5 22t29.5 33t19.5 41h58q-12 -33 -28.5 -61.5t-42.5 -48.5t-62 -31t-86 -11q-44 0 -76 11.5t-56 30.5t-40 44t-27 52q-20 -30 -43 -56t-51 -44t-63 -28t-77 -10zM269 34q52 0 94 22t71 60t44 89.5t15 109.5q0 76 -34 123.5 t-108 47.5q-52 0 -94.5 -22t-72 -59.5t-46 -89t-16.5 -110.5q0 -76 36.5 -123.5t110.5 -47.5zM755 489q-79 0 -129.5 -50.5t-69.5 -142.5h337q2 9 2.5 22t0.5 24q0 32 -8 58.5t-26 46.5t-44 31t-63 11z" />
<glyph unicode="&#x154;" horiz-adv-x="631" d="M170 315l-67 -315h-61l153 721h222q65 0 108.5 -15.5t69 -41t36 -57t10.5 -63.5q0 -90 -46 -141.5t-127 -72.5l82 -330h-69l-75 318q-17 -2 -38.5 -2.5t-41.5 -0.5h-156zM355 370q51 0 93 8.5t70.5 28.5t44.5 53.5t16 83.5q0 26 -8 48.5t-28.5 39t-54.5 26.5t-85 10h-159 l-63 -298h174zM355 782l134 130h82l-152 -130h-64z" />
<glyph unicode="&#x155;" horiz-adv-x="340" d="M379 470q-17 3 -38 3q-16 0 -42 -7t-56 -32q-32 -26 -55.5 -54.5t-33.5 -75.5l-65 -304h-59l110 520h59l-18 -85q48 54 88.5 73.5t82.5 19.5q12 0 24 -1.5t19 -3.5zM216 596l134 135h83l-151 -135h-66z" />
<glyph unicode="&#x156;" horiz-adv-x="631" d="M170 315l-67 -315h-61l153 721h222q65 0 108.5 -15.5t69 -41t36 -57t10.5 -63.5q0 -90 -46 -141.5t-127 -72.5l82 -330h-69l-75 318q-17 -2 -38.5 -2.5t-41.5 -0.5h-156zM355 370q51 0 93 8.5t70.5 28.5t44.5 53.5t16 83.5q0 26 -8 48.5t-28.5 39t-54.5 26.5t-85 10h-159 l-63 -298h174zM133 -214l104 145h77l-122 -145h-59z" />
<glyph unicode="&#x157;" horiz-adv-x="340" d="M379 470q-17 3 -38 3q-16 0 -42 -7t-56 -32q-32 -26 -55.5 -54.5t-33.5 -75.5l-65 -304h-59l110 520h59l-18 -85q48 54 88.5 73.5t82.5 19.5q12 0 24 -1.5t19 -3.5zM-88 -210l101 141h75l-119 -141h-57z" />
<glyph unicode="&#x158;" horiz-adv-x="631" d="M170 315l-67 -315h-61l153 721h222q65 0 108.5 -15.5t69 -41t36 -57t10.5 -63.5q0 -90 -46 -141.5t-127 -72.5l82 -330h-69l-75 318q-17 -2 -38.5 -2.5t-41.5 -0.5h-156zM355 370q51 0 93 8.5t70.5 28.5t44.5 53.5t16 83.5q0 26 -8 48.5t-28.5 39t-54.5 26.5t-85 10h-159 l-63 -298h174zM570 915l-140 -130h-58l-86 130h61l60 -84l101 84h62z" />
<glyph unicode="&#x159;" horiz-adv-x="340" d="M379 470q-17 3 -38 3q-16 0 -42 -7t-56 -32q-32 -26 -55.5 -54.5t-33.5 -75.5l-65 -304h-59l110 520h59l-18 -85q48 54 88.5 73.5t82.5 19.5q12 0 24 -1.5t19 -3.5zM441 733l-142 -135h-58l-85 135h58l62 -91l104 91h61z" />
<glyph unicode="&#x15a;" horiz-adv-x="648" d="M580 208q0 -55 -21 -97t-56.5 -71t-84 -43.5t-105.5 -14.5q-47 0 -94 8t-85 30.5t-63 63t-27 105.5h61q4 -41 18 -69.5t39.5 -47t63.5 -27.5t91 -9t90 13.5t60.5 36.5t34.5 54.5t11 68.5q0 18 -4 37t-15.5 35t-33 28.5t-54.5 19.5l-104 22q-78 18 -123.5 59t-45.5 117 q0 53 18.5 93t52.5 66.5t82.5 39.5t108.5 13q62 0 106 -15.5t73.5 -41.5t45 -59.5t20.5 -70.5l-57 -12q-11 71 -54.5 108.5t-138.5 37.5q-57 0 -94.5 -12t-60 -33t-31.5 -47.5t-9 -56.5q0 -24 5.5 -43.5t19 -36t37.5 -28t60 -19.5l100 -21q46 -9 77 -26.5t50 -41t27.5 -52.5 t8.5 -61zM353 782l134 130h82l-152 -130h-64z" />
<glyph unicode="&#x15b;" horiz-adv-x="519" d="M445 141q-1 -40 -18.5 -70t-46.5 -49t-66 -28.5t-78 -9.5q-36 0 -73 7.5t-66 26t-47.5 49.5t-18.5 77h57q0 -32 12.5 -53.5t34 -34.5t49 -18t58.5 -5q75 0 108.5 32t33.5 75q0 41 -19 60.5t-68 30.5l-60 13q-74 18 -107.5 48t-33.5 85q0 40 17 70.5t45.5 50t65.5 29 t75 9.5q50 0 85 -11t57 -30t33.5 -45.5t15.5 -55.5l-54 -10q-5 26 -14.5 45t-26 32t-41 19t-59.5 6q-37 0 -64 -8t-43.5 -22.5t-24.5 -32.5t-8 -37q0 -17 4 -31t14.5 -24.5t29 -18.5t47.5 -14l66 -14q61 -13 95 -45t34 -98zM270 596l134 135h83l-151 -135h-66z" />
<glyph unicode="&#x15c;" horiz-adv-x="648" d="M580 208q0 -55 -21 -97t-56.5 -71t-84 -43.5t-105.5 -14.5q-47 0 -94 8t-85 30.5t-63 63t-27 105.5h61q4 -41 18 -69.5t39.5 -47t63.5 -27.5t91 -9t90 13.5t60.5 36.5t34.5 54.5t11 68.5q0 18 -4 37t-15.5 35t-33 28.5t-54.5 19.5l-104 22q-78 18 -123.5 59t-45.5 117 q0 53 18.5 93t52.5 66.5t82.5 39.5t108.5 13q62 0 106 -15.5t73.5 -41.5t45 -59.5t20.5 -70.5l-57 -12q-11 71 -54.5 108.5t-138.5 37.5q-57 0 -94.5 -12t-60 -33t-31.5 -47.5t-9 -56.5q0 -24 5.5 -43.5t19 -36t37.5 -28t60 -19.5l100 -21q46 -9 77 -26.5t50 -41t27.5 -52.5 t8.5 -61zM279 782l141 130h57l86 -130h-60l-60 84l-101 -84h-63z" />
<glyph unicode="&#x15d;" horiz-adv-x="519" d="M445 141q-1 -40 -18.5 -70t-46.5 -49t-66 -28.5t-78 -9.5q-36 0 -73 7.5t-66 26t-47.5 49.5t-18.5 77h57q0 -32 12.5 -53.5t34 -34.5t49 -18t58.5 -5q75 0 108.5 32t33.5 75q0 41 -19 60.5t-68 30.5l-60 13q-74 18 -107.5 48t-33.5 85q0 40 17 70.5t45.5 50t65.5 29 t75 9.5q50 0 85 -11t57 -30t33.5 -45.5t15.5 -55.5l-54 -10q-5 26 -14.5 45t-26 32t-41 19t-59.5 6q-37 0 -64 -8t-43.5 -22.5t-24.5 -32.5t-8 -37q0 -17 4 -31t14.5 -24.5t29 -18.5t47.5 -14l66 -14q61 -13 95 -45t34 -98zM173 596l143 135h57l85 -135h-57l-62 91l-104 -91 h-62z" />
<glyph unicode="&#x15e;" horiz-adv-x="648" d="M265 -16q-42 3 -81 14.5t-69 35t-49.5 61t-21.5 94.5h61q4 -41 18 -69.5t39.5 -47t63.5 -27.5t91 -9t90 13.5t60.5 36.5t34.5 54.5t11 68.5q0 18 -4 37t-15.5 35t-33 28.5t-54.5 19.5l-104 22q-78 18 -123.5 59t-45.5 117q0 53 18.5 93t52.5 66.5t82.5 39.5t108.5 13 q62 0 106 -15.5t73.5 -41.5t45 -59.5t20.5 -70.5l-57 -12q-11 71 -54.5 108.5t-138.5 37.5q-57 0 -94.5 -12t-60 -33t-31.5 -47.5t-9 -56.5q0 -24 5.5 -43.5t19 -36t37.5 -28t60 -19.5l100 -21q46 -9 77 -26.5t50 -41t27.5 -52.5t8.5 -61q0 -55 -21 -97t-56.5 -71t-84 -43.5 t-105.5 -14.5h-1l-22 -41q23 -4 38.5 -12t25 -18t13.5 -21t4 -20q0 -27 -10.5 -44t-27.5 -27.5t-41 -14.5t-53 -4q-16 0 -32 2t-31 5l11 45q15 -3 25.5 -4.5t26.5 -1.5q35 0 53.5 9t18.5 33q0 16 -17.5 26.5t-61.5 10.5h-12z" />
<glyph unicode="&#x15f;" horiz-adv-x="519" d="M195 -14q-32 4 -61.5 14t-52 28.5t-36.5 47t-14 68.5h57q0 -32 12.5 -53.5t34 -34.5t49 -18t58.5 -5q75 0 108.5 32t33.5 75q0 41 -19 60.5t-68 30.5l-60 13q-74 18 -107.5 48t-33.5 85q0 40 17 70.5t45.5 50t65.5 29t75 9.5q50 0 85 -11t57 -30t33.5 -45.5t15.5 -55.5 l-54 -10q-5 26 -14.5 45t-26 32t-41 19t-59.5 6q-37 0 -64 -8t-43.5 -22.5t-24.5 -32.5t-8 -37q0 -17 4 -31t14.5 -24.5t29 -18.5t47.5 -14l66 -14q61 -13 95 -45t34 -98q-1 -40 -18 -69.5t-45 -48.5t-65 -28.5t-77 -10.5l-20 -37q44 -7 60.5 -26t16.5 -39 q0 -50 -35.5 -68.5t-88.5 -18.5q-14 0 -30.5 2t-30.5 5l10 44q14 -3 25.5 -4.5t25.5 -1.5q32 0 49.5 8.5t17.5 30.5q0 15 -16.5 24.5t-56.5 9.5h-12z" />
<glyph unicode="&#x160;" horiz-adv-x="648" d="M580 208q0 -55 -21 -97t-56.5 -71t-84 -43.5t-105.5 -14.5q-47 0 -94 8t-85 30.5t-63 63t-27 105.5h61q4 -41 18 -69.5t39.5 -47t63.5 -27.5t91 -9t90 13.5t60.5 36.5t34.5 54.5t11 68.5q0 18 -4 37t-15.5 35t-33 28.5t-54.5 19.5l-104 22q-78 18 -123.5 59t-45.5 117 q0 53 18.5 93t52.5 66.5t82.5 39.5t108.5 13q62 0 106 -15.5t73.5 -41.5t45 -59.5t20.5 -70.5l-57 -12q-11 71 -54.5 108.5t-138.5 37.5q-57 0 -94.5 -12t-60 -33t-31.5 -47.5t-9 -56.5q0 -24 5.5 -43.5t19 -36t37.5 -28t60 -19.5l100 -21q46 -9 77 -26.5t50 -41t27.5 -52.5 t8.5 -61zM585 915l-140 -130h-58l-86 130h61l60 -84l101 84h62z" />
<glyph unicode="&#x161;" horiz-adv-x="519" d="M445 141q-1 -40 -18.5 -70t-46.5 -49t-66 -28.5t-78 -9.5q-36 0 -73 7.5t-66 26t-47.5 49.5t-18.5 77h57q0 -32 12.5 -53.5t34 -34.5t49 -18t58.5 -5q75 0 108.5 32t33.5 75q0 41 -19 60.5t-68 30.5l-60 13q-74 18 -107.5 48t-33.5 85q0 40 17 70.5t45.5 50t65.5 29 t75 9.5q50 0 85 -11t57 -30t33.5 -45.5t15.5 -55.5l-54 -10q-5 26 -14.5 45t-26 32t-41 19t-59.5 6q-37 0 -64 -8t-43.5 -22.5t-24.5 -32.5t-8 -37q0 -17 4 -31t14.5 -24.5t29 -18.5t47.5 -14l66 -14q61 -13 95 -45t34 -98zM486 733l-142 -135h-58l-85 135h58l62 -91l104 91 h61z" />
<glyph unicode="&#x162;" horiz-adv-x="595" d="M234 0h-7l141 665h-251l12 56h562l-12 -56h-250l-140 -665h-8l-30 -53q44 -7 60.5 -26t16.5 -39q0 -50 -35 -68.5t-89 -18.5q-14 0 -30 2t-31 5l11 44q14 -3 25 -4.5t25 -1.5q32 0 50 8.5t18 30.5q0 15 -17 24.5t-57 9.5h-12z" />
<glyph unicode="&#x163;" horiz-adv-x="333" d="M161 -6q-37 8 -56.5 34t-19.5 68q0 11 1 22.5t4 24.5l70 329h-81l10 48h81l30 144h59l-31 -144h148l-10 -48h-148l-70 -329q-2 -11 -3.5 -20.5t-1.5 -18.5q0 -65 64 -65q26 0 41.5 4t29.5 10l10 -48q-16 -5 -36.5 -10t-46.5 -6l-23 -42q43 -7 60 -26t17 -39 q0 -50 -35.5 -68.5t-89.5 -18.5q-14 0 -30 2t-30 5l10 44q14 -3 25 -4.5t25 -1.5q33 0 50.5 8.5t17.5 30.5q0 15 -16.5 24.5t-57.5 9.5h-12z" />
<glyph unicode="&#x164;" horiz-adv-x="595" d="M429 665l-140 -665h-62l141 665h-251l12 56h562l-12 -56h-250zM584 915l-140 -130h-58l-86 130h61l60 -84l101 84h62z" />
<glyph unicode="&#x165;" horiz-adv-x="333" d="M288 5q-17 -6 -38 -11t-49 -5q-56 0 -86 26.5t-30 80.5q0 11 1 22.5t4 24.5l70 329h-81l10 48h81l30 144h59l-31 -144h148l-10 -48h-148l-70 -329q-2 -11 -3.5 -20.5t-1.5 -18.5q0 -65 64 -65q26 0 41.5 4t29.5 10zM300 577l58 154h60l-69 -154h-49z" />
<glyph unicode="&#x166;" horiz-adv-x="595" d="M429 665l-58 -277h162l-11 -55h-162l-71 -333h-62l71 333h-163l11 55h163l59 277h-251l12 56h562l-12 -56h-250z" />
<glyph unicode="&#x167;" horiz-adv-x="333" d="M172 252l-24 -109q-2 -11 -3.5 -20.5t-1.5 -18.5q0 -65 64 -65q26 0 41.5 4t29.5 10l10 -48q-17 -6 -38 -11t-49 -5q-56 0 -86 26.5t-30 80.5q0 11 1 22.5t4 24.5l23 109h-81l10 52h82l36 168h-81l10 48h81l30 144h59l-31 -144h148l-10 -48h-148l-35 -168h146l-10 -52 h-147z" />
<glyph unicode="&#x168;" horiz-adv-x="682" d="M319 -18q-52 0 -95 12t-73.5 38t-47 65.5t-16.5 94.5q0 21 3 45t8 50l92 434h61l-92 -439q-11 -47 -11 -88q0 -79 42 -118.5t131 -39.5q56 0 96 16t67.5 46.5t46 76.5t32.5 107l92 439h62l-93 -438q-17 -80 -43.5 -137t-63 -93.5t-86 -53.5t-112.5 -17zM544 789 q-25 0 -43.5 9t-34.5 20t-31.5 20t-31.5 9q-26 0 -38 -13.5t-18 -43.5h-50q8 52 32.5 79t72.5 27q25 0 44 -9t35 -20t30.5 -20t31.5 -9q27 0 39 13.5t17 43.5h51q-9 -53 -33 -79.5t-73 -26.5z" />
<glyph unicode="&#x169;" horiz-adv-x="552" d="M195 520l-70 -327q-2 -12 -3.5 -27.5t-1.5 -29.5q0 -20 4 -37.5t14.5 -31.5t29 -22.5t45.5 -8.5q29 0 61.5 12t63.5 38q32 26 55 54t33 75l65 305h58l-110 -520h-58l18 85q-49 -55 -98.5 -78t-96.5 -23q-37 0 -64.5 11t-45 30.5t-26 46.5t-8.5 58q0 13 1.5 28t4.5 29 l70 333h59zM426 610q-24 0 -42 9t-33.5 19.5t-30.5 20t-31 9.5q-26 0 -37.5 -13.5t-16.5 -42.5h-49q8 52 31.5 78.5t70.5 26.5q24 0 42.5 -9t34 -19.5t30 -19.5t30.5 -9q27 0 38.5 13t16.5 42h48q-8 -51 -31 -78t-71 -27z" />
<glyph unicode="&#x16a;" horiz-adv-x="682" d="M319 -18q-52 0 -95 12t-73.5 38t-47 65.5t-16.5 94.5q0 21 3 45t8 50l92 434h61l-92 -439q-11 -47 -11 -88q0 -79 42 -118.5t131 -39.5q56 0 96 16t67.5 46.5t46 76.5t32.5 107l92 439h62l-93 -438q-17 -80 -43.5 -137t-63 -93.5t-86 -53.5t-112.5 -17zM319 806l11 54 h285l-11 -54h-285z" />
<glyph unicode="&#x16b;" horiz-adv-x="552" d="M195 520l-70 -327q-2 -12 -3.5 -27.5t-1.5 -29.5q0 -20 4 -37.5t14.5 -31.5t29 -22.5t45.5 -8.5q29 0 61.5 12t63.5 38q32 26 55 54t33 75l65 305h58l-110 -520h-58l18 85q-49 -55 -98.5 -78t-96.5 -23q-37 0 -64.5 11t-45 30.5t-26 46.5t-8.5 58q0 13 1.5 28t4.5 29 l70 333h59zM239 685h246l-11 -52h-246z" />
<glyph unicode="&#x16c;" horiz-adv-x="682" d="M319 -18q-52 0 -95 12t-73.5 38t-47 65.5t-16.5 94.5q0 21 3 45t8 50l92 434h61l-92 -439q-11 -47 -11 -88q0 -79 42 -118.5t131 -39.5q56 0 96 16t67.5 46.5t46 76.5t32.5 107l92 439h62l-93 -438q-17 -80 -43.5 -137t-63 -93.5t-86 -53.5t-112.5 -17zM489 782 q-52 0 -81.5 25.5t-29.5 74.5q0 13 3 30h48q-3 -14 -3 -24q0 -33 17.5 -47.5t47.5 -14.5q35 0 61.5 19t34.5 67h48q-13 -70 -49.5 -100t-96.5 -30z" />
<glyph unicode="&#x16d;" horiz-adv-x="552" d="M195 520l-70 -327q-2 -12 -3.5 -27.5t-1.5 -29.5q0 -20 4 -37.5t14.5 -31.5t29 -22.5t45.5 -8.5q29 0 61.5 12t63.5 38q32 26 55 54t33 75l65 305h58l-110 -520h-58l18 85q-49 -55 -98.5 -78t-96.5 -23q-37 0 -64.5 11t-45 30.5t-26 46.5t-8.5 58q0 13 1.5 28t4.5 29 l70 333h59zM355 595q-52 0 -81.5 26.5t-29.5 75.5q0 13 3 30h48q-3 -14 -3 -24q0 -32 17.5 -48.5t47.5 -16.5q35 0 61.5 20.5t34.5 68.5h48q-13 -69 -49.5 -100.5t-96.5 -31.5z" />
<glyph unicode="&#x16e;" horiz-adv-x="682" d="M319 -18q-52 0 -95 12t-73.5 38t-47 65.5t-16.5 94.5q0 21 3 45t8 50l92 434h61l-92 -439q-11 -47 -11 -88q0 -79 42 -118.5t131 -39.5q56 0 96 16t67.5 46.5t46 76.5t32.5 107l92 439h62l-93 -438q-17 -80 -43.5 -137t-63 -93.5t-86 -53.5t-112.5 -17zM359 838 q0 49 28.5 73t67.5 24q19 0 36 -6t31 -18t22 -30t8 -43q0 -23 -8 -41t-22 -30.5t-31 -18.5t-36 -6q-39 0 -67.5 24.5t-28.5 71.5zM403 838q0 -28 14.5 -41t37.5 -13q24 0 37.5 13t13.5 41q0 30 -13.5 43.5t-37.5 13.5q-23 0 -37.5 -13.5t-14.5 -43.5z" />
<glyph unicode="&#x16f;" horiz-adv-x="552" d="M195 520l-70 -327q-2 -12 -3.5 -27.5t-1.5 -29.5q0 -20 4 -37.5t14.5 -31.5t29 -22.5t45.5 -8.5q29 0 61.5 12t63.5 38q32 26 55 54t33 75l65 305h58l-110 -520h-58l18 85q-49 -55 -98.5 -78t-96.5 -23q-37 0 -64.5 11t-45 30.5t-26 46.5t-8.5 58q0 13 1.5 28t4.5 29 l70 333h59zM255 690q0 47 28 71.5t67 24.5q18 0 35.5 -6t31 -18.5t21.5 -30.5t8 -41q0 -24 -8 -42t-21.5 -29.5t-31 -17.5t-35.5 -6q-39 0 -67 23.5t-28 71.5zM299 690q0 -28 14 -42t37 -14t36.5 14t13.5 42t-13.5 41.5t-36.5 13.5t-37 -13.5t-14 -41.5z" />
<glyph unicode="&#x170;" horiz-adv-x="682" d="M319 -18q-52 0 -95 12t-73.5 38t-47 65.5t-16.5 94.5q0 21 3 45t8 50l92 434h61l-92 -439q-11 -47 -11 -88q0 -79 42 -118.5t131 -39.5q56 0 96 16t67.5 46.5t46 76.5t32.5 107l92 439h62l-93 -438q-17 -80 -43.5 -137t-63 -93.5t-86 -53.5t-112.5 -17zM328 782l121 130 h77l-137 -130h-61zM492 782l121 130h77l-138 -130h-60z" />
<glyph unicode="&#x171;" horiz-adv-x="552" d="M195 520l-70 -327q-2 -12 -3.5 -27.5t-1.5 -29.5q0 -20 4 -37.5t14.5 -31.5t29 -22.5t45.5 -8.5q29 0 61.5 12t63.5 38q32 26 55 54t33 75l65 305h58l-110 -520h-58l18 85q-49 -55 -98.5 -78t-96.5 -23q-37 0 -64.5 11t-45 30.5t-26 46.5t-8.5 58q0 13 1.5 28t4.5 29 l70 333h59zM222 596l129 135h79l-145 -135h-63zM390 596l129 135h79l-146 -135h-62z" />
<glyph unicode="&#x172;" horiz-adv-x="682" d="M410 -177q-6 -1 -13 -1.5t-17 -0.5q-39 0 -61.5 19.5t-22.5 49.5q0 26 12 48.5t39 44.5q-7 0 -14 -0.5t-14 -0.5q-52 0 -95 12t-73.5 38t-47 65.5t-16.5 94.5q0 21 2.5 45t8.5 50l92 434h61l-92 -439q-11 -47 -11 -88q0 -79 42 -118.5t131 -39.5q56 0 96 16t67.5 46.5 t46 76.5t32.5 107l92 439h62l-93 -438q-26 -120 -72 -188.5t-120 -94.5q-76 -54 -76 -95q0 -16 10 -25.5t30 -9.5q5 0 12 0.5t13 1.5z" />
<glyph unicode="&#x173;" horiz-adv-x="552" d="M417 -172q-6 -1 -13 -1.5t-16 -0.5q-39 0 -60.5 19t-21.5 48t17.5 55t58.5 52h-1l18 85q-49 -55 -98.5 -78t-96.5 -23q-37 0 -64.5 11t-45 30.5t-26 46.5t-8.5 58q0 13 1.5 28t4.5 29l70 333h59l-70 -327q-2 -12 -3.5 -27.5t-1.5 -29.5q0 -20 4 -37.5t14.5 -31.5 t29 -22.5t45.5 -8.5q29 0 61.5 12t63.5 38q32 26 55 54t33 75l65 305h58l-110 -520q-38 -26 -56.5 -48.5t-18.5 -43.5q0 -34 39 -34q5 0 12 0.5t12 1.5z" />
<glyph unicode="&#x174;" horiz-adv-x="920" d="M553 641l-309 -641h-67l-52 721h65l35 -644l313 641h66l40 -640l306 643h69l-355 -721h-71zM443 782l141 130h57l86 -130h-60l-60 84l-101 -84h-63z" />
<glyph unicode="&#x175;" horiz-adv-x="718" d="M510 0h-68l-34 454l-227 -454h-68l-40 520h62l25 -454l228 451h69l33 -451l218 454h65zM276 596l143 135h57l85 -135h-57l-62 91l-104 -91h-62z" />
<glyph unicode="&#x176;" horiz-adv-x="593" d="M127 721h67l137 -356l289 356h71l-336 -409l-66 -312h-62l66 312zM270 782l141 130h57l86 -130h-60l-60 84l-101 -84h-63z" />
<glyph unicode="&#x177;" horiz-adv-x="502" d="M184 7l-114 513h63l95 -446l263 446h70l-362 -589q-19 -29 -35 -52.5t-32.5 -40.5t-35.5 -25.5t-46 -8.5q-23 0 -41.5 4t-32.5 11l19 48q9 -4 21 -7.5t27 -3.5q19 0 31 4.5t23 14.5t22 27t27 43zM168 596l143 135h57l85 -135h-57l-62 91l-104 -91h-62z" />
<glyph unicode="&#x178;" horiz-adv-x="593" d="M127 721h67l137 -356l289 356h71l-336 -409l-66 -312h-62l66 312zM297 803l19 88h67l-19 -88h-67zM462 803l19 88h69l-19 -88h-69z" />
<glyph unicode="&#x179;" horiz-adv-x="590" d="M515 0h-517l10 50l562 616h-429l12 55h508l-12 -51l-559 -613h449zM347 782l134 130h82l-152 -130h-64z" />
<glyph unicode="&#x17a;" horiz-adv-x="453" d="M-4 49l411 422h-320l10 49h393l-10 -49l-411 -422h346l-18 -49h-411zM243 596l134 135h83l-151 -135h-66z" />
<glyph unicode="&#x17b;" horiz-adv-x="590" d="M515 0h-517l10 50l562 616h-429l12 55h508l-12 -51l-559 -613h449zM374 802l20 90h68l-19 -90h-69z" />
<glyph unicode="&#x17c;" horiz-adv-x="453" d="M-4 49l411 422h-320l10 49h393l-10 -49l-411 -422h346l-18 -49h-411zM265 624l19 88h66l-18 -88h-67z" />
<glyph unicode="&#x17d;" horiz-adv-x="590" d="M515 0h-517l10 50l562 616h-429l12 55h508l-12 -51l-559 -613h449zM587 915l-140 -130h-58l-86 130h61l60 -84l101 84h62z" />
<glyph unicode="&#x17e;" horiz-adv-x="453" d="M-4 49l411 422h-320l10 49h393l-10 -49l-411 -422h346l-18 -49h-411zM468 733l-142 -135h-58l-85 135h58l62 -91l104 91h61z" />
<glyph unicode="&#x17f;" horiz-adv-x="204" d="M376 667q-13 5 -26.5 8t-35.5 3q-42 0 -65 -23.5t-33 -68.5l-124 -586h-59l125 584q17 79 58 112t99 33q23 0 42.5 -4t36.5 -11z" />
<glyph unicode="&#x180;" d="M225 593l-35 -171q83 94 191 94q57 0 98.5 -25t65 -74t23.5 -112q0 -81 -36 -155.5t-99 -120t-146 -45.5q-56 0 -100.5 24.5t-70.5 71.5l-16 -80h-59l126 593h-72l11 50h72l16 78h58l-16 -78h178l-11 -50h-178zM148 239q-9 -40 -9 -69q0 -32 11 -55.5t34 -44.5 q41 -36 106 -36q58 0 106.5 35t78.5 98t30 138q0 76 -34.5 118.5t-96.5 42.5q-32 0 -57.5 -8.5t-53.5 -27.5q-86 -57 -109 -167z" />
<glyph unicode="&#x181;" horiz-adv-x="734" d="M532 721q101 0 155 -42t54 -114t-38 -118.5t-117 -69.5q50 -19 80 -61t30 -94q0 -109 -76.5 -165.5t-225.5 -56.5h-248l142 668q-71 0 -101.5 -24t-30.5 -73q0 -26 8 -49l-49 -13q-12 27 -12 60q0 73 50 112.5t141 39.5h238zM470 405q102 0 155.5 40t53.5 117 q0 53 -38.5 79.5t-117.5 26.5h-175l-55 -263h177zM218 55h185q120 0 173.5 39t53.5 129q0 60 -42.5 93t-118.5 33h-188z" />
<glyph unicode="&#x182;" horiz-adv-x="627" d="M244 665l-49 -236h144q59 0 106 -9t80.5 -30t51 -56.5t17.5 -87.5q0 -118 -72 -182t-230 -64h-250l153 721h421l-12 -56h-360zM183 376l-68 -322h186q120 0 175 44t55 149q0 61 -41 95t-123 34h-184z" />
<glyph unicode="&#x183;" horiz-adv-x="588" d="M583 721l-10 -49h-342l-50 -240q83 94 191 94q57 0 98.5 -25.5t64.5 -75t23 -115.5q0 -83 -36 -158.5t-99.5 -121.5t-146.5 -46q-56 0 -100.5 24.5t-70.5 71.5l-16 -80h-59l153 721h400zM137 239q-9 -40 -9 -69q0 -32 10.5 -55.5t34.5 -44.5q41 -36 106 -36 q59 0 107.5 35.5t78.5 99t30 141.5q0 80 -34 123t-96 43q-32 0 -57.5 -8t-53.5 -28q-86 -57 -110 -167z" />
<glyph unicode="&#x184;" horiz-adv-x="633" d="M285 54q124 0 181.5 49t57.5 152q0 121 -172 121h-169l-69 -322h171zM194 429h169q70 0 120 -20.5t77.5 -61t27.5 -93.5q0 -126 -80.5 -190t-231.5 -64h-234l134 629l-38 60l119 37z" />
<glyph unicode="&#x185;" horiz-adv-x="588" d="M126 689l116 37l-59 -284q83 94 191 94q89 0 137 -59.5t48 -161.5q0 -85 -36 -161.5t-99.5 -123t-147.5 -46.5q-56 0 -100.5 24.5t-70.5 71.5l-16 -80h-59l134 629zM279 34q58 0 107 35.5t79.5 100.5t30.5 145q0 83 -33.5 127t-95.5 44q-32 0 -57.5 -8t-53.5 -28 q-86 -57 -110 -167l-9 -44q-9 -40 -9 -69q0 -32 10.5 -55.5t34.5 -44.5q41 -36 106 -36z" />
<glyph unicode="&#x186;" horiz-adv-x="716" d="M118 511q40 110 121.5 169t194.5 59q79 0 141 -35.5t97 -103t35 -159.5q0 -127 -46.5 -233t-133 -166t-206.5 -60q-72 0 -129 28.5t-90.5 82t-37.5 128.5h60q9 -86 62.5 -135.5t138.5 -49.5q95 0 166 49t110.5 142.5t39.5 211.5q0 111 -56 178.5t-150 67.5 q-92 0 -158.5 -48.5t-99.5 -142.5z" />
<glyph unicode="&#x187;" horiz-adv-x="755" d="M463 739q74 0 127 -29.5t78 -84.5l1 6q11 65 43.5 100.5t80.5 35.5q44 0 84 -28l-22 -41q-25 18 -56 18q-25 0 -41.5 -11.5t-27 -36.5t-18.5 -71l-13 -74l-49 -10q-16 92 -62 132.5t-130 40.5q-88 0 -158.5 -49.5t-112 -142t-41.5 -210.5q0 -72 26.5 -128.5t75.5 -88 t117 -31.5q96 0 158 48t83 137h68q-29 -113 -109.5 -176t-203.5 -63q-81 0 -144.5 36t-100 103t-36.5 157q0 127 47.5 232.5t133.5 167t202 61.5z" />
<glyph unicode="&#x188;" horiz-adv-x="602" d="M503 461q9 51 37.5 80t70.5 29t82 -28l-21 -40q-26 18 -55 18q-33 0 -50 -22.5t-28 -88.5l-8 -46l-48 -11q-10 71 -44 102.5t-95 31.5q-63 0 -113.5 -34t-79.5 -97.5t-29 -147.5q0 -83 39 -128t113 -45q131 0 173 130h60q-27 -88 -87.5 -134t-151.5 -46q-63 0 -110 26 t-73 75.5t-26 115.5q0 96 35 171t102 119.5t149 44.5q117 0 157 -82z" />
<glyph unicode="&#x189;" horiz-adv-x="719" d="M53 0l72 345h-83l13 55h82l68 321h228q63 0 114 -21t87.5 -59t56 -90.5t19.5 -116.5q0 -91 -25.5 -170t-79.5 -137.5t-135.5 -92.5t-192.5 -34h-224zM286 55q89 0 156 26.5t112.5 76.5t68 120t22.5 158q0 48 -14 90t-41 73.5t-68 50t-95 18.5h-171l-58 -268h202l-12 -55 h-201l-62 -290h161z" />
<glyph unicode="&#x18a;" horiz-adv-x="813" d="M527 721q80 0 142.5 -35t98.5 -100.5t36 -151.5q0 -131 -51 -229.5t-147.5 -151.5t-234.5 -53h-225l142 668q-71 0 -101.5 -24t-30.5 -73q0 -26 8 -49l-49 -13q-12 27 -12 60q0 73 50 112.5t141 39.5h233zM380 55q171 0 265 100.5t94 280.5q0 67 -26 119.5t-75 82.5 t-117 30h-172l-130 -613h161z" />
<glyph unicode="&#x18b;" horiz-adv-x="625" d="M350 376q-124 0 -181.5 -49t-57.5 -152q0 -121 172 -121h169l69 322h-171zM502 0h-229q-71 0 -121 20.5t-77.5 61t-27.5 94.5q0 125 80.5 189t232.5 64h172l51 237h-363l11 55h423z" />
<glyph unicode="&#x18c;" horiz-adv-x="588" d="M120 200q0 -78 37 -122t102 -44q33 0 57.5 7.5t49.5 25.5q82 58 106 170l7 34q9 41 9 70q0 61 -45 99q-41 36 -106 36q-59 0 -108 -34.5t-79 -98.5t-30 -143zM478 0h-59l16 78q-38 -49 -83 -71.5t-103 -22.5q-57 0 -100 26t-67 76t-24 112q0 84 35 160t99 122t148 46 q56 0 100.5 -25t70.5 -72l52 243h-342l10 49h400z" />
<glyph unicode="&#x18d;" horiz-adv-x="576" d="M101 -70q6 -32 20.5 -51.5t40 -29t61.5 -9.5q128 0 128 76q0 20 -12 37t-32 32t-46 30t-53 34q-71 49 -102 103t-31 123q0 71 32.5 130.5t93 95t135.5 35.5q59 0 107.5 -25t77 -72t28.5 -108q0 -69 -28 -129t-82.5 -102.5t-124.5 -60.5q55 -36 73.5 -62.5t18.5 -57.5 q0 -60 -49 -93t-137 -33q-159 0 -171 137h52zM333 486q-89 0 -142.5 -58.5t-53.5 -159.5q0 -42 12.5 -72t32 -52.5t43.5 -40t50 -32.5q96 19 154 88.5t58 168.5q0 71 -42.5 114.5t-111.5 43.5z" />
<glyph unicode="&#x18e;" horiz-adv-x="593" d="M25 57h395l62 286h-372l12 58h372l56 265h-391l11 55h453l-152 -721h-471z" />
<glyph unicode="&#x18f;" horiz-adv-x="747" d="M361 35q55 0 101 21t82 59t60.5 92t38.5 120h-484q-2 -15 -3 -33.5t-1 -35.5q0 -100 51.5 -161.5t154.5 -61.5zM148 550q35 85 106 137t179 52q73 0 127 -24.5t89 -66.5t52 -97.5t17 -117.5q0 -106 -28.5 -189t-78 -142t-116.5 -89.5t-141 -30.5q-64 0 -112.5 20 t-82 56.5t-50 86.5t-16.5 109q0 20 2 49.5t6 55.5l3 22h548q1 14 1 27v27q0 51 -12.5 96.5t-39 79t-69 54t-102.5 20.5q-45 0 -80 -9.5t-61 -28t-46.5 -45.5t-36.5 -63z" />
<glyph unicode="&#x190;" horiz-adv-x="607" d="M303 35q79 0 131 37.5t66 104.5h62q-16 -91 -88 -143t-177 -52q-118 0 -179.5 51t-61.5 144q0 74 42 128.5t121 78.5q-77 39 -77 136q0 101 71.5 160t190.5 59q60 0 108.5 -22t80.5 -64t39 -94l-58 -13q-29 139 -172 139q-96 0 -147.5 -41.5t-51.5 -121.5 q0 -57 30.5 -87.5t88.5 -30.5h123l-12 -56h-128q-53 0 -95.5 -20.5t-67.5 -59t-25 -90.5q0 -73 46 -108t140 -35z" />
<glyph unicode="&#x191;" horiz-adv-x="558" d="M100 -19q-19 -93 -55.5 -131t-99.5 -38q-47 0 -83 19l21 50q17 -8 30.5 -11t31.5 -3q37 0 57.5 21t30.5 70l162 763h433l-11 -55h-372l-58 -274h348l-12 -58h-348z" />
<glyph unicode="&#x192;" d="M188 -46q-26 -76 -63.5 -103.5t-93.5 -27.5q-29 0 -46 4t-38 13l19 48q17 -8 29.5 -11t36.5 -3q41 0 61 18.5t36 65.5l176 498h-80l13 51h85l28 80q14 37 30.5 62.5t36.5 40.5t44.5 21t53.5 6t46.5 -4t37.5 -13l-18 -48q-17 9 -30 12t-37 3q-42 0 -65.5 -19t-39.5 -65 l-26 -76h136l-14 -51h-140z" />
<glyph unicode="&#x193;" horiz-adv-x="757" d="M655 529q-34 157 -195 157q-91 0 -161.5 -49.5t-112 -143t-41.5 -209.5q0 -71 26.5 -127t75 -88.5t114.5 -32.5q132 0 217 64l43 201h-207l12 56h266l-61 -285q-47 -42 -119.5 -66t-153.5 -24q-79 0 -142 36.5t-100 103.5t-37 156q0 126 47.5 232t134 167.5t205.5 61.5 q72 0 125.5 -28.5t79.5 -82.5l1 6q10 62 42.5 97.5t80.5 35.5q44 0 84 -28l-22 -41q-25 18 -56 18q-25 0 -41.5 -11.5t-27 -36.5t-18.5 -71l-10 -58z" />
<glyph unicode="&#x194;" horiz-adv-x="656" d="M308 83l-54 -74q-30 -38 -39.5 -61t-9.5 -45q0 -55 54 -55q39 0 59.5 23.5t20.5 66.5q0 26 -4 47t-13 51zM194 721l133 -551l360 551h67l-396 -602l15 -50q24 -84 24 -134q0 -66 -37 -104t-103 -38q-52 0 -82 28.5t-30 75.5q0 20 6 39.5t17.5 40t36.5 53.5l75 96 l-154 595h68z" />
<glyph unicode="&#x195;" horiz-adv-x="888" d="M488 219q-11 -48 -11 -83q0 -52 27 -77t83 -25q74 0 113 40.5t62 144.5l63 301h59l-64 -301q-26 -124 -80 -179.5t-149 -55.5q-87 0 -129.5 36t-42.5 110q0 41 10 89l22 103q8 34 8 57q0 51 -23.5 78t-68.5 27q-27 0 -60.5 -13t-63.5 -37q-43 -34 -62 -63t-27 -66 l-65 -305h-59l153 721h58l-60 -286q44 49 95.5 75t99.5 26q66 0 104 -39t38 -109q0 -25 -6 -55z" />
<glyph unicode="&#x196;" horiz-adv-x="327" d="M196 721h62l-125 -587q-1 -7 -2 -13.5t-1 -13.5q0 -37 17 -54t54 -17q24 0 40.5 4.5t27.5 9.5l10 -50q-43 -18 -93 -18q-116 0 -116 114q0 21 5 51z" />
<glyph unicode="&#x197;" horiz-adv-x="313" d="M159 346h-117l13 55h116l67 320h62l-68 -320h116l-12 -55h-116l-73 -346h-61z" />
<glyph unicode="&#x198;" horiz-adv-x="646" d="M492 630q54 50 81 68.5t48 25.5t44 7q27 0 46.5 -8t38.5 -26l-32 -44q-16 15 -28 20t-30 5q-25 0 -46.5 -12.5t-85.5 -68.5l-151 -135l205 -462h-71l-183 418l-166 -147l-58 -271h-62l153 721h62l-78 -369z" />
<glyph unicode="&#x199;" horiz-adv-x="500" d="M153 282l314 238h75l-221 -175l133 -345h-65l-117 313l-136 -101l-44 -212h-59l125 588q16 78 46.5 109.5t88.5 31.5q38 0 68 -13l-18 -46q-22 9 -49 9q-25 0 -39 -8.5t-22.5 -28t-16.5 -56.5z" />
<glyph unicode="&#x19a;" horiz-adv-x="255" d="M144 409l66 312h59l-66 -312h89l-11 -50h-89l-76 -359h-58l75 359h-88l12 50h87z" />
<glyph unicode="&#x19b;" horiz-adv-x="502" d="M346 626l3 -12l118 -614h-65l-77 458l-285 -458h-66l335 529l-11 64l-81 -56l-23 39l92 62q-9 23 -23.5 32.5t-36.5 9.5q-27 0 -58 -10l-8 47q42 14 78 14t58.5 -14.5t35.5 -45.5l73 49l23 -38z" />
<glyph unicode="&#x19c;" horiz-adv-x="941" d="M610 721l-102 -484q-16 -74 -16 -100q0 -48 22.5 -74t66.5 -26q35 0 64.5 12t68.5 44q42 33 63 67.5t31 81.5l101 479h62l-153 -721h-62l21 95q-93 -112 -204 -112q-55 0 -91 29.5t-46 83.5q-94 -113 -221 -113q-69 0 -107 38.5t-38 104.5q0 40 12 94l106 501h61 l-104 -491q-14 -72 -14 -99q0 -44 24 -69t68 -25q77 0 141 52q35 28 51.5 56.5t26.5 73.5l106 502h62z" />
<glyph unicode="&#x19d;" horiz-adv-x="696" d="M96 -28q-13 -62 -32.5 -95.5t-48.5 -49t-70 -15.5q-47 0 -83 19l21 50q17 -8 30.5 -11t31.5 -3q37 0 57.5 21t30.5 70l162 763h65l273 -626l134 626h59l-152 -721h-64l-275 628z" />
<glyph unicode="&#x19e;" horiz-adv-x="565" d="M354 -196l112 518q3 14 5 28.5t2 28.5q0 47 -22 76t-76 29q-30 0 -64.5 -12t-67.5 -38q-32 -26 -55.5 -54t-33.5 -75l-65 -305h-59l110 520h59l-18 -85q50 55 102.5 78t100.5 23q73 0 110.5 -39t37.5 -109q0 -26 -6 -55l-114 -529h-58z" />
<glyph unicode="&#x19f;" horiz-adv-x="763" d="M471 739q59 0 111 -20t90.5 -58.5t60 -93.5t21.5 -126q0 -83 -25.5 -165t-75.5 -147.5t-122 -106t-166 -40.5q-60 0 -112 20t-90.5 58t-60 93t-21.5 126q0 83 26.5 165.5t76.5 148t122.5 106t164.5 40.5zM367 36q63 0 115 25t91.5 66.5t66.5 97t39 115.5h-530 q-3 -29 -3 -58q0 -54 14.5 -99.5t42.5 -77.5t69 -50.5t95 -18.5zM469 685q-62 0 -113 -23.5t-90.5 -62.5t-66 -92t-39.5 -111h527q1 11 1.5 21.5t0.5 21.5q0 54 -14 99t-42.5 77.5t-69.5 51t-94 18.5z" />
<glyph unicode="&#x1a0;" horiz-adv-x="763" d="M471 739q62 0 116.5 -22.5t93.5 -65.5q37 27 56 67t19 91h62q0 -60 -27.5 -110t-80.5 -87q44 -73 44 -171q0 -86 -27 -169t-78 -148.5t-123.5 -103.5t-160.5 -38q-82 0 -146 36t-101 103t-37 158q0 117 49.5 223.5t137.5 171.5t203 65zM367 36q89 0 161 51t116.5 145.5 t44.5 206.5q0 113 -59 179.5t-161 66.5q-89 0 -161.5 -51t-117 -146t-44.5 -206q0 -113 59.5 -179.5t161.5 -66.5z" />
<glyph unicode="&#x1a1;" horiz-adv-x="598" d="M267 -16q-91 0 -149 60t-58 156q0 95 36.5 170.5t106 120.5t157.5 45q86 0 145 -56q36 25 54.5 64.5t18.5 89.5h58q0 -57 -25.5 -106t-76.5 -86q33 -54 33 -122q0 -97 -37 -172.5t-105.5 -119.5t-157.5 -44zM272 34q65 0 117.5 35t83.5 99.5t31 146.5q0 80 -40 125.5 t-109 45.5q-66 0 -118.5 -35t-83.5 -99.5t-31 -146.5q0 -80 40 -125.5t110 -45.5z" />
<glyph unicode="&#x1a2;" horiz-adv-x="981" d="M345 -18q-74 0 -134.5 36.5t-95 103.5t-34.5 158q0 118 47 224t130.5 170.5t192.5 64.5q57 0 106.5 -21.5t85.5 -62.5q80 84 178 84q80 0 118.5 -35t38.5 -108q0 -31 -10 -80l-110 -516h-61l109 516q10 51 10 77q0 47 -24.5 70t-75.5 23q-37 0 -75 -18.5t-69 -51.5 q44 -73 44 -175q0 -118 -47 -224t-131 -170.5t-193 -64.5zM449 685q-60 0 -113.5 -28.5t-95.5 -82.5t-68 -130.5t-26 -161.5q0 -112 54.5 -179t146.5 -67q61 0 114.5 28.5t95.5 82.5t67.5 131t25.5 161q0 112 -54 179t-147 67z" />
<glyph unicode="&#x1a3;" horiz-adv-x="748" d="M247 -16q-52 0 -95 26.5t-67.5 75.5t-24.5 115q0 96 34 171.5t99 119.5t146 44q40 0 74.5 -15.5t60.5 -44.5q63 60 132 60q59 0 89 -28.5t30 -83.5q0 -25 -6 -52l-79 -372h-58l80 377q5 23 5 42q0 67 -67 67q-53 0 -101 -46q28 -51 28 -121q0 -96 -34 -171.5t-99 -119.5 t-147 -44zM252 34q60 0 108 35t76.5 99t28.5 146q0 81 -34.5 126.5t-96.5 45.5q-59 0 -107 -35t-76.5 -99t-28.5 -146q0 -81 34.5 -126.5t95.5 -45.5z" />
<glyph unicode="&#x1a4;" horiz-adv-x="729" d="M288 668q-71 0 -101.5 -24t-30.5 -73q0 -26 8 -49l-49 -13q-12 27 -12 60q0 73 50 112.5t141 39.5h234q71 0 121 -20.5t77 -61t27 -94.5q0 -125 -80 -189t-232 -64h-172l-62 -292h-61zM450 345q125 0 182.5 49t57.5 152q0 122 -172 122h-170l-68 -323h170z" />
<glyph unicode="&#x1a5;" horiz-adv-x="588" d="M279 34q58 0 107 35.5t79.5 100.5t30.5 145q0 83 -33.5 127t-95.5 44q-32 0 -57.5 -8t-53.5 -28q-86 -57 -110 -167l-9 -44q-9 -39 -9 -68q0 -33 10.5 -56.5t34.5 -44.5q41 -36 106 -36zM183 442q83 94 191 94q89 0 137 -59t48 -159q0 -86 -35.5 -163.5t-99 -124 t-148.5 -46.5q-56 0 -100.5 24.5t-70.5 71.5l-59 -276h-58l167 784q16 78 46.5 109.5t88.5 31.5q38 0 68 -13l-18 -46q-22 9 -49 9q-25 0 -39 -8.5t-22.5 -28t-16.5 -56.5z" />
<glyph unicode="&#x1a6;" horiz-adv-x="631" d="M355 370q116 0 170 41.5t54 132.5q0 124 -176 124h-159l-63 -298h174zM417 721q109 0 166.5 -47t57.5 -130q0 -168 -173 -214l105 -424h-66l-100 412q-23 -3 -81 -3h-156l-67 -315h-61l169 798h61l-16 -77h161z" />
<glyph unicode="&#x1a7;" horiz-adv-x="648" d="M595 189q-20 -102 -94.5 -154.5t-197.5 -52.5q-116 0 -179.5 49.5t-63.5 137.5q0 95 58.5 148.5t187.5 75.5l105 18q96 16 134 49t38 93q0 62 -45.5 97.5t-129.5 35.5q-90 0 -139.5 -32.5t-74.5 -108.5l-58 14q35 95 99 137.5t174 42.5q74 0 126.5 -22t81 -65t28.5 -99 q0 -61 -24 -100t-76 -62.5t-156 -42.5l-93 -16q-66 -11 -101.5 -31t-52 -52.5t-16.5 -79.5q0 -66 45.5 -99.5t134.5 -33.5q98 0 153 37t75 116h61z" />
<glyph unicode="&#x1a8;" horiz-adv-x="515" d="M463 144q-24 -83 -83.5 -121.5t-167.5 -38.5q-80 0 -130.5 40t-50.5 100q0 47 20 79t60.5 52t108.5 31l83 13q40 6 62.5 14t36 19.5t20 27.5t6.5 36q0 38 -33.5 64t-92.5 26q-68 0 -104 -22.5t-55 -75.5l-52 11q42 137 215 137q52 0 92 -17t64 -50t24 -73 q0 -46 -19.5 -75.5t-59 -47t-124.5 -31.5l-66 -10q-49 -8 -74.5 -21t-37 -34t-11.5 -52q0 -42 32.5 -67t88.5 -25q61 0 97 11.5t57.5 35t35.5 64.5h58z" />
<glyph unicode="&#x1a9;" horiz-adv-x="573" d="M82 57h452l-24 -57h-517l10 50l318 318l-180 303l11 50h491l-11 -56h-422l180 -306z" />
<glyph unicode="&#x1aa;" horiz-adv-x="263" d="M207 542q-13 -11 -31 -18t-38 -7q-42 0 -65 24.5t-23 68.5q0 55 36 92t92 37q104 0 104 -99q0 -18 -5 -43l-169 -792h-59zM150 563q24 0 48 16q21 14 27 40q1 5 1.5 9.5t0.5 8.5q0 27 -14 42t-38 15q-34 0 -53 -22.5t-19 -57.5q0 -25 12 -38t35 -13z" />
<glyph unicode="&#x1ab;" horiz-adv-x="333" d="M270 -10q-14 -65 -34 -98.5t-49 -49.5t-69 -16q-48 0 -81 17l20 46q26 -12 60 -12q37 0 59 22t33 70l5 22q-9 -1 -18 -1q-54 0 -82.5 27t-28.5 79q0 26 5 47l70 329h-81l10 48h81l30 144h59l-31 -144h148l-10 -48h-148l-70 -329q-5 -25 -5 -39q0 -31 15.5 -48t44.5 -17 q42 0 80 10z" />
<glyph unicode="&#x1ac;" horiz-adv-x="622" d="M289 665q-74 0 -103.5 -23t-29.5 -71q0 -26 8 -49l-49 -13q-12 27 -12 60q0 73 50 112.5t141 39.5h423l-12 -56h-249l-141 -665h-61l140 665h-105z" />
<glyph unicode="&#x1ad;" horiz-adv-x="333" d="M376 520l-10 -48h-148l-70 -329q-5 -25 -5 -39q0 -65 64 -65q18 0 33 2.5t38 11.5l10 -48q-45 -16 -87 -16q-57 0 -86.5 27t-29.5 80q0 26 5 47l70 329h-81l10 48h81l14 64q30 145 157 145q42 0 79 -15l-18 -47q-27 11 -62 11q-40 0 -64 -22.5t-34 -69.5l-14 -66h148z " />
<glyph unicode="&#x1ae;" horiz-adv-x="595" d="M283 -27q-7 -34 -7 -53q0 -53 58 -53q16 0 30 2t36 10l9 -51q-44 -16 -89 -16q-49 0 -77 28t-28 78q0 19 6 54l147 693h-251l12 56h562l-12 -56h-250z" />
<glyph unicode="&#x1af;" horiz-adv-x="715" d="M319 -18q-113 0 -172.5 54t-59.5 156q0 39 11 95l92 434h61l-92 -439q-11 -47 -11 -88q0 -79 42.5 -118.5t130.5 -39.5q101 0 157 55.5t85 190.5l92 439h60q41 0 59.5 20t18.5 68h61q0 -70 -35.5 -103t-111.5 -33l-83 -390q-33 -158 -105.5 -229.5t-199.5 -71.5z" />
<glyph unicode="&#x1b0;" horiz-adv-x="599" d="M439 0h-58l18 85q-91 -101 -195 -101q-69 0 -106.5 39t-37.5 107q0 30 6 57l70 333h59l-70 -327q-5 -27 -5 -57q0 -100 93 -100q66 0 125 50q44 35 62 64t26 65l65 305h53q29 0 45.5 11t23.5 34t7 69h58q0 -59 -15 -92t-45.5 -49t-77.5 -17z" />
<glyph unicode="&#x1b1;" horiz-adv-x="754" d="M400 667q-117 -65 -178 -170.5t-61 -242.5q0 -105 50 -161.5t143 -56.5q91 0 161 48t110.5 138.5t40.5 202.5q0 75 -31 138.5t-86 103.5l12 54h249l-11 -55h-172q29 -27 52.5 -65.5t36.5 -83.5t13 -93q0 -123 -46.5 -224.5t-131.5 -159.5t-203 -58q-116 0 -184.5 72 t-68.5 197q0 264 222 415h-170l12 55h252z" />
<glyph unicode="&#x1b2;" horiz-adv-x="661" d="M304 -18q-105 0 -161 54t-56 156q0 39 11 95l92 434h61l-92 -439q-11 -47 -11 -88q0 -158 158 -158q204 0 275 327l7 32q16 75 16 124q0 78 -33 118.5t-96 40.5q-34 0 -60 -9l-3 48q15 5 36 8.5t35 3.5q89 0 135 -54t46 -159q0 -55 -15 -120l-8 -36q-41 -188 -126 -283 t-211 -95z" />
<glyph unicode="&#x1b3;" horiz-adv-x="644" d="M524 630q42 56 76.5 78.5t80.5 22.5q27 0 46.5 -8t39.5 -26l-33 -44q-16 15 -28 20t-30 5q-24 0 -39.5 -7t-31 -23.5t-40.5 -51.5l-210 -284l-66 -312h-62l66 312l-166 409h67l137 -355z" />
<glyph unicode="&#x1b4;" horiz-adv-x="571" d="M616 466q-11 9 -22 13t-27 4q-19 0 -31 -5.5t-23.5 -19.5t-27.5 -42l-284 -485q-34 -58 -56 -82.5t-44.5 -34.5t-50.5 -10q-42 0 -74 15l19 48q26 -11 48 -11t35.5 6t26 21t41.5 62l38 62l-114 513h63l94 -446l207 365q31 53 63 75t75 22q44 0 74 -28z" />
<glyph unicode="&#x1b5;" horiz-adv-x="590" d="M515 0h-517l10 50l258 283h-172l11 55h211l254 278h-429l12 55h508l-12 -51l-257 -282h182l-11 -55h-221l-252 -276h449z" />
<glyph unicode="&#x1b6;" horiz-adv-x="453" d="M236 296l171 175h-320l10 49h393l-10 -49l-171 -175h120l-11 -52h-159l-190 -195h346l-18 -49h-411l10 49l190 195h-122l11 52h161z" />
<glyph unicode="&#x1b7;" horiz-adv-x="575" d="M305 413q49 0 90 -10t71.5 -32.5t47.5 -56t17 -82.5q0 -63 -19.5 -110.5t-55.5 -78.5t-86 -46.5t-110 -15.5q-114 0 -175.5 49.5t-63.5 146.5h57q3 -42 17 -69t38 -43t57 -22.5t75 -6.5q41 0 78.5 10t65 31.5t44.5 58.5t17 91q0 70 -42 103t-115 33h-94l10 47l283 257 h-369l12 54h448l-10 -50z" />
<glyph unicode="&#x1b8;" horiz-adv-x="575" d="M48 184q0 110 78.5 169.5t220.5 59.5h19l-188 258l10 50h446l-11 -54h-377l183 -255l-10 -49h-96q-100 0 -156.5 -46t-56.5 -132q0 -78 45 -114t142 -36q79 0 131 37.5t66 104.5h62q-16 -91 -88 -143t-177 -52q-119 0 -181 51.5t-62 150.5z" />
<glyph unicode="&#x1b9;" horiz-adv-x="480" d="M522 520l-10 -49h-329l173 -258l-11 -43h-60q-120 0 -175.5 -47.5t-55.5 -145.5q0 -60 39.5 -97.5t106.5 -37.5q76 0 121.5 30.5t69.5 100.5h57q-54 -180 -254 -180q-58 0 -103 22t-71 64t-26 95q0 117 74 181t206 64h17l-171 251l11 50h391z" />
<glyph unicode="&#x1ba;" horiz-adv-x="456" d="M-52 -148q0 35 17 57.5t53 37.5t104 27l51 9q33 6 64 13t55 20.5t38 37t14 60.5q0 48 -38.5 67.5t-134.5 19.5h-68l8 44l263 226h-307l10 49h379l-12 -50l-259 -222q113 -2 166.5 -33.5t53.5 -97.5q0 -53 -20.5 -89t-64.5 -58t-131 -37l-57 -10q-64 -11 -88 -20 t-33.5 -21.5t-9.5 -29.5q0 -15 12 -36l-42 -22q-10 10 -16.5 25.5t-6.5 32.5z" />
<glyph unicode="&#x1bb;" horiz-adv-x="590" d="M448 304q-53 -48 -140 -109q-87 -62 -191 -138h384l-23 -57h-455l11 55q105 83 221 165q76 55 113 84h-234l11 54h278q96 90 96 193q0 64 -35 99t-101 35q-76 0 -122.5 -32t-76.5 -108l-54 12q29 89 94 135.5t164 46.5q88 0 141 -49.5t53 -128.5q0 -103 -85 -203h66 l-12 -54h-103z" />
<glyph unicode="&#x1bc;" horiz-adv-x="585" d="M190 401q43 30 81.5 42.5t91.5 12.5q52 0 92.5 -23.5t63.5 -67.5t23 -99q0 -79 -32 -144t-91 -102.5t-139 -37.5q-106 0 -162 46t-59 137h56q4 -68 43 -99t124 -31q92 0 145.5 62t53.5 165q0 65 -34.5 103t-95.5 38q-54 0 -96.5 -15t-80.5 -48h-54l90 326h-76l11 55h452 l-11 -55h-321z" />
<glyph unicode="&#x1bd;" horiz-adv-x="516" d="M104 131q3 -52 37 -75t107 -23q71 0 111.5 41t40.5 113q0 47 -30 75t-82 28q-87 0 -147 -44h-50l70 225h-63l10 49h389l-10 -49h-275l-54 -171q33 20 65.5 29t72.5 9q75 0 120 -41t45 -109q0 -59 -27 -105t-76.5 -72.5t-114.5 -26.5q-94 0 -144 37.5t-51 109.5h56z" />
<glyph unicode="&#x1be;" horiz-adv-x="509" d="M160 472h-81l10 48h81l30 144h59l-31 -144h148l-10 -48h-148l-14 -66q-5 -23 -5 -36q0 -31 19 -48t65 -26l43 -9q68 -14 99 -49.5t31 -96.5q0 -71 -59.5 -114t-150.5 -43q-96 0 -150.5 41.5t-54.5 118.5h57q1 -111 154 -111q67 0 104.5 29t37.5 78q0 44 -18.5 64 t-68.5 30l-38 8q-70 16 -99.5 43.5t-29.5 77.5q0 24 5 45z" />
<glyph unicode="&#x1bf;" horiz-adv-x="568" d="M-12 -196l152 716h59l-16 -78q83 94 191 94q82 0 127 -46t45 -125q0 -49 -15 -94.5t-47.5 -87t-83 -80t-122 -75.5t-203.5 -88l-29 -136h-58zM484 365q0 121 -117 121q-32 0 -57.5 -8t-53.5 -28q-86 -57 -110 -167l-60 -287q56 22 113 47t108 55.5t90.5 69t63 87 t23.5 110.5z" />
<glyph unicode="&#x1c0;" horiz-adv-x="204" d="M4 -125l185 866h60l-184 -866h-61z" />
<glyph unicode="&#x1c1;" horiz-adv-x="384" d="M4 -125l185 866h60l-184 -866h-61zM185 -125l185 866h60l-184 -866h-61z" />
<glyph unicode="&#x1c2;" horiz-adv-x="464" d="M134 -125l71 334h-182l12 56h182l24 114h-181l12 55h182l65 307h61l-66 -307h182l-12 -55h-182l-24 -114h182l-13 -56h-181l-71 -334h-61z" />
<glyph unicode="&#x1c3;" horiz-adv-x="208" d="M247 721l-115 -526h-53l107 526h61zM31 0l19 93h73l-19 -93h-73z" />
<glyph unicode="&#x1c4;" horiz-adv-x="1281" d="M42 0l153 721h228q63 0 114 -21t87.5 -59t56 -90.5t19.5 -116.5q0 -91 -26 -170t-79.5 -137.5t-135 -92.5t-192.5 -34h-225zM276 55q89 0 156 26.5t112.5 76.5t68 120t22.5 158q0 48 -14 90t-41.5 73.5t-68 50t-94.5 18.5h-172l-130 -613h161zM1206 0h-517l10 50l562 616 h-429l12 55h508l-12 -51l-559 -613h449zM1277 915l-140 -130h-58l-86 130h61l60 -84l101 84h62z" />
<glyph unicode="&#x1c5;" horiz-adv-x="1162" d="M42 0l153 721h228q63 0 114 -21t87.5 -59t56 -90.5t19.5 -116.5q0 -91 -26 -170t-79.5 -137.5t-135 -92.5t-192.5 -34h-225zM276 55q89 0 156 26.5t112.5 76.5t68 120t22.5 158q0 48 -14 90t-41.5 73.5t-68 50t-94.5 18.5h-172l-130 -613h161zM705 49l411 422h-320l10 49 h393l-10 -49l-411 -422h346l-18 -49h-411zM1177 733l-142 -135h-58l-85 135h58l62 -91l104 91h61z" />
<glyph unicode="&#x1c6;" horiz-adv-x="1040" d="M433 78q-38 -49 -83 -71.5t-103 -22.5q-51 0 -87.5 19.5t-59 50.5t-32.5 70.5t-10 78.5q0 60 18.5 119.5t54.5 107t88.5 77t120.5 29.5q53 0 98.5 -24t72.5 -73l60 282h58l-153 -721h-59zM479 281q9 40 9 70q0 33 -11 56.5t-34 42.5q-20 18 -45.5 27t-60.5 9 q-48 0 -88 -22.5t-68.5 -60.5t-44.5 -89t-16 -109q0 -83 36.5 -127t100.5 -44q32 0 56 7t51 26q38 27 65.5 68t40.5 102zM583 49l411 422h-320l10 49h393l-10 -49l-411 -422h346l-18 -49h-411zM1055 733l-142 -135h-58l-85 135h58l62 -91l104 91h61z" />
<glyph unicode="&#x1c7;" horiz-adv-x="1137" d="M1067 226q-26 -126 -91.5 -185t-179.5 -59q-47 0 -86 11.5t-66.5 36t-43.5 60t-16 84.5v12t1 13h59v-13q0 -31 6.5 -58.5t24 -47.5t47.5 -32t76 -12q96 0 143 52.5t67 149.5l102 483h62zM483 0h-441l153 721h62l-141 -663h392z" />
<glyph unicode="&#x1c8;" horiz-adv-x="761" d="M644 -18q-8 -36 -18 -66.5t-27.5 -53.5t-43.5 -36.5t-66 -13.5q-34 0 -54.5 6t-35.5 12l21 49q12 -5 28 -9.5t41 -4.5q42 0 62 24.5t29 67.5l119 563h59zM715 633l18 88h66l-18 -88h-66zM483 0h-441l153 721h62l-141 -663h392z" />
<glyph unicode="&#x1c9;" horiz-adv-x="412" d="M294 -18q-8 -36 -18 -66.5t-27.5 -53.5t-43.5 -36.5t-66 -13.5q-34 0 -54.5 6t-35.5 12l21 49q12 -5 28 -9.5t41 -4.5q42 0 62 24.5t29 67.5l119 563h59zM365 633l18 88h66l-18 -88h-66zM33 0l153 721h58l-152 -721h-59z" />
<glyph unicode="&#x1ca;" horiz-adv-x="1278" d="M1208 226q-26 -126 -91.5 -185t-179.5 -59q-47 0 -86 11.5t-66.5 36t-43.5 60t-16 84.5v12t1 13h59v-13q0 -31 6.5 -58.5t24 -47.5t47.5 -32t76 -12q96 0 143 52.5t67 149.5l102 483h62zM510 0l-275 628l-133 -628h-60l153 721h65l273 -626l134 626h59l-152 -721h-64z " />
<glyph unicode="&#x1cb;" horiz-adv-x="902" d="M785 -18q-8 -36 -18 -66.5t-27.5 -53.5t-43.5 -36.5t-66 -13.5q-34 0 -54.5 6t-35.5 12l21 49q12 -5 28 -9.5t41 -4.5q42 0 62 24.5t29 67.5l119 563h59zM856 633l18 88h66l-18 -88h-66zM510 0l-275 628l-133 -628h-60l153 721h65l273 -626l134 626h59l-152 -721h-64z " />
<glyph unicode="&#x1cc;" horiz-adv-x="769" d="M652 -18q-8 -36 -18 -66.5t-27.5 -53.5t-43.5 -36.5t-66 -13.5q-34 0 -54.5 6t-35.5 12l21 49q12 -5 28 -9.5t41 -4.5q42 0 62 24.5t29 67.5l119 563h59zM723 633l18 88h66l-18 -88h-66zM397 0l69 322q3 14 5 28.5t2 28.5q0 47 -22 76t-76 29q-30 0 -64.5 -12t-67.5 -38 q-32 -26 -55.5 -54t-33.5 -75l-65 -305h-59l110 520h59l-18 -85q50 55 102.5 78t100.5 23q73 0 110.5 -39t37.5 -109q0 -26 -6 -55l-70 -333h-59z" />
<glyph unicode="&#x1cd;" horiz-adv-x="667" d="M410 721h73l132 -721h-64l-40 220h-339l-133 -220h-67zM206 277h295l-69 376zM617 915l-140 -130h-58l-86 130h61l60 -84l101 84h62z" />
<glyph unicode="&#x1ce;" horiz-adv-x="530" d="M25 124q0 55 22.5 90.5t62 58.5t94.5 33t119 13l105 4l2 10l4 26t2 24q0 45 -26 74.5t-94 29.5q-37 0 -63.5 -4.5t-44.5 -14.5t-30.5 -27.5t-22.5 -42.5l-55 9q24 71 77 100t144 29q90 0 132.5 -42t42.5 -111q0 -14 -2 -29t-5 -30l-69 -324h-58l15 74q-36 -36 -82.5 -61 t-114.5 -25t-111.5 37t-43.5 99zM188 40q33 0 66 8t58 25q20 13 35 25.5t25.5 26.5t18 32.5t12.5 42.5l16 77l-97 -4q-66 -3 -111 -13t-72.5 -27.5t-39 -44t-11.5 -63.5q0 -34 22 -59.5t78 -25.5zM502 733l-142 -135h-58l-85 135h58l62 -91l104 91h61z" />
<glyph unicode="&#x1cf;" horiz-adv-x="227" d="M42 0l153 721h62l-153 -721h-62zM400 915l-140 -130h-58l-86 130h61l60 -84l101 84h62z" />
<glyph unicode="&#x1d0;" horiz-adv-x="206" d="M33 0l110 520h59l-110 -520h-59zM361 733l-142 -135h-58l-85 135h58l62 -91l104 91h61z" />
<glyph unicode="&#x1d1;" horiz-adv-x="763" d="M471 739q59 0 111 -20t90.5 -58.5t60 -93.5t21.5 -126q0 -83 -25.5 -165t-75.5 -147.5t-122 -106t-166 -40.5q-60 0 -112 20t-90.5 58t-60 93t-21.5 126q0 83 26.5 165.5t76.5 148t122.5 106t164.5 40.5zM367 36q75 0 135.5 35t101.5 92t63 129.5t22 146.5q0 54 -14 99 t-42.5 77.5t-69.5 51t-94 18.5q-76 0 -136 -35.5t-101.5 -92t-63.5 -129t-22 -146.5q0 -54 14.5 -99.5t42.5 -77.5t69 -50.5t95 -18.5zM667 915l-140 -130h-58l-86 130h61l60 -84l101 84h62z" />
<glyph unicode="&#x1d2;" horiz-adv-x="598" d="M272 34q52 0 95 22t73.5 60t47 89.5t16.5 109.5q0 76 -38 123.5t-111 47.5q-53 0 -96 -22t-73 -59.5t-47 -89t-17 -110.5q0 -76 38 -123.5t112 -47.5zM267 -16q-46 0 -84 15.5t-65 44t-42.5 68.5t-15.5 88q0 78 23.5 140t64.5 106t95.5 67t116.5 23q45 0 83 -15.5t65 -44 t43 -68t16 -88.5q0 -78 -23.5 -140t-63.5 -106t-95 -67t-118 -23zM536 733l-142 -135h-58l-85 135h58l62 -91l104 91h61z" />
<glyph unicode="&#x1d3;" horiz-adv-x="682" d="M319 -18q-52 0 -95 12t-73.5 38t-47 65.5t-16.5 94.5q0 21 3 45t8 50l92 434h61l-92 -439q-11 -47 -11 -88q0 -79 42 -118.5t131 -39.5q56 0 96 16t67.5 46.5t46 76.5t32.5 107l92 439h62l-93 -438q-17 -80 -43.5 -137t-63 -93.5t-86 -53.5t-112.5 -17zM627 915 l-140 -130h-58l-86 130h61l60 -84l101 84h62z" />
<glyph unicode="&#x1d4;" horiz-adv-x="552" d="M195 520l-70 -327q-2 -12 -3.5 -27.5t-1.5 -29.5q0 -20 4 -37.5t14.5 -31.5t29 -22.5t45.5 -8.5q29 0 61.5 12t63.5 38q32 26 55 54t33 75l65 305h58l-110 -520h-58l18 85q-49 -55 -98.5 -78t-96.5 -23q-37 0 -64.5 11t-45 30.5t-26 46.5t-8.5 58q0 13 1.5 28t4.5 29 l70 333h59zM513 733l-142 -135h-58l-85 135h58l62 -91l104 91h61z" />
<glyph unicode="&#x1d5;" horiz-adv-x="682" d="M319 -18q-52 0 -95 12t-73.5 38t-47 65.5t-16.5 94.5q0 21 3 45t8 50l92 434h61l-92 -439q-11 -47 -11 -88q0 -79 42 -118.5t131 -39.5q56 0 96 16t67.5 46.5t46 76.5t32.5 107l92 439h62l-93 -438q-17 -80 -43.5 -137t-63 -93.5t-86 -53.5t-112.5 -17zM356 848h64 l-18 -82h-65zM520 848h65l-18 -82h-65zM351 946h277l-12 -52h-277z" />
<glyph unicode="&#x1d6;" horiz-adv-x="552" d="M195 520l-70 -327q-2 -12 -3.5 -27.5t-1.5 -29.5q0 -20 4 -37.5t14.5 -31.5t29 -22.5t45.5 -8.5q29 0 61.5 12t63.5 38q32 26 55 54t33 75l65 305h58l-110 -520h-58l18 85q-49 -55 -98.5 -78t-96.5 -23q-37 0 -64.5 11t-45 30.5t-26 46.5t-8.5 58q0 13 1.5 28t4.5 29 l70 333h59zM250 698h65l-17 -83h-66zM411 698h66l-17 -83h-66zM261 794h244l-10 -51h-244z" />
<glyph unicode="&#x1d7;" horiz-adv-x="682" d="M319 -18q-52 0 -95 12t-73.5 38t-47 65.5t-16.5 94.5q0 21 3 45t8 50l92 434h61l-92 -439q-11 -47 -11 -88q0 -79 42 -118.5t131 -39.5q56 0 96 16t67.5 46.5t46 76.5t32.5 107l92 439h62l-93 -438q-17 -80 -43.5 -137t-63 -93.5t-86 -53.5t-112.5 -17zM484 837h-52 l99 132h67zM345 848h65l-17 -82h-66zM528 848h66l-17 -82h-66z" />
<glyph unicode="&#x1d8;" horiz-adv-x="552" d="M195 520l-70 -327q-2 -12 -3.5 -27.5t-1.5 -29.5q0 -20 4 -37.5t14.5 -31.5t29 -22.5t45.5 -8.5q29 0 61.5 12t63.5 38q32 26 55 54t33 75l65 305h58l-110 -520h-58l18 85q-49 -55 -98.5 -78t-96.5 -23q-37 0 -64.5 11t-45 30.5t-26 46.5t-8.5 58q0 13 1.5 28t4.5 29 l70 333h59zM371 677h-52l104 141h67zM237 698h65l-17 -83h-66zM420 698h66l-17 -83h-66z" />
<glyph unicode="&#x1d9;" horiz-adv-x="682" d="M319 -18q-52 0 -95 12t-73.5 38t-47 65.5t-16.5 94.5q0 21 3 45t8 50l92 434h61l-92 -439q-11 -47 -11 -88q0 -79 42 -118.5t131 -39.5q56 0 96 16t67.5 46.5t46 76.5t32.5 107l92 439h62l-93 -438q-17 -80 -43.5 -137t-63 -93.5t-86 -53.5t-112.5 -17zM369 969h49 l56 -91l90 91h54l-128 -132h-46zM346 848h65l-17 -82h-66zM529 848h66l-17 -82h-66z" />
<glyph unicode="&#x1da;" horiz-adv-x="552" d="M195 520l-70 -327q-2 -12 -3.5 -27.5t-1.5 -29.5q0 -20 4 -37.5t14.5 -31.5t29 -22.5t45.5 -8.5q29 0 61.5 12t63.5 38q32 26 55 54t33 75l65 305h58l-110 -520h-58l18 85q-49 -55 -98.5 -78t-96.5 -23q-37 0 -64.5 11t-45 30.5t-26 46.5t-8.5 58q0 13 1.5 28t4.5 29 l70 333h59zM262 823h49l56 -91l90 91h54l-128 -131h-45zM238 698h65l-17 -83h-66zM421 698h66l-17 -83h-66z" />
<glyph unicode="&#x1db;" horiz-adv-x="682" d="M319 -18q-52 0 -95 12t-73.5 38t-47 65.5t-16.5 94.5q0 21 3 45t8 50l92 434h61l-92 -439q-11 -47 -11 -88q0 -79 42 -118.5t131 -39.5q56 0 96 16t67.5 46.5t46 76.5t32.5 107l92 439h62l-93 -438q-17 -80 -43.5 -137t-63 -93.5t-86 -53.5t-112.5 -17zM345 848h65 l-17 -82h-66zM373 969h62l67 -132h-47zM528 848h66l-17 -82h-66z" />
<glyph unicode="&#x1dc;" horiz-adv-x="552" d="M195 520l-70 -327q-2 -12 -3.5 -27.5t-1.5 -29.5q0 -20 4 -37.5t14.5 -31.5t29 -22.5t45.5 -8.5q29 0 61.5 12t63.5 38q32 26 55 54t33 75l65 305h58l-110 -520h-58l18 85q-49 -55 -98.5 -78t-96.5 -23q-37 0 -64.5 11t-45 30.5t-26 46.5t-8.5 58q0 13 1.5 28t4.5 29 l70 333h59zM237 698h65l-17 -83h-66zM265 818h62l71 -141h-47zM420 698h66l-17 -83h-66z" />
<glyph unicode="&#x1dd;" horiz-adv-x="574" d="M486 315q0 36 -9 68.5t-28 57t-47.5 38.5t-68.5 14q-37 0 -65 -6.5t-49 -20.5t-36.5 -34t-27.5 -47l-53 12q27 71 86.5 108t145.5 37q52 0 91.5 -19t66 -50.5t39.5 -72t13 -83.5q0 -81 -22 -143t-60.5 -104.5t-89.5 -64t-109 -21.5q-49 0 -86 15.5t-61 43t-36 64 t-12 79.5q0 15 1.5 38.5t6.5 53.5h409q1 10 1 18v19zM268 31q79 0 134.5 50.5t74.5 145.5h-350q-2 -9 -2.5 -22t-0.5 -24q0 -66 35.5 -108t108.5 -42z" />
<glyph unicode="&#x1de;" horiz-adv-x="667" d="M410 721h73l132 -721h-64l-40 220h-339l-133 -220h-67zM206 277h295l-69 376zM344 848h64l-18 -82h-65zM508 848h65l-18 -82h-65zM339 946h277l-12 -52h-277z" />
<glyph unicode="&#x1df;" horiz-adv-x="530" d="M25 124q0 55 22.5 90.5t62 58.5t94.5 33t119 13l105 4l2 10l4 26t2 24q0 45 -26 74.5t-94 29.5q-37 0 -63.5 -4.5t-44.5 -14.5t-30.5 -27.5t-22.5 -42.5l-55 9q24 71 77 100t144 29q90 0 132.5 -42t42.5 -111q0 -14 -2 -29t-5 -30l-69 -324h-58l15 74q-36 -36 -82.5 -61 t-114.5 -25t-111.5 37t-43.5 99zM188 40q33 0 66 8t58 25q20 13 35 25.5t25.5 26.5t18 32.5t12.5 42.5l16 77l-97 -4q-66 -3 -111 -13t-72.5 -27.5t-39 -44t-11.5 -63.5q0 -34 22 -59.5t78 -25.5zM235 698h65l-17 -83h-66zM396 698h66l-17 -83h-66zM246 794h244l-10 -51 h-244z" />
<glyph unicode="&#x1e0;" horiz-adv-x="667" d="M410 721h73l132 -721h-64l-40 220h-339l-133 -220h-67zM206 277h295l-69 376zM426 848h65l-18 -82h-65zM340 946h277l-12 -52h-277z" />
<glyph unicode="&#x1e1;" horiz-adv-x="530" d="M25 124q0 55 22.5 90.5t62 58.5t94.5 33t119 13l105 4l2 10l4 26t2 24q0 45 -26 74.5t-94 29.5q-37 0 -63.5 -4.5t-44.5 -14.5t-30.5 -27.5t-22.5 -42.5l-55 9q24 71 77 100t144 29q90 0 132.5 -42t42.5 -111q0 -14 -2 -29t-5 -30l-69 -324h-58l15 74q-36 -36 -82.5 -61 t-114.5 -25t-111.5 37t-43.5 99zM188 40q33 0 66 8t58 25q20 13 35 25.5t25.5 26.5t18 32.5t12.5 42.5l16 77l-97 -4q-66 -3 -111 -13t-72.5 -27.5t-39 -44t-11.5 -63.5q0 -34 22 -59.5t78 -25.5zM314 698h66l-17 -83h-66zM245 794h244l-10 -51h-244z" />
<glyph unicode="&#x1e2;" horiz-adv-x="1022" d="M-35 0l578 721h534l-11 -55h-367l-57 -265h347l-12 -58h-347l-61 -286h387l-24 -57h-433l52 251h-315l-201 -251h-70zM282 308h282l76 358h-71zM537 806l11 54h285l-11 -54h-285z" />
<glyph unicode="&#x1e3;" horiz-adv-x="898" d="M461 205q0 -35 9 -66.5t28 -54.5t49 -37.5t72 -14.5q37 0 63.5 8t44 22t29 33t19.5 41h57q-12 -33 -28 -61.5t-41.5 -48.5t-61 -31t-86.5 -11q-45 0 -79 11t-57 29t-39 41.5t-25 47.5q-47 -69 -101.5 -97t-130.5 -28q-36 0 -64.5 9.5t-49.5 27t-32.5 43t-11.5 56.5 q0 55 22 90.5t60 58.5t90.5 33t113.5 13l109 4l2 10q6 31 4 58.5t-14.5 49t-37.5 34t-64 12.5q-35 0 -60 -4.5t-43 -14.5t-30 -27.5t-22 -42.5l-55 9q24 71 76.5 100t138.5 29q61 0 102.5 -25t55.5 -74q35 47 84 73t122 26q48 0 84 -15.5t59.5 -42.5t35 -63t11.5 -78 q0 -15 -1 -36.5t-4 -38.5l-3 -17h-399q-1 -10 -1 -19.5v-20.5zM191 40q40 0 70 8t49 22q35 25 55 53.5t30 76.5l16 77l-101 -4q-64 -3 -106 -13t-68 -27.5t-37 -44t-11 -63.5q0 -34 22.5 -59.5t80.5 -25.5zM674 489q-80 0 -132.5 -50.5t-71.5 -142.5h339q2 9 2.5 22t0.5 24 q0 32 -8 58.5t-24.5 46.5t-43 31t-62.5 11zM396 685h246l-11 -52h-246z" />
<glyph unicode="&#x1e4;" horiz-adv-x="748" d="M607 236l17 80h-207l12 56h266l-29 -136h82l-11 -54h-83l-23 -110q-47 -42 -119.5 -66t-153.5 -24q-79 0 -142 36.5t-100 103.5t-37 156q0 126 47.5 232t134 167.5t205.5 61.5q99 0 164 -51.5t83 -145.5l-60 -13q-15 77 -64.5 117t-128.5 40q-91 0 -161.5 -49.5 t-112 -143t-41.5 -209.5q0 -71 26.5 -127t75 -88.5t114.5 -32.5q132 0 217 64l17 82h-206l11 54h207z" />
<glyph unicode="&#x1e5;" horiz-adv-x="596" d="M325 251l11 51h147q5 30 5 50q0 32 -10.5 55t-34.5 43q-41 36 -106 36q-58 0 -106 -34t-77 -96.5t-29 -138.5q0 -75 34.5 -116.5t96.5 -41.5q67 0 120 35q39 26 61.5 62.5t35.5 94.5h-148zM480 19q-26 -119 -88 -172.5t-171 -53.5q-96 0 -147 38t-54 112h56q6 -39 22 -60 t46 -31t77 -10q88 0 134 42.5t67 140.5l15 71q-33 -42 -81 -65t-108 -23q-56 0 -97.5 25t-64.5 73.5t-23 109.5q0 83 35 157t97.5 118.5t144.5 44.5q56 0 100.5 -25t70.5 -72l17 81h59l-47 -218h72l-11 -51h-72z" />
<glyph unicode="&#x1e6;" horiz-adv-x="718" d="M653 529q-15 79 -65.5 118t-127.5 39t-135.5 -34t-98.5 -90t-60.5 -128.5t-20.5 -149.5q0 -51 14.5 -96t41.5 -78.5t67.5 -53.5t92.5 -20q43 0 77.5 6t61 16t45.5 21t33 21l43 201h-207l12 56h266l-61 -285q-17 -15 -42.5 -31t-60.5 -29t-77.5 -21.5t-92.5 -8.5 q-61 0 -112 21t-88.5 60t-58 93.5t-20.5 121.5q0 88 24.5 170.5t73 147.5t121 104t168.5 39q97 0 162.5 -49.5t84.5 -147.5zM643 915l-140 -130h-58l-86 130h61l60 -84l101 84h62z" />
<glyph unicode="&#x1e7;" horiz-adv-x="585" d="M480 19q-11 -52 -30.5 -94t-49.5 -71.5t-74 -45t-105 -15.5q-42 0 -78.5 8t-62.5 25.5t-42.5 46.5t-17.5 70h56q4 -27 13.5 -46t26 -31t42.5 -18t63 -6q86 0 133 42t68 141l15 71q-34 -44 -82.5 -66t-106.5 -22q-51 0 -86.5 18.5t-57.5 48.5t-31.5 67.5t-9.5 73.5 q0 57 18 114t53.5 103t87.5 74.5t118 28.5q53 0 98.5 -24t72.5 -73l17 81h59zM337 486q-48 0 -87.5 -22.5t-66.5 -59.5t-42.5 -85.5t-15.5 -101.5q0 -76 34.5 -117t96.5 -41q32 0 61.5 8t58.5 27q39 26 62 63.5t36 99.5l5 24q9 40 9 71q0 33 -11 56t-34 42q-20 18 -45.5 27 t-60.5 9zM538 733l-142 -135h-58l-85 135h58l62 -91l104 91h61z" />
<glyph unicode="&#x1e8;" horiz-adv-x="642" d="M333 409l-171 -138l-58 -271h-62l153 721h62l-79 -375l457 375h74l-325 -275l198 -446h-71zM605 915l-140 -130h-58l-86 130h61l60 -84l101 84h62z" />
<glyph unicode="&#x1e9;" horiz-adv-x="497" d="M30 0l153 721h58l-92 -439l315 238h75l-221 -175l133 -345h-65l-117 313l-136 -101l-44 -212h-59zM483 915l-140 -130h-58l-86 130h61l60 -84l101 84h62z" />
<glyph unicode="&#x1ea;" horiz-adv-x="763" d="M440 -177q-19 -2 -30 -2q-38 0 -61 19.5t-23 49.5q0 52 53 93q-5 -1 -14 -1q-83 0 -147 36.5t-100.5 103.5t-36.5 157q0 122 49.5 226.5t140 169t200.5 64.5q81 0 145.5 -36t101 -104t36.5 -158q0 -102 -35 -192t-102 -158t-157 -101q-32 -11 -53 -35.5t-21 -49.5 q0 -16 10.5 -25.5t29.5 -9.5q8 0 25 2zM367 36q86 0 159.5 51t118 144t44.5 208q0 113 -59 179.5t-161 66.5q-87 0 -160.5 -51t-118 -144t-44.5 -208q0 -113 59.5 -179.5t161.5 -66.5z" />
<glyph unicode="&#x1eb;" horiz-adv-x="598" d="M267 -16q-60 0 -106.5 26.5t-73.5 75.5t-27 114q0 93 36.5 169t105.5 121.5t158 45.5q59 0 105.5 -26.5t74 -75.5t27.5 -114q0 -72 -24 -136t-68.5 -112.5t-104.5 -71.5q-47 -17 -68.5 -40t-21.5 -52q0 -16 10 -25t29 -9q4 0 10 0.5t14 1.5l-10 -48q-20 -2 -29 -2 q-37 0 -59.5 18.5t-22.5 48.5q0 49 54 91h-9zM272 34q65 0 117.5 35t83.5 98.5t31 147.5q0 80 -40 125.5t-109 45.5q-66 0 -118.5 -35t-83.5 -98.5t-31 -147.5q0 -80 40 -125.5t110 -45.5z" />
<glyph unicode="&#x1ec;" horiz-adv-x="763" d="M440 -177q-19 -2 -30 -2q-38 0 -61 19.5t-23 49.5q0 52 53 93q-5 -1 -14 -1q-83 0 -147 36.5t-100.5 103.5t-36.5 157q0 122 49.5 226.5t140 169t200.5 64.5q81 0 145.5 -36t101 -104t36.5 -158q0 -102 -35 -192t-102 -158t-157 -101q-32 -11 -53 -35.5t-21 -49.5 q0 -16 10.5 -25.5t29.5 -9.5q8 0 25 2zM367 36q86 0 159.5 51t118 144t44.5 208q0 113 -59 179.5t-161 66.5q-87 0 -160.5 -51t-118 -144t-44.5 -208q0 -113 59.5 -179.5t161.5 -66.5zM343 806l11 54h285l-11 -54h-285z" />
<glyph unicode="&#x1ed;" horiz-adv-x="598" d="M267 -16q-60 0 -106.5 26.5t-73.5 75.5t-27 114q0 93 36.5 169t105.5 121.5t158 45.5q59 0 105.5 -26.5t74 -75.5t27.5 -114q0 -72 -24 -136t-68.5 -112.5t-104.5 -71.5q-47 -17 -68.5 -40t-21.5 -52q0 -16 10 -25t29 -9q4 0 10 0.5t14 1.5l-10 -48q-20 -2 -29 -2 q-37 0 -59.5 18.5t-22.5 48.5q0 49 54 91h-9zM272 34q65 0 117.5 35t83.5 98.5t31 147.5q0 80 -40 125.5t-109 45.5q-66 0 -118.5 -35t-83.5 -98.5t-31 -147.5q0 -80 40 -125.5t110 -45.5zM256 685h246l-11 -52h-246z" />
<glyph unicode="&#x1ee;" horiz-adv-x="575" d="M305 413q49 0 90 -10t71.5 -32.5t47.5 -56t17 -82.5q0 -63 -19.5 -110.5t-55.5 -78.5t-86 -46.5t-110 -15.5q-114 0 -175.5 49.5t-63.5 146.5h57q3 -42 17 -69t38 -43t57 -22.5t75 -6.5q41 0 78.5 10t65 31.5t44.5 58.5t17 91q0 70 -42 103t-115 33h-94l10 47l283 257 h-369l12 54h448l-10 -50zM563 915l-140 -130h-58l-86 130h61l60 -84l101 84h62z" />
<glyph unicode="&#x1ef;" horiz-adv-x="475" d="M187 218h11q102 0 159.5 -49.5t57.5 -137.5q0 -113 -63.5 -175.5t-178.5 -62.5q-101 0 -157.5 46.5t-60.5 133.5h56q6 -67 47 -99t120 -32q86 0 131.5 47.5t45.5 138.5q0 68 -39 104.5t-114 36.5h-88l5 48l278 254h-312l10 49h390l-9 -45zM462 733l-142 -135h-58l-85 135 h58l62 -91l104 91h61z" />
<glyph unicode="&#x1f0;" horiz-adv-x="206" d="M88 -18q-8 -36 -18 -66.5t-27.5 -53.5t-43.5 -36.5t-66 -13.5q-34 0 -54.5 6t-35.5 12l21 49q12 -5 28 -9.5t41 -4.5q42 0 62 24.5t29 67.5l119 563h59zM361 733l-142 -135h-58l-85 135h58l62 -91l104 91h61z" />
<glyph unicode="&#x1f1;" horiz-adv-x="1281" d="M42 0l153 721h228q63 0 114 -21t87.5 -59t56 -90.5t19.5 -116.5q0 -91 -26 -170t-79.5 -137.5t-135 -92.5t-192.5 -34h-225zM276 55q89 0 156 26.5t112.5 76.5t68 120t22.5 158q0 48 -14 90t-41.5 73.5t-68 50t-94.5 18.5h-172l-130 -613h161zM1206 0h-517l10 50l562 616 h-429l12 55h508l-12 -51l-559 -613h449z" />
<glyph unicode="&#x1f2;" horiz-adv-x="1162" d="M42 0l153 721h228q63 0 114 -21t87.5 -59t56 -90.5t19.5 -116.5q0 -91 -26 -170t-79.5 -137.5t-135 -92.5t-192.5 -34h-225zM276 55q89 0 156 26.5t112.5 76.5t68 120t22.5 158q0 48 -14 90t-41.5 73.5t-68 50t-94.5 18.5h-172l-130 -613h161zM705 49l411 422h-320l10 49 h393l-10 -49l-411 -422h346l-18 -49h-411z" />
<glyph unicode="&#x1f3;" horiz-adv-x="1040" d="M433 78q-38 -49 -83 -71.5t-103 -22.5q-51 0 -87.5 19.5t-59 50.5t-32.5 70.5t-10 78.5q0 60 18.5 119.5t54.5 107t88.5 77t120.5 29.5q53 0 98.5 -24t72.5 -73l60 282h58l-153 -721h-59zM479 281q9 40 9 70q0 33 -11 56.5t-34 42.5q-20 18 -45.5 27t-60.5 9 q-48 0 -88 -22.5t-68.5 -60.5t-44.5 -89t-16 -109q0 -83 36.5 -127t100.5 -44q32 0 56 7t51 26q38 27 65.5 68t40.5 102zM583 49l411 422h-320l10 49h393l-10 -49l-411 -422h346l-18 -49h-411z" />
<glyph unicode="&#x1f4;" horiz-adv-x="718" d="M653 529q-15 79 -65.5 118t-127.5 39t-135.5 -34t-98.5 -90t-60.5 -128.5t-20.5 -149.5q0 -51 14.5 -96t41.5 -78.5t67.5 -53.5t92.5 -20q43 0 77.5 6t61 16t45.5 21t33 21l43 201h-207l12 56h266l-61 -285q-17 -15 -42.5 -31t-60.5 -29t-77.5 -21.5t-92.5 -8.5 q-61 0 -112 21t-88.5 60t-58 93.5t-20.5 121.5q0 88 24.5 170.5t73 147.5t121 104t168.5 39q97 0 162.5 -49.5t84.5 -147.5zM419 782l134 130h82l-152 -130h-64z" />
<glyph unicode="&#x1f5;" horiz-adv-x="585" d="M480 19q-11 -52 -30.5 -94t-49.5 -71.5t-74 -45t-105 -15.5q-42 0 -78.5 8t-62.5 25.5t-42.5 46.5t-17.5 70h56q4 -27 13.5 -46t26 -31t42.5 -18t63 -6q86 0 133 42t68 141l15 71q-34 -44 -82.5 -66t-106.5 -22q-51 0 -86.5 18.5t-57.5 48.5t-31.5 67.5t-9.5 73.5 q0 57 18 114t53.5 103t87.5 74.5t118 28.5q53 0 98.5 -24t72.5 -73l17 81h59zM337 486q-48 0 -87.5 -22.5t-66.5 -59.5t-42.5 -85.5t-15.5 -101.5q0 -76 34.5 -117t96.5 -41q32 0 61.5 8t58.5 27q39 26 62 63.5t36 99.5l5 24q9 40 9 71q0 33 -11 56t-34 42q-20 18 -45.5 27 t-60.5 9zM310 596l134 135h83l-151 -135h-66z" />
<glyph unicode="&#x1f6;" horiz-adv-x="1059" d="M735 35q77 0 124.5 45.5t67.5 137.5l66 302h61l-66 -302q-26 -122 -87 -179t-164 -57q-53 0 -96.5 17.5t-68.5 51t-25 79.5q0 42 11 89l26 125h-407l-73 -344h-62l153 721h62l-68 -319h407l68 319h61l-106 -501q-11 -51 -11 -83q0 -45 36.5 -73.5t90.5 -28.5z" />
<glyph unicode="&#x1f7;" horiz-adv-x="644" d="M1 -196l194 917h62l-21 -95q49 55 106.5 84t117.5 29q91 0 141.5 -55.5t50.5 -151.5q0 -62 -17.5 -119t-54 -109.5t-95 -100t-143.5 -93t-238 -106.5l-42 -200h-61zM117 66q131 54 200.5 91t120 77.5t83.5 86.5t50 98.5t17 112.5q0 75 -36 114.5t-105 39.5 q-30 0 -62.5 -10.5t-60.5 -31.5q-51 -36 -80.5 -80.5t-42.5 -104.5z" />
<glyph unicode="&#x1f8;" horiz-adv-x="696" d="M510 0l-275 628l-133 -628h-60l153 721h65l273 -626l134 626h59l-152 -721h-64zM468 782l-105 130h76l89 -130h-60z" />
<glyph unicode="&#x1f9;" horiz-adv-x="563" d="M397 0l69 322q3 14 5 28.5t2 28.5q0 47 -22 76t-76 29q-30 0 -64.5 -12t-67.5 -38q-32 -26 -55.5 -54t-33.5 -75l-65 -305h-59l110 520h59l-18 -85q50 55 102.5 78t100.5 23q73 0 110.5 -39t37.5 -109q0 -26 -6 -55l-70 -333h-59zM358 596l-106 135h75l90 -135h-59z" />
<glyph unicode="&#x1fa;" horiz-adv-x="667" d="M410 721q-18 9 -28 27.5t-10 42.5q0 36 22 58t56 22q35 0 57.5 -22t22.5 -58q0 -27 -12.5 -46t-34.5 -27l132 -718h-64l-40 220h-339l-133 -220h-67zM206 277h295l-69 376zM450 749q40 0 40 42t-40 42q-38 0 -38 -42t38 -42zM476 890h-57l113 100h74z" />
<glyph unicode="&#x1fb;" horiz-adv-x="530" d="M25 124q0 55 22.5 90.5t62 58.5t94.5 33t119 13l105 4l2 10l4 26t2 24q0 45 -26 74.5t-94 29.5q-37 0 -63.5 -4.5t-44.5 -14.5t-30.5 -27.5t-22.5 -42.5l-55 9q24 71 77 100t144 29q90 0 132.5 -42t42.5 -111q0 -14 -2 -29t-5 -30l-69 -324h-58l15 74q-36 -36 -82.5 -61 t-114.5 -25t-111.5 37t-43.5 99zM188 40q33 0 66 8t58 25q20 13 35 25.5t25.5 26.5t18 32.5t12.5 42.5l16 77l-97 -4q-66 -3 -111 -13t-72.5 -27.5t-39 -44t-11.5 -63.5q0 -34 22 -59.5t78 -25.5zM367 781h-59l112 104h77zM262 674q0 36 22 57.5t56 21.5q35 0 57.5 -21.5 t22.5 -57.5q0 -37 -22 -58t-58 -21q-35 0 -56.5 21t-21.5 58zM340 632q40 0 40 42t-40 42q-38 0 -38 -42t38 -42z" />
<glyph unicode="&#x1fc;" horiz-adv-x="1022" d="M-35 0l578 721h534l-11 -55h-367l-57 -265h347l-12 -58h-347l-61 -286h387l-24 -57h-433l52 251h-315l-201 -251h-70zM282 308h282l76 358h-71zM592 797l134 135h83l-151 -135h-66z" />
<glyph unicode="&#x1fd;" horiz-adv-x="898" d="M461 205q0 -35 9 -66.5t28 -54.5t49 -37.5t72 -14.5q37 0 63.5 8t44 22t29 33t19.5 41h57q-12 -33 -28 -61.5t-41.5 -48.5t-61 -31t-86.5 -11q-45 0 -79 11t-57 29t-39 41.5t-25 47.5q-47 -69 -101.5 -97t-130.5 -28q-36 0 -64.5 9.5t-49.5 27t-32.5 43t-11.5 56.5 q0 55 22 90.5t60 58.5t90.5 33t113.5 13l109 4l2 10q6 31 4 58.5t-14.5 49t-37.5 34t-64 12.5q-35 0 -60 -4.5t-43 -14.5t-30 -27.5t-22 -42.5l-55 9q24 71 76.5 100t138.5 29q61 0 102.5 -25t55.5 -74q35 47 84 73t122 26q48 0 84 -15.5t59.5 -42.5t35 -63t11.5 -78 q0 -15 -1 -36.5t-4 -38.5l-3 -17h-399q-1 -10 -1 -19.5v-20.5zM191 40q40 0 70 8t49 22q35 25 55 53.5t30 76.5l16 77l-101 -4q-64 -3 -106 -13t-68 -27.5t-37 -44t-11 -63.5q0 -34 22.5 -59.5t80.5 -25.5zM674 489q-80 0 -132.5 -50.5t-71.5 -142.5h339q2 9 2.5 22t0.5 24 q0 32 -8 58.5t-24.5 46.5t-43 31t-62.5 11zM471 596l134 135h83l-151 -135h-66z" />
<glyph unicode="&#x1fe;" horiz-adv-x="763" d="M471 739q54 0 101.5 -16.5t85.5 -47.5l69 79l42 -33l-75 -86q29 -36 44.5 -84.5t15.5 -109.5q0 -83 -25.5 -165t-75.5 -147.5t-122 -106t-166 -40.5q-110 0 -186 63l-68 -77l-41 33l71 83q-29 36 -44.5 85t-15.5 110q0 83 26.5 165.5t76.5 148t122.5 106t164.5 40.5z M146 282q0 -45 9.5 -82.5t28.5 -68.5l434 499q-27 26 -64.5 40.5t-84.5 14.5q-76 0 -136 -35.5t-101.5 -92t-63.5 -129t-22 -146.5zM367 36q75 0 135.5 35t101.5 92t63 129.5t22 146.5q0 88 -37 149l-435 -498q57 -54 150 -54zM414 782l134 130h82l-152 -130h-64z" />
<glyph unicode="&#x1ff;" horiz-adv-x="598" d="M522 460q21 -28 33 -62.5t12 -77.5q0 -78 -23.5 -140t-63.5 -106t-95 -67t-118 -23q-37 0 -68 10t-57 28l-57 -65l-39 31l60 69q-22 27 -34 63.5t-12 79.5q0 78 23.5 140t64.5 106t95.5 67t116.5 23q37 0 69 -10.5t58 -30.5l57 66l39 -32zM122 205q0 -60 23 -103l305 351 q-18 16 -42 24.5t-53 8.5q-53 0 -96 -22t-73 -59.5t-47 -89t-17 -110.5zM272 34q52 0 95 22t73.5 60t47 89.5t16.5 109.5q0 56 -22 98l-304 -349q37 -30 94 -30zM315 596l134 135h83l-151 -135h-66z" />
<glyph unicode="&#x218;" horiz-adv-x="648" d="M580 208q0 -55 -21 -97t-56.5 -71t-84 -43.5t-105.5 -14.5q-47 0 -94 8t-85 30.5t-63 63t-27 105.5h61q4 -41 18 -69.5t39.5 -47t63.5 -27.5t91 -9t90 13.5t60.5 36.5t34.5 54.5t11 68.5q0 18 -4 37t-15.5 35t-33 28.5t-54.5 19.5l-104 22q-78 18 -123.5 59t-45.5 117 q0 53 18.5 93t52.5 66.5t82.5 39.5t108.5 13q62 0 106 -15.5t73.5 -41.5t45 -59.5t20.5 -70.5l-57 -12q-11 71 -54.5 108.5t-138.5 37.5q-57 0 -94.5 -12t-60 -33t-31.5 -47.5t-9 -56.5q0 -24 5.5 -43.5t19 -36t37.5 -28t60 -19.5l100 -21q46 -9 77 -26.5t50 -41t27.5 -52.5 t8.5 -61zM157 -214l104 145h77l-122 -145h-59z" />
<glyph unicode="&#x219;" horiz-adv-x="519" d="M445 141q-1 -40 -18.5 -70t-46.5 -49t-66 -28.5t-78 -9.5q-36 0 -73 7.5t-66 26t-47.5 49.5t-18.5 77h57q0 -32 12.5 -53.5t34 -34.5t49 -18t58.5 -5q75 0 108.5 32t33.5 75q0 41 -19 60.5t-68 30.5l-60 13q-74 18 -107.5 48t-33.5 85q0 40 17 70.5t45.5 50t65.5 29 t75 9.5q50 0 85 -11t57 -30t33.5 -45.5t15.5 -55.5l-54 -10q-5 26 -14.5 45t-26 32t-41 19t-59.5 6q-37 0 -64 -8t-43.5 -22.5t-24.5 -32.5t-8 -37q0 -17 4 -31t14.5 -24.5t29 -18.5t47.5 -14l66 -14q61 -13 95 -45t34 -98zM91 -210l101 141h75l-119 -141h-57z" />
<glyph unicode="&#x21a;" horiz-adv-x="595" d="M429 665l-140 -665h-62l141 665h-251l12 56h562l-12 -56h-250zM104 -214l104 145h77l-122 -145h-59z" />
<glyph unicode="&#x21b;" horiz-adv-x="333" d="M288 5q-17 -6 -38 -11t-49 -5q-56 0 -86 26.5t-30 80.5q0 11 1 22.5t4 24.5l70 329h-81l10 48h81l30 144h59l-31 -144h148l-10 -48h-148l-70 -329q-2 -11 -3.5 -20.5t-1.5 -18.5q0 -65 64 -65q26 0 41.5 4t29.5 10zM19 -210l101 141h75l-119 -141h-57z" />
<glyph unicode="&#x21e;" horiz-adv-x="695" d="M511 0l73 344h-407l-73 -344h-62l153 721h62l-68 -319h407l68 319h61l-152 -721h-62zM634 915l-140 -130h-58l-86 130h61l60 -84l101 84h62z" />
<glyph unicode="&#x21f;" horiz-adv-x="563" d="M181 435q50 55 102.5 78t100.5 23q73 0 110.5 -39t37.5 -109q0 -26 -6 -55l-70 -333h-59l69 322q3 14 5 28.5t2 28.5q0 47 -22 76t-76 29q-30 0 -64.5 -12t-67.5 -38q-32 -26 -55.5 -54t-33.5 -75l-65 -305h-59l153 721h58zM483 915l-140 -130h-58l-86 130h61l60 -84 l101 84h62z" />
<glyph unicode="&#x237;" horiz-adv-x="206" d="M88 -18q-8 -36 -18 -66.5t-27.5 -53.5t-43.5 -36.5t-66 -13.5q-34 0 -54.5 6t-35.5 12l21 49q12 -5 28 -9.5t41 -4.5q42 0 62 24.5t29 67.5l119 563h59z" />
<glyph unicode="&#x259;" horiz-adv-x="574" d="M486 315q0 36 -9 68.5t-28 57t-47.5 38.5t-68.5 14q-37 0 -65 -6.5t-49 -20.5t-36.5 -34t-27.5 -47l-53 12q27 71 86.5 108t145.5 37q52 0 91.5 -19t66 -50.5t39.5 -72t13 -83.5q0 -81 -22 -143t-60.5 -104.5t-89.5 -64t-109 -21.5q-49 0 -86 15.5t-61 43t-36 64 t-12 79.5q0 15 1.5 38.5t6.5 53.5h409q1 10 1 18v19zM268 31q79 0 134.5 50.5t74.5 145.5h-350q-2 -9 -2.5 -22t-0.5 -24q0 -66 35.5 -108t108.5 -42z" />
<glyph unicode="&#x27c;" horiz-adv-x="339" d="M378 470q-16 3 -38 3q-51 0 -98 -39q-43 -35 -62 -64t-27 -66l-107 -500h-58l151 716h59l-18 -85q44 49 84.5 71t86.5 22q28 0 43 -5z" />
<glyph unicode="&#x292;" horiz-adv-x="475" d="M187 218h11q102 0 159.5 -49.5t57.5 -137.5q0 -113 -63.5 -175.5t-178.5 -62.5q-101 0 -157.5 46.5t-60.5 133.5h56q6 -67 47 -99t120 -32q86 0 131.5 47.5t45.5 138.5q0 68 -39 104.5t-114 36.5h-88l5 48l278 254h-312l10 49h390l-9 -45z" />
<glyph unicode="&#x2bb;" horiz-adv-x="563" d="M352 721l-68 -196h-73l91 196h50z" />
<glyph unicode="&#x2bc;" horiz-adv-x="563" d="M215 533l65 188h67l-86 -188h-46z" />
<glyph unicode="&#x2bd;" horiz-adv-x="563" d="M318 525h-44l-30 196h73z" />
<glyph unicode="&#x2c6;" horiz-adv-x="563" d="M139 596l143 135h57l85 -135h-57l-62 91l-104 -91h-62z" />
<glyph unicode="&#x2c7;" horiz-adv-x="563" d="M424 733l-142 -135h-58l-85 135h58l62 -91l104 91h61z" />
<glyph unicode="&#x2c9;" horiz-adv-x="563" d="M164 685h246l-11 -52h-246z" />
<glyph unicode="&#x2d6;" horiz-adv-x="563" d="M254 261h-76l9 45h76l18 82h46l-18 -82h77l-9 -45h-77l-18 -83h-47z" />
<glyph unicode="&#x2d8;" horiz-adv-x="563" d="M264 595q-52 0 -81.5 26.5t-29.5 75.5q0 13 3 30h48q-3 -14 -3 -24q0 -32 17.5 -48.5t47.5 -16.5q35 0 61.5 20.5t34.5 68.5h48q-13 -69 -49.5 -100.5t-96.5 -31.5z" />
<glyph unicode="&#x2d9;" horiz-adv-x="563" d="M239 624l19 88h66l-18 -88h-67z" />
<glyph unicode="&#x2da;" horiz-adv-x="563" d="M186 690q0 47 28 71.5t67 24.5q18 0 35.5 -6t31 -18.5t21.5 -30.5t8 -41q0 -24 -8 -42t-21.5 -29.5t-31 -17.5t-35.5 -6q-39 0 -67 23.5t-28 71.5zM230 690q0 -28 14 -42t37 -14t36.5 14t13.5 42t-13.5 41.5t-36.5 13.5t-37 -13.5t-14 -41.5z" />
<glyph unicode="&#x2db;" horiz-adv-x="563" d="M326 -172q-6 -1 -13 -1.5t-16 -0.5q-38 0 -60 19t-22 48t17.5 55t58.5 52h57q-38 -26 -56.5 -48.5t-18.5 -43.5q0 -34 39 -34q5 0 12 0.5t12 1.5z" />
<glyph unicode="&#x2dc;" horiz-adv-x="563" d="M350 610q-24 0 -42 9t-33.5 19.5t-30.5 20t-31 9.5q-26 0 -37.5 -13.5t-16.5 -42.5h-49q8 52 31.5 78.5t70.5 26.5q24 0 42.5 -9t34 -19.5t30 -19.5t30.5 -9q27 0 38.5 13t16.5 42h48q-8 -51 -31 -78t-71 -27z" />
<glyph unicode="&#x2dd;" horiz-adv-x="563" d="M94 596l129 135h79l-145 -135h-63zM262 596l129 135h79l-146 -135h-62z" />
<glyph unicode="&#x2df;" horiz-adv-x="563" d="M317 590l86 -108l-40 -33l-86 108l-127 -109l-33 38l129 107l-85 108l40 32l86 -107l126 107l33 -36z" />
<glyph unicode="&#x2ee;" horiz-adv-x="563" d="M143 525l70 196h70l-89 -196h-51zM281 525l70 196h70l-89 -196h-51z" />
<glyph unicode="&#x300;" horiz-adv-x="0" d="M103 596l-106 135h75l90 -135h-59z" />
<glyph unicode="&#x301;" horiz-adv-x="0" d="M-27 596l134 135h83l-151 -135h-66z" />
<glyph unicode="&#x303;" horiz-adv-x="0" d="M150 610q-24 0 -42 9t-33.5 19.5t-30.5 20t-31 9.5q-26 0 -37.5 -13.5t-16.5 -42.5h-49q8 52 31.5 78.5t70.5 26.5q24 0 42.5 -9t34 -19.5t30 -19.5t30.5 -9q27 0 38.5 13t16.5 42h48q-8 -51 -31 -78t-71 -27z" />
<glyph unicode="&#x309;" horiz-adv-x="0" d="M92 596h-46l14 63q41 0 58.5 9.5t17.5 29.5q0 33 -44 33q-10 0 -19 -0.5t-19 -2.5l9 44q17 3 31 3q47 0 72 -19t25 -55q0 -67 -93 -76z" />
<glyph unicode="&#x323;" horiz-adv-x="0" d="M-128 -165l18 88h67l-19 -88h-66z" />
<glyph unicode="&#x326;" horiz-adv-x="0" d="M-157 -210l101 141h75l-119 -141h-57z" />
<glyph unicode="&#x374;" horiz-adv-x="563" d="M293 741h77l-120 -145h-57z" />
<glyph unicode="&#x375;" horiz-adv-x="563" d="M278 -212h-77l101 115h61z" />
<glyph unicode="&#x37a;" horiz-adv-x="563" d="M245 -64h52l-8 -36q-7 -30 -7 -37q0 -21 27 -21q12 0 25 3l-3 -39q-19 -6 -43 -6q-28 0 -43.5 13t-15.5 38q0 16 8 49z" />
<glyph unicode="&#x37e;" horiz-adv-x="200" d="M-15 -99l70 196h70l-89 -196h-51zM111 426l19 94h76l-19 -94h-76z" />
<glyph unicode="&#x384;" horiz-adv-x="563" d="M293 741h77l-120 -145h-57z" />
<glyph unicode="&#x385;" horiz-adv-x="563" d="M290 743h75l-99 -147h-56zM126 629l16 78h62l-16 -78h-62zM359 629l16 78h61l-16 -78h-61z" />
<glyph unicode="&#x386;" horiz-adv-x="817" d="M559 721h73l132 -721h-64l-40 220h-339l-133 -220h-67zM355 277h295l-69 376zM365 721h75l-117 -145h-55z" />
<glyph unicode="&#x387;" horiz-adv-x="200" d="M111 426l19 94h76l-19 -94h-76z" />
<glyph unicode="&#x388;" horiz-adv-x="772" d="M424 666l-56 -265h372l-13 -58h-371l-62 -286h413l-24 -57h-462l153 721h453l-11 -55h-392zM219 721h75l-117 -145h-55z" />
<glyph unicode="&#x389;" horiz-adv-x="874" d="M690 0l73 344h-407l-73 -344h-62l153 721h62l-68 -319h407l68 319h61l-152 -721h-62zM219 721h75l-117 -145h-55z" />
<glyph unicode="&#x38a;" horiz-adv-x="406" d="M221 0l153 721h62l-153 -721h-62zM219 721h75l-117 -145h-55z" />
<glyph unicode="&#x38c;" horiz-adv-x="886" d="M594 739q59 0 111 -20t90.5 -58.5t60 -93.5t21.5 -126q0 -83 -25.5 -165t-75.5 -147.5t-122 -106t-166 -40.5q-60 0 -112 20t-90.5 58t-60 93t-21.5 126q0 83 26.5 165.5t76.5 148t122.5 106t164.5 40.5zM490 36q75 0 135.5 35t101.5 92t63 129.5t22 146.5q0 54 -14 99 t-42.5 77.5t-69.5 51t-94 18.5q-76 0 -136 -35.5t-101.5 -92t-63.5 -129t-22 -146.5q0 -54 14.5 -99.5t42.5 -77.5t69 -50.5t95 -18.5zM219 721h75l-117 -145h-55z" />
<glyph unicode="&#x38e;" horiz-adv-x="815" d="M348 721h67l137 -356l289 356h71l-336 -409l-66 -312h-62l66 312zM219 721h75l-117 -145h-55z" />
<glyph unicode="&#x38f;" horiz-adv-x="869" d="M543 55q119 66 180 171.5t61 241.5q0 102 -48 159.5t-143 57.5q-80 0 -139 -34t-98 -89t-58 -125t-19 -143q0 -74 30 -137t85 -102l-11 -55h-251l11 56h174q-19 17 -37.5 41.5t-33 55.5t-23 67t-8.5 75q0 84 25 164t73.5 142.5t120.5 100t165 37.5q54 0 100 -17.5 t79.5 -52t52 -85t18.5 -114.5q0 -80 -18 -143.5t-49 -114t-71 -89t-84 -67.5h179l-23 -56h-251zM219 721h75l-117 -145h-55z" />
<glyph unicode="&#x390;" horiz-adv-x="263" d="M150 520h59l-83 -390q-2 -11 -4 -22.5t-2 -22.5q0 -19 10 -33t40 -14q11 0 24.5 1t27.5 6l8 -46q-13 -5 -30 -8t-45 -3q-53 0 -74 23.5t-21 58.5q0 23 6 49.5t12 56.5zM219 743h75l-99 -147h-56zM55 629l16 78h62l-16 -78h-62zM288 629l16 78h61l-16 -78h-61z" />
<glyph unicode="&#x391;" horiz-adv-x="667" d="M410 721h73l132 -721h-64l-40 220h-339l-133 -220h-67zM206 277h295l-69 376z" />
<glyph unicode="&#x392;" horiz-adv-x="630" d="M637 565q0 -142 -155 -188q52 -20 81 -62t29 -93q0 -50 -17 -91.5t-54 -70.5t-94 -44.5t-137 -15.5h-248l153 721h233q64 0 105 -15t64 -38.5t31.5 -51t8.5 -51.5zM366 405q39 0 77 7t67 24.5t47 48t18 77.5q0 23 -7.5 42t-26 33t-48 22.5t-74.5 8.5h-175l-55 -263h177z M114 55h185q63 0 106 10t70 31t39 53t12 74q0 26 -9.5 49.5t-29 40.5t-50 26.5t-72.5 9.5h-188z" />
<glyph unicode="&#x393;" horiz-adv-x="523" d="M244 666l-140 -666h-62l153 721h428l-12 -55h-367z" />
<glyph unicode="&#x394;" horiz-adv-x="650" d="M404 721h67l126 -721h-624zM74 57h450l-99 594z" />
<glyph unicode="&#x395;" horiz-adv-x="593" d="M245 666l-56 -265h372l-13 -58h-371l-62 -286h413l-24 -57h-462l153 721h453l-11 -55h-392z" />
<glyph unicode="&#x396;" horiz-adv-x="590" d="M515 0h-517l10 50l562 616h-429l12 55h508l-12 -51l-559 -613h449z" />
<glyph unicode="&#x397;" horiz-adv-x="695" d="M511 0l73 344h-407l-73 -344h-62l153 721h62l-68 -319h407l68 319h61l-152 -721h-62z" />
<glyph unicode="&#x398;" horiz-adv-x="763" d="M245 402h364l-12 -58h-364zM471 739q59 0 111 -20t90.5 -58.5t60 -93.5t21.5 -126q0 -83 -25.5 -165t-75.5 -147.5t-122 -106t-166 -40.5q-60 0 -112 20t-90.5 58t-60 93t-21.5 126q0 83 26.5 165.5t76.5 148t122.5 106t164.5 40.5zM367 36q75 0 135.5 35t101.5 92 t63 129.5t22 146.5q0 54 -14 99t-42.5 77.5t-69.5 51t-94 18.5q-76 0 -136 -35.5t-101.5 -92t-63.5 -129t-22 -146.5q0 -54 14.5 -99.5t42.5 -77.5t69 -50.5t95 -18.5z" />
<glyph unicode="&#x399;" horiz-adv-x="227" d="M42 0l153 721h62l-153 -721h-62z" />
<glyph unicode="&#x39a;" horiz-adv-x="642" d="M333 409l-171 -138l-58 -271h-62l153 721h62l-79 -375l457 375h74l-325 -275l198 -446h-71z" />
<glyph unicode="&#x39b;" horiz-adv-x="649" d="M423 651l-384 -651h-67l430 721h67l128 -721h-64z" />
<glyph unicode="&#x39c;" horiz-adv-x="846" d="M352 0l-122 614l-130 -614h-58l153 721h77l124 -649l401 649h79l-153 -721h-57l131 617l-386 -617h-59z" />
<glyph unicode="&#x39d;" horiz-adv-x="696" d="M510 0l-275 628l-133 -628h-60l153 721h65l273 -626l134 626h59l-152 -721h-64z" />
<glyph unicode="&#x39e;" horiz-adv-x="544" d="M103 402h410l-12 -58h-410zM4 57h476l-24 -57h-463zM150 721h451l-11 -56h-451z" />
<glyph unicode="&#x39f;" horiz-adv-x="763" d="M471 739q59 0 111 -20t90.5 -58.5t60 -93.5t21.5 -126q0 -83 -25.5 -165t-75.5 -147.5t-122 -106t-166 -40.5q-60 0 -112 20t-90.5 58t-60 93t-21.5 126q0 83 26.5 165.5t76.5 148t122.5 106t164.5 40.5zM367 36q75 0 135.5 35t101.5 92t63 129.5t22 146.5q0 54 -14 99 t-42.5 77.5t-69.5 51t-94 18.5q-76 0 -136 -35.5t-101.5 -92t-63.5 -129t-22 -146.5q0 -54 14.5 -99.5t42.5 -77.5t69 -50.5t95 -18.5z" />
<glyph unicode="&#x3a0;" horiz-adv-x="684" d="M245 666l-140 -666h-62l153 721h519l-152 -721h-62l140 666h-396z" />
<glyph unicode="&#x3a1;" horiz-adv-x="625" d="M649 545q0 -66 -22.5 -114t-63.5 -79t-98.5 -45.5t-127.5 -14.5h-172l-62 -292h-61l153 721h229q65 0 108 -16t69 -41.5t37 -56.5t11 -62zM346 345q54 0 98.5 10t75.5 33t48.5 61.5t17.5 96.5q0 27 -9 49t-29.5 38t-53 25.5t-80.5 9.5h-170l-68 -323h170z" />
<glyph unicode="&#x3a3;" horiz-adv-x="573" d="M82 57h452l-24 -57h-517l10 50l318 318l-180 303l11 50h491l-11 -56h-422l180 -306z" />
<glyph unicode="&#x3a4;" horiz-adv-x="595" d="M429 665l-140 -665h-62l141 665h-251l12 56h562l-12 -56h-250z" />
<glyph unicode="&#x3a5;" horiz-adv-x="593" d="M127 721h67l137 -356l289 356h71l-336 -409l-66 -312h-62l66 312z" />
<glyph unicode="&#x3a6;" horiz-adv-x="816" d="M338 0l20 93q-56 5 -104.5 21.5t-84.5 46t-56.5 71.5t-20.5 97q0 82 30 144t82 104.5t123 66t154 26.5l17 81h62l-19 -83q56 -5 104.5 -22t85 -45.5t57 -70.5t20.5 -98q0 -83 -30 -145t-82 -104.5t-123 -65t-154 -25.5l-19 -92h-62zM743 434q0 46 -15.5 78.5t-44 55.5 t-67 35t-85.5 16l-101 -478q69 3 126.5 21.5t99 53.5t64.5 89.5t23 128.5zM157 327q0 -45 15.5 -78.5t43.5 -55.5t67 -35t86 -17l101 478q-69 -3 -126.5 -21t-99 -53.5t-64.5 -89.5t-23 -128z" />
<glyph unicode="&#x3a7;" horiz-adv-x="619" d="M383 375l183 -375h-71l-159 332l-292 -332h-70l336 384l-164 337h69l140 -299l265 299h70z" />
<glyph unicode="&#x3a8;" horiz-adv-x="824" d="M338 0l44 205q-55 3 -102 16t-81 39t-54 66t-20 95q0 22 2.5 47t8.5 52l43 201h60l-43 -203q-11 -50 -11 -87q0 -93 53 -132t154 -44l99 466h60l-99 -465q59 3 108 18t87.5 46.5t66 81.5t44.5 125l42 194h62l-42 -192q-18 -85 -49.5 -144.5t-78 -98.5t-109 -58.5 t-142.5 -23.5l-42 -204h-61z" />
<glyph unicode="&#x3a9;" horiz-adv-x="754" d="M428 55q119 66 180 171.5t61 241.5q0 102 -48 159.5t-143 57.5q-80 0 -139 -34t-98 -89t-58 -125t-19 -143q0 -74 30 -137t85 -102l-11 -55h-251l11 56h174q-19 17 -37.5 41.5t-33 55.5t-23 67t-8.5 75q0 84 25 164t73.5 142.5t120.5 100t165 37.5q54 0 100 -17.5 t79.5 -52t52 -85t18.5 -114.5q0 -80 -18 -143.5t-49 -114t-71 -89t-84 -67.5h179l-23 -56h-251z" />
<glyph unicode="&#x3aa;" horiz-adv-x="227" d="M42 0l153 721h62l-153 -721h-62zM117 803l19 88h67l-19 -88h-67zM282 803l19 88h69l-19 -88h-69z" />
<glyph unicode="&#x3ab;" horiz-adv-x="593" d="M127 721h67l137 -356l289 356h71l-336 -409l-66 -312h-62l66 312zM296 803l19 88h67l-19 -88h-67zM461 803l19 88h69l-19 -88h-69z" />
<glyph unicode="&#x3ac;" horiz-adv-x="669" d="M529 242l13 -112q7 -55 17.5 -74.5t33.5 -19.5q8 0 15.5 1t14.5 3l5 -46q-8 -2 -17 -4q-8 -2 -17 -3t-18 -1q-36 0 -55 23t-26 75l-13 96q-28 -44 -55 -80t-57 -62t-64 -40t-77 -14q-41 0 -73 14.5t-53.5 41t-32.5 62.5t-11 80q0 67 18 131.5t53 114t86 79t117 29.5 q83 0 129.5 -56t54.5 -160l101 200h60zM239 34q34 0 63.5 15.5t58 44t56 69t57.5 91.5q-4 58 -12.5 102t-25 73t-42.5 43t-66 14q-53 0 -92.5 -28t-65.5 -71.5t-38.5 -96.5t-12.5 -104q0 -74 31.5 -113t88.5 -39zM394 741h77l-120 -145h-57z" />
<glyph unicode="&#x3ad;" horiz-adv-x="522" d="M467 141q-7 -28 -20 -56t-38 -50.5t-66 -36.5t-105 -14q-48 0 -86 11t-63.5 30.5t-39 46.5t-13.5 58q0 61 35.5 96.5t93.5 49.5q-32 11 -52 40t-20 65q0 28 10.5 56t36 50t68 35.5t106.5 13.5q46 0 79.5 -10.5t56.5 -28.5t35 -42.5t16 -52.5l-52 -10q-4 19 -12.5 36.5 t-24 31t-40 21t-60.5 7.5q-32 0 -61 -5t-50.5 -17t-34 -31.5t-12.5 -49.5q0 -37 22 -63t79 -26h108l-8 -49h-105q-29 0 -56 -4.5t-49 -16.5t-35 -34t-13 -57q0 -47 37 -74t115 -27q42 0 69.5 7.5t46 21.5t29 34t17.5 44h56zM355 741h77l-120 -145h-57z" />
<glyph unicode="&#x3ae;" horiz-adv-x="565" d="M354 -196l112 518q3 14 5 28.5t2 28.5q0 47 -22 76t-76 29q-30 0 -64.5 -12t-67.5 -38q-32 -26 -55.5 -54t-33.5 -75l-65 -305h-59l110 520h59l-18 -85q50 55 102.5 78t100.5 23q73 0 110.5 -39t37.5 -109q0 -26 -6 -55l-114 -529h-58zM415 741h77l-120 -145h-57z" />
<glyph unicode="&#x3af;" horiz-adv-x="263" d="M150 520h59l-83 -390q-2 -11 -4 -22.5t-2 -22.5q0 -19 10 -33t40 -14q11 0 24.5 1t27.5 6l8 -46q-13 -5 -30 -8t-45 -3q-53 0 -74 23.5t-21 58.5q0 23 6 49.5t12 56.5zM236 741h77l-120 -145h-57z" />
<glyph unicode="&#x3b0;" horiz-adv-x="550" d="M133 520h59l-64 -301q-5 -21 -8 -43.5t-3 -39.5q0 -50 32.5 -76t88.5 -26q44 0 74 11.5t51.5 34t35.5 57.5t24 82l64 301h58l-63 -301q-14 -63 -34 -108t-48.5 -73.5t-67.5 -41t-90 -12.5q-39 0 -72.5 8.5t-58 26.5t-38 45.5t-13.5 65.5q0 19 2.5 41.5t7.5 47.5zM378 743 h75l-99 -147h-56zM214 629l16 78h62l-16 -78h-62zM447 629l16 78h61l-16 -78h-61z" />
<glyph unicode="&#x3b1;" horiz-adv-x="669" d="M529 242l13 -112q7 -55 17.5 -74.5t33.5 -19.5q8 0 15.5 1t14.5 3l5 -46q-8 -2 -17 -4q-8 -2 -17 -3t-18 -1q-36 0 -55 23t-26 75l-13 96q-28 -44 -55 -80t-57 -62t-64 -40t-77 -14q-41 0 -73 14.5t-53.5 41t-32.5 62.5t-11 80q0 67 18 131.5t53 114t86 79t117 29.5 q83 0 129.5 -56t54.5 -160l101 200h60zM239 34q34 0 63.5 15.5t58 44t56 69t57.5 91.5q-4 58 -12.5 102t-25 73t-42.5 43t-66 14q-53 0 -92.5 -28t-65.5 -71.5t-38.5 -96.5t-12.5 -104q0 -74 31.5 -113t88.5 -39z" />
<glyph unicode="&#x3b2;" horiz-adv-x="574" d="M535 224q0 -51 -16 -94t-46.5 -74.5t-74.5 -49t-102 -17.5q-59 0 -109 25t-78 75l-61 -285h-58l152 716q24 107 82.5 158t162.5 51q34 0 65.5 -10t55 -29.5t38 -48.5t14.5 -65q0 -72 -41 -117t-104 -67q27 -8 49.5 -25t38 -39t24 -49t8.5 -55zM474 223q0 64 -38.5 101 t-110.5 37h-57l11 50h41q31 0 63 9.5t58 29.5t42 50.5t16 72.5q0 50 -33.5 78t-87.5 28q-42 0 -71.5 -11.5t-50.5 -31.5t-34 -49t-21 -66l-66 -304q-2 -10 -3 -20.5t-1 -20.5q0 -55 44 -94q17 -16 48 -29.5t76 -13.5q90 0 132.5 47.5t42.5 136.5z" />
<glyph unicode="&#x3b3;" horiz-adv-x="503" d="M137 -195l44 206l-111 509h65l87 -443l270 443h70l-323 -509l-43 -206h-59z" />
<glyph unicode="&#x3b4;" horiz-adv-x="574" d="M275 -16q-46 0 -85.5 15t-67.5 42.5t-44 65t-16 82.5q0 60 19.5 108.5t52.5 85.5t75 62t88 36q-18 12 -34.5 24.5t-28.5 26.5t-19 31.5t-7 37.5q0 34 15 59t41 40t60 22t70 7q42 0 73 -10.5t50.5 -28t31 -41.5t14.5 -49l-51 -10q-9 46 -38.5 69t-83.5 23q-36 0 -61 -6.5 t-39.5 -17.5t-20.5 -25t-6 -29q0 -21 11.5 -37.5t31 -31.5t45 -30t52.5 -34q27 -20 51.5 -41.5t42.5 -48.5t28.5 -60.5t10.5 -75.5q0 -55 -19.5 -103t-55 -83t-83.5 -55t-103 -20zM278 34q42 0 78 14.5t62 42t41 68t15 93.5q0 42 -12.5 72.5t-32 52.5t-43.5 39t-50 33 q-45 -9 -84 -30.5t-67 -55t-44.5 -77t-16.5 -94.5q0 -34 10.5 -63t30.5 -50t48.5 -33t64.5 -12z" />
<glyph unicode="&#x3b5;" horiz-adv-x="522" d="M467 141q-7 -28 -20 -56t-38 -50.5t-66 -36.5t-105 -14q-48 0 -86 11t-63.5 30.5t-39 46.5t-13.5 58q0 61 35.5 96.5t93.5 49.5q-32 11 -52 40t-20 65q0 28 10.5 56t36 50t68 35.5t106.5 13.5q46 0 79.5 -10.5t56.5 -28.5t35 -42.5t16 -52.5l-52 -10q-4 19 -12.5 36.5 t-24 31t-40 21t-60.5 7.5q-32 0 -61 -5t-50.5 -17t-34 -31.5t-12.5 -49.5q0 -37 22 -63t79 -26h108l-8 -49h-105q-29 0 -56 -4.5t-49 -16.5t-35 -34t-13 -57q0 -47 37 -74t115 -27q42 0 69.5 7.5t46 21.5t29 34t17.5 44h56z" />
<glyph unicode="&#x3b6;" horiz-adv-x="458" d="M554 672q-43 -27 -92 -57t-97 -65t-92 -75t-77 -85t-53.5 -95t-20.5 -105q0 -56 28 -87t89 -51l56 -19q21 -7 42.5 -15.5t38.5 -21t27.5 -31.5t10.5 -46q0 -44 -19 -75t-49 -52l-35 31q19 15 33 37.5t14 49.5q0 22 -17 39.5t-69 33.5l-53 16q-159 49 -159 185 q0 86 38.5 158t99 132.5t132 109t137.5 87.5h-277l10 50h365z" />
<glyph unicode="&#x3b7;" horiz-adv-x="565" d="M354 -196l112 518q3 14 5 28.5t2 28.5q0 47 -22 76t-76 29q-30 0 -64.5 -12t-67.5 -38q-32 -26 -55.5 -54t-33.5 -75l-65 -305h-59l110 520h59l-18 -85q50 55 102.5 78t100.5 23q73 0 110.5 -39t37.5 -109q0 -26 -6 -55l-114 -529h-58z" />
<glyph unicode="&#x3b8;" horiz-adv-x="594" d="M401 729q90 0 140 -59.5t50 -182.5q0 -53 -7 -111t-23.5 -114t-42 -106.5t-62.5 -89.5t-86 -61.5t-110 -22.5q-90 0 -140 62.5t-50 178.5q0 51 8 108.5t24.5 113.5t43 107.5t63 91t84.5 62.5t108 23zM265 32q52 0 94 22t73 61.5t52 95t33 123.5h-379q-4 -27 -6 -54.5 t-2 -53.5q0 -95 32 -144.5t103 -49.5zM396 679q-50 0 -90.5 -23t-72 -62.5t-53 -93.5t-34.5 -115h378q3 25 5.5 49.5t2.5 49.5q0 100 -31.5 147.5t-104.5 47.5z" />
<glyph unicode="&#x3b9;" horiz-adv-x="263" d="M150 520h59l-83 -390q-2 -11 -4 -22.5t-2 -22.5q0 -19 10 -33t40 -14q11 0 24.5 1t27.5 6l8 -46q-13 -5 -30 -8t-45 -3q-53 0 -74 23.5t-21 58.5q0 23 6 49.5t12 56.5z" />
<glyph unicode="&#x3ba;" horiz-adv-x="497" d="M30 0l110 520h59l-57 -265l321 265h75l-223 -190l137 -330h-66l-119 297l-140 -114l-38 -183h-59z" />
<glyph unicode="&#x3bb;" horiz-adv-x="502" d="M467 0h-65l-78 463l-284 -463h-66l334 534l-10 60q-8 48 -24 67t-48 19q-27 0 -58 -10l-8 47q42 14 78 14q45 0 72 -25t39 -92z" />
<glyph unicode="&#x3bc;" horiz-adv-x="552" d="M195 520l-70 -327q-2 -12 -3.5 -25t-1.5 -28q0 -20 4 -38.5t14.5 -32.5t29 -23.5t45.5 -9.5q29 0 61.5 12t63.5 38q32 26 55 54t33 75l65 305h58l-110 -520h-58l18 85q-49 -55 -98.5 -78t-96.5 -23q-43 0 -70 13t-42 39l-50 -232h-58l152 716h59z" />
<glyph unicode="&#x3bd;" horiz-adv-x="500" d="M238 0h-68l-100 520h64l81 -456l277 456h67z" />
<glyph unicode="&#x3be;" horiz-adv-x="487" d="M317 32q19 -5 39.5 -13.5t36.5 -22t26 -32.5t10 -45q0 -44 -19 -75t-48 -52l-36 31q19 15 33 37.5t14 49.5q0 22 -17 40t-69 33l-86 24q-31 9 -58.5 24t-48 38t-32.5 53.5t-12 68.5q0 49 14 85.5t36.5 62t53.5 40.5t66 23q-83 37 -83 142q0 37 13.5 71.5t40.5 62.5 t69 44.5t100 16.5q48 0 83 -11.5t58 -31t35.5 -45.5t16.5 -55l-52 -11q-5 22 -13 41t-24.5 33t-41.5 22t-64 8q-27 0 -55 -6.5t-51.5 -22.5t-38.5 -43t-15 -69q0 -59 29 -94t89 -35h107l-10 -48h-99q-45 0 -82.5 -10t-64.5 -30.5t-41.5 -53t-14.5 -78.5q0 -32 8 -55.5 t24 -40t38.5 -27.5t52.5 -20z" />
<glyph unicode="&#x3bf;" horiz-adv-x="594" d="M270 34q52 0 94.5 22t73 60t46.5 89.5t16 109.5q0 76 -37 123.5t-111 47.5q-52 0 -94.5 -22t-72.5 -59.5t-46.5 -89t-16.5 -110.5q0 -76 37 -123.5t111 -47.5zM265 -16q-46 0 -83.5 15.5t-64.5 44t-42 68.5t-15 88q0 78 23.5 140t64 106t94.5 67t116 23q45 0 82.5 -15.5 t64.5 -44t42.5 -68t15.5 -88.5q0 -78 -23 -140t-63 -106t-94.5 -67t-117.5 -23z" />
<glyph unicode="&#x3c0;" horiz-adv-x="585" d="M444 470h-214l-99 -470h-58l99 470h-109l11 50h540l-11 -50h-100l-70 -330q-4 -17 -6.5 -33.5t-2.5 -24.5q0 -16 6 -30t31 -14q20 0 41 6l9 -45q-11 -5 -29.5 -8t-36.5 -3q-42 0 -60.5 21.5t-18.5 62.5q0 6 0.5 13t2.5 19.5t6 32t10 49.5z" />
<glyph unicode="&#x3c1;" horiz-adv-x="588" d="M88 272q30 140 96 202t164 62q46 0 84.5 -15.5t66 -44t43 -67.5t15.5 -87q0 -71 -19 -132.5t-55 -107.5t-89 -72t-121 -26q-55 0 -98.5 23.5t-69.5 68.5l-59 -272h-58zM275 34q52 0 93 21.5t69 59.5t42.5 90t14.5 113q0 34 -9 65t-27.5 54t-46 36t-66.5 13 q-50 0 -84.5 -18.5t-57 -49t-36.5 -71t-24 -83.5l-9 -45q-4 -17 -5.5 -31t-1.5 -22q0 -30 11.5 -52t30.5 -39q17 -16 42.5 -28.5t63.5 -12.5z" />
<glyph unicode="&#x3c2;" horiz-adv-x="528" d="M203 7q-26 7 -51.5 21.5t-45.5 38t-32.5 57t-12.5 77.5q0 80 22.5 142t60.5 105t88 65.5t105 22.5q48 0 82.5 -14t58 -38t35.5 -55.5t15 -64.5l-55 -12q-3 25 -11 48.5t-23.5 42.5t-40 31t-62.5 12q-48 0 -87.5 -21t-67 -57t-43 -87t-15.5 -112q0 -36 8 -62.5t22.5 -44 t35 -28.5t45.5 -18l81 -24q19 -5 39.5 -13.5t36.5 -22t26 -32.5t10 -45q0 -44 -19 -75t-48 -52l-36 31q19 15 33 37.5t14 49.5q0 22 -17 40t-69 33z" />
<glyph unicode="&#x3c3;" horiz-adv-x="595" d="M604 470h-132q29 -32 47.5 -78t18.5 -98q0 -72 -20.5 -129.5t-57.5 -97.5t-87.5 -61.5t-109.5 -21.5q-44 0 -81 15t-64 43.5t-42.5 68t-15.5 89.5q0 84 27.5 144.5t72 99.5t100 57.5t111.5 18.5h244zM268 34q49 0 88 19.5t65.5 53t41 80t14.5 101.5q0 46 -14 95t-49 88 h-31q-56 0 -104 -16.5t-82.5 -49t-54.5 -82.5t-20 -118q0 -78 38 -124.5t108 -46.5z" />
<glyph unicode="&#x3c4;" horiz-adv-x="486" d="M291 470l-71 -330q-2 -8 -3 -16t-1 -15q0 -39 21.5 -56t64.5 -17q26 0 48.5 5.5t39.5 11.5l12 -48q-17 -8 -45.5 -13.5t-61.5 -5.5q-73 0 -105 29.5t-32 83.5q0 21 6 48.5t11 53.5l57 269h-172l10 50h442l-10 -50h-211z" />
<glyph unicode="&#x3c5;" horiz-adv-x="550" d="M133 520h59l-64 -301q-5 -21 -8 -43.5t-3 -39.5q0 -50 32.5 -76t88.5 -26q44 0 74 11.5t51.5 34t35.5 57.5t24 82l64 301h58l-63 -301q-14 -63 -34 -108t-48.5 -73.5t-67.5 -41t-90 -12.5q-39 0 -72.5 8.5t-58 26.5t-38 45.5t-13.5 65.5q0 19 2.5 41.5t7.5 47.5z" />
<glyph unicode="&#x3c6;" horiz-adv-x="745" d="M263 -196l38 183q-74 4 -129 36.5t-84 85t-29 117.5q0 96 47 166.5t130.5 107t193.5 36.5q85 0 148 -32t97.5 -88.5t34.5 -127.5q0 -91 -45.5 -159t-125 -105.5t-181.5 -38.5l-39 -181h-56zM121 229q0 -56 25 -100t68 -69t97 -26l95 453q-136 -4 -210.5 -71.5 t-74.5 -186.5zM647 284q0 57 -24.5 102.5t-66 71.5t-93.5 28l-95 -454q131 6 205 73t74 179z" />
<glyph unicode="&#x3c7;" horiz-adv-x="497" d="M347 -66q15 -51 28 -71t36 -20q20 0 41 9l11 -46q-11 -5 -27.5 -9t-33.5 -4q-26 0 -43 8t-29 24t-20.5 41t-17.5 57l-57 208l-245 -327h-65l288 385l-61 222q-12 38 -25 56t-36 18q-16 0 -38 -8l-11 45q17 7 31 10t33 3q46 0 67 -31.5t36 -90.5l47 -181l215 288h66 l-259 -347z" />
<glyph unicode="&#x3c8;" horiz-adv-x="773" d="M327 -196h-56l38 184q-48 4 -90.5 18t-74.5 39.5t-50 63.5t-18 92q0 22 2.5 47t8.5 52l46 220h59l-47 -220q-11 -51 -11 -87q0 -46 13.5 -77.5t37.5 -52t58.5 -31.5t75.5 -15l103 483h57l-103 -485q55 4 101.5 20.5t83 48t62.5 82t42 123.5l44 211h59l-45 -211 q-17 -82 -46.5 -140.5t-72.5 -97.5t-102.5 -59.5t-135.5 -25.5z" />
<glyph unicode="&#x3c9;" horiz-adv-x="799" d="M381 99q-11 -21 -26.5 -42t-37 -37t-50.5 -26t-66 -10q-32 0 -59.5 10t-47.5 30.5t-32 52.5t-12 76q0 53 13 104t35 98.5t52 90.5t64 81l46 -25q-70 -84 -111 -169t-41 -178q0 -121 101 -121q38 0 65.5 15.5t46.5 39.5t31 55.5t20 63.5l32 150h57l-30 -137q-5 -20 -6 -41 t-1 -39q0 -47 28 -77t73 -30q54 0 88.5 30.5t55.5 76t29 97t8 93.5q0 58 -12 100.5t-26 70.5l47 25q15 -28 31.5 -80t16.5 -119q0 -55 -12.5 -115.5t-40.5 -112t-73 -84t-110 -32.5q-36 0 -62 10t-43.5 26t-27 37t-13.5 42z" />
<glyph unicode="&#x3ca;" horiz-adv-x="263" d="M150 520h59l-83 -390q-2 -11 -4 -22.5t-2 -22.5q0 -19 10 -33t40 -14q11 0 24.5 1t27.5 6l8 -46q-13 -5 -30 -8t-45 -3q-53 0 -74 23.5t-21 58.5q0 23 6 49.5t12 56.5zM83 625l18 86h65l-18 -86h-65zM244 625l18 86h67l-18 -86h-67z" />
<glyph unicode="&#x3cb;" horiz-adv-x="550" d="M133 520h59l-64 -301q-5 -21 -8 -43.5t-3 -39.5q0 -50 32.5 -76t88.5 -26q44 0 74 11.5t51.5 34t35.5 57.5t24 82l64 301h58l-63 -301q-14 -63 -34 -108t-48.5 -73.5t-67.5 -41t-90 -12.5q-39 0 -72.5 8.5t-58 26.5t-38 45.5t-13.5 65.5q0 19 2.5 41.5t7.5 47.5zM250 625 l18 86h65l-18 -86h-65zM411 625l18 86h67l-18 -86h-67z" />
<glyph unicode="&#x3cc;" horiz-adv-x="594" d="M270 34q52 0 94.5 22t73 60t46.5 89.5t16 109.5q0 76 -37 123.5t-111 47.5q-52 0 -94.5 -22t-72.5 -59.5t-46.5 -89t-16.5 -110.5q0 -76 37 -123.5t111 -47.5zM265 -16q-46 0 -83.5 15.5t-64.5 44t-42 68.5t-15 88q0 78 23.5 140t64 106t94.5 67t116 23q45 0 82.5 -15.5 t64.5 -44t42.5 -68t15.5 -88.5q0 -78 -23 -140t-63 -106t-94.5 -67t-117.5 -23zM420 741h77l-120 -145h-57z" />
<glyph unicode="&#x3cd;" horiz-adv-x="550" d="M133 520h59l-64 -301q-5 -21 -8 -43.5t-3 -39.5q0 -50 32.5 -76t88.5 -26q44 0 74 11.5t51.5 34t35.5 57.5t24 82l64 301h58l-63 -301q-14 -63 -34 -108t-48.5 -73.5t-67.5 -41t-90 -12.5q-39 0 -72.5 8.5t-58 26.5t-38 45.5t-13.5 65.5q0 19 2.5 41.5t7.5 47.5zM406 741 h77l-120 -145h-57z" />
<glyph unicode="&#x3ce;" horiz-adv-x="799" d="M381 99q-11 -21 -26.5 -42t-37 -37t-50.5 -26t-66 -10q-32 0 -59.5 10t-47.5 30.5t-32 52.5t-12 76q0 53 13 104t35 98.5t52 90.5t64 81l46 -25q-70 -84 -111 -169t-41 -178q0 -121 101 -121q38 0 65.5 15.5t46.5 39.5t31 55.5t20 63.5l32 150h57l-30 -137q-5 -20 -6 -41 t-1 -39q0 -47 28 -77t73 -30q54 0 88.5 30.5t55.5 76t29 97t8 93.5q0 58 -12 100.5t-26 70.5l47 25q15 -28 31.5 -80t16.5 -119q0 -55 -12.5 -115.5t-40.5 -112t-73 -84t-110 -32.5q-36 0 -62 10t-43.5 26t-27 37t-13.5 42zM518 741h77l-120 -145h-57z" />
<glyph unicode="&#x3d1;" d="M638 395h-75q-2 -11 -4 -22.5t-5 -24.5q-27 -134 -64 -214t-88 -116t-122 -36q-81 0 -128 45t-47 125q0 25 4 48l8 48q1 4 1 9v9q0 39 -36 39q-19 0 -41 -6l-9 45q25 12 65 12q80 0 80 -82q0 -15 -3 -34l-6 -40q-4 -23 -4 -47q0 -121 120 -121q52 0 90 30t65 92.5 t56 199.5q5 25 8 41h-64q-123 0 -190 40t-67 115q0 52 23.5 92t68 63.5t99.5 23.5q97 0 148 -59t51 -173q0 -24 -3 -52h79zM240 552q0 -55 47.5 -81t160.5 -26h62q3 28 3 52q0 89 -36 135.5t-104 46.5q-62 0 -97.5 -33t-35.5 -94z" />
<glyph unicode="&#x3d2;" horiz-adv-x="644" d="M524 630q42 56 76.5 78.5t80.5 22.5q27 0 46.5 -8t39.5 -26l-33 -44q-16 15 -28 20t-30 5q-24 0 -39.5 -7t-31 -23.5t-40.5 -51.5l-210 -284l-66 -312h-62l66 312l-166 409h67l137 -355z" />
<glyph unicode="&#x3d5;" horiz-adv-x="729" d="M285 -15q-100 11 -161 72t-61 155q0 186 179 315l33 -39q-77 -60 -114.5 -125.5t-37.5 -141.5q0 -83 45 -131.5t127 -54.5l71 328q18 84 65.5 128.5t117.5 44.5q72 0 112.5 -50t40.5 -139q0 -105 -43 -185.5t-125 -127.5t-193 -51l-38 -179h-57zM352 35q115 7 186 65 t94 164q11 50 11 88q0 64 -25.5 99t-72.5 35q-49 0 -79.5 -31.5t-44.5 -95.5z" />
<glyph unicode="&#x3d6;" horiz-adv-x="792" d="M216 -16q-69 0 -107.5 42.5t-38.5 117.5q0 158 138 326h-139l10 50h772l-10 -50h-125q38 -83 38 -172q0 -81 -27 -155t-76 -116.5t-118 -42.5q-59 0 -95.5 29.5t-46.5 85.5q-58 -115 -175 -115zM225 34q62 0 101 45.5t59 142.5l26 125h55l-26 -120q-8 -38 -8 -86 t27.5 -77.5t70.5 -29.5q51 0 87.5 34t58.5 99t22 137q0 95 -34 166h-398q-73 -91 -106 -168.5t-33 -153.5q0 -114 98 -114z" />
<glyph unicode="&#x3d7;" horiz-adv-x="536" d="M30 0l110 520h59l-57 -265l321 265h75l-223 -190l82 -258q6 -17 18.5 -25.5t33.5 -8.5q9 0 17 0.5t16 1.5l-13 -58q-13 -59 -26.5 -88.5t-31 -47.5t-40.5 -26t-51 -8q-23 0 -42.5 4t-43.5 14l20 46q30 -14 66 -14q35 0 56 22.5t32 72.5l8 34q-29 3 -47.5 20t-30.5 55 l-72 231l-139 -114l-38 -183h-59z" />
<glyph unicode="&#x3da;" horiz-adv-x="700" d="M345 0h-65l98 154q-123 5 -194.5 75.5t-71.5 187.5q0 63 23.5 120t67 102.5t105.5 72.5t134 27q121 0 190.5 -59t86.5 -174l-61 -12q-17 98 -69.5 145t-146.5 47q-69 0 -130 -33.5t-97 -93.5t-36 -140q0 -99 56.5 -155t159.5 -56h63l-11 -46z" />
<glyph unicode="&#x3db;" horiz-adv-x="505" d="M339 484q-96 0 -153 -75t-57 -200q0 -64 23.5 -100t76.5 -53l73 -24q101 -30 101 -113q0 -79 -68 -127l-35 31q46 38 46 87q0 26 -18 43t-59 30l-74 24q-62 20 -95 70t-33 124q0 98 33 173t95 118.5t141 43.5h52q46 0 71 11.5t41 38.5l44 -24q-20 -42 -53 -60t-94 -18 h-58z" />
<glyph unicode="&#x3dc;" horiz-adv-x="558" d="M245 666l-58 -274h348l-12 -58h-348l-71 -334h-62l153 721h433l-11 -55h-372z" />
<glyph unicode="&#x3dd;" horiz-adv-x="421" d="M92 309q24 115 84.5 171t161.5 56q69 0 134 -32l-22 -47q-59 28 -119 28q-72 0 -116 -42.5t-63 -130.5l-23 -106h255l-11 -48h-255l-75 -354h-58z" />
<glyph unicode="&#x3de;" horiz-adv-x="545" d="M248 721h66l-169 -326h423l-191 -395h-66l162 337h-423z" />
<glyph unicode="&#x3df;" horiz-adv-x="488" d="M278 721h63l-220 -425h370l-241 -492h-63l213 439h-370z" />
<glyph unicode="&#x3e0;" horiz-adv-x="628" d="M150 354l-27 46l363 219q-30 31 -71.5 47t-91.5 16q-86 0 -182 -51l-22 49q102 56 203 56q83 0 147.5 -34.5t101.5 -100t37 -154.5q0 -111 -54.5 -228t-152.5 -219h-70q101 113 151.5 203.5t62.5 178.5l-304 -184l-27 46l335 202q-1 76 -31 130z" />
<glyph unicode="&#x3e1;" horiz-adv-x="561" d="M494 429q0 20 -4 55l-345 -133l-20 53l353 136q-22 69 -74 105.5t-124 36.5q-70 0 -146 -26l-12 53q79 26 155 26q130 0 202.5 -79t72.5 -222q0 -126 -62 -289t-177 -341h-64q75 115 130 229t85 214l-244 -93l-20 52l281 108q13 68 13 115z" />
<glyph unicode="&#x400;" horiz-adv-x="593" d="M245 666l-56 -265h372l-13 -58h-371l-62 -286h413l-24 -57h-462l153 721h453l-11 -55h-392zM443 782l-105 130h76l89 -130h-60z" />
<glyph unicode="&#x401;" horiz-adv-x="593" d="M245 666l-56 -265h372l-13 -58h-371l-62 -286h413l-24 -57h-462l153 721h453l-11 -55h-392zM315 803l19 88h67l-19 -88h-67zM480 803l19 88h69l-19 -88h-69z" />
<glyph unicode="&#x402;" horiz-adv-x="765" d="M377 667l-59 -256q46 15 96 23.5t95 8.5t86 -10.5t72 -32.5t49 -57.5t18 -84.5q0 -134 -87.5 -196t-248.5 -62h-46l12 55h56q56 1 102 10.5t79 32t52 60t19 92.5q0 40 -13.5 66.5t-36.5 43t-56.5 23.5t-73.5 7q-43 0 -93.5 -8t-92.5 -24l-81 -358h-61l150 667h-202l11 54 h519l-11 -54h-254z" />
<glyph unicode="&#x403;" horiz-adv-x="523" d="M244 666l-140 -666h-62l153 721h428l-12 -55h-367zM332 782l134 130h82l-152 -130h-64z" />
<glyph unicode="&#x404;" horiz-adv-x="723" d="M507 343h-362q-3 -30 -3 -59q0 -52 15 -97t43 -78.5t69.5 -53t95.5 -19.5q52 0 91 11.5t66.5 33t47 54t31.5 74.5h61q-15 -54 -38.5 -96t-60 -71.5t-86.5 -44.5t-116 -15q-60 0 -111.5 20t-89.5 58t-59 93t-21 125q0 92 25.5 175.5t75 147.5t120.5 101t162 37 q107 0 169 -54.5t76 -155.5l-60 -12q-13 86 -58 127.5t-132 41.5q-60 0 -109.5 -22t-88.5 -60t-65.5 -91t-38.5 -116h362z" />
<glyph unicode="&#x405;" horiz-adv-x="648" d="M580 208q0 -55 -21 -97t-56.5 -71t-84 -43.5t-105.5 -14.5q-47 0 -94 8t-85 30.5t-63 63t-27 105.5h61q4 -41 18 -69.5t39.5 -47t63.5 -27.5t91 -9t90 13.5t60.5 36.5t34.5 54.5t11 68.5q0 18 -4 37t-15.5 35t-33 28.5t-54.5 19.5l-104 22q-78 18 -123.5 59t-45.5 117 q0 53 18.5 93t52.5 66.5t82.5 39.5t108.5 13q62 0 106 -15.5t73.5 -41.5t45 -59.5t20.5 -70.5l-57 -12q-11 71 -54.5 108.5t-138.5 37.5q-57 0 -94.5 -12t-60 -33t-31.5 -47.5t-9 -56.5q0 -24 5.5 -43.5t19 -36t37.5 -28t60 -19.5l100 -21q46 -9 77 -26.5t50 -41t27.5 -52.5 t8.5 -61z" />
<glyph unicode="&#x406;" horiz-adv-x="227" d="M42 0l153 721h62l-153 -721h-62z" />
<glyph unicode="&#x407;" horiz-adv-x="227" d="M42 0l153 721h62l-153 -721h-62zM117 803l19 88h67l-19 -88h-67zM282 803l19 88h69l-19 -88h-69z" />
<glyph unicode="&#x408;" horiz-adv-x="581" d="M511 226q-26 -126 -91.5 -185t-179.5 -59q-47 0 -86 11.5t-66.5 36t-43.5 60t-16 84.5v12t1 13h59v-13q0 -31 6.5 -58.5t24 -47.5t47.5 -32t76 -12q96 0 143 52.5t67 149.5l102 483h62z" />
<glyph unicode="&#x409;" horiz-adv-x="1067" d="M650 386l-69 -332h160q121 0 176.5 44t55.5 149q0 73 -45 106t-128 33h-150zM722 721l-59 -282h119q58 0 105 -9t80 -31t50.5 -59.5t17.5 -93.5q0 -118 -72 -182t-231 -64h-224l140 667h-237l-93 -297q-36 -115 -73 -188t-76.5 -114.5t-83 -57t-91.5 -15.5h-13l11 57h13 q34 0 66.5 14t65 53.5t64.5 109.5t68 181l97 311h356z" />
<glyph unicode="&#x40a;" horiz-adv-x="1035" d="M684 721l-65 -308h126q59 0 106 -10.5t80.5 -32t51 -54t17.5 -78.5q0 -56 -17 -100t-53.5 -75t-93 -47t-135.5 -16h-231l74 358h-357l-75 -358h-62l153 721h62l-66 -308h358l65 308h62zM607 360l-65 -306h168q120 0 173.5 43t53.5 142q0 55 -42.5 88t-124.5 33h-163z" />
<glyph unicode="&#x40b;" horiz-adv-x="705" d="M358 668l-59 -277q45 16 88 24t90 8q85 0 138 -40t53 -121q0 -15 -2 -33t-5 -33l-41 -196h-60l36 176q4 19 6.5 41t2.5 39q0 59 -35 87.5t-119 28.5q-38 0 -79.5 -8t-83.5 -25l-72 -339h-61l141 668h-184l11 53h505l-11 -53h-259z" />
<glyph unicode="&#x40c;" horiz-adv-x="624" d="M232 404q61 0 104.5 31t84.5 90l63 91q21 30 40 50.5t40 32.5t42.5 17t46.5 5q9 0 17 -1t15 -2q7 -2 14 -3l-17 -52l-10 2t-11 1.5t-14 0.5q-16 0 -29 -2.5t-26 -11t-27.5 -23.5t-32.5 -41l-65 -95q-29 -42 -56.5 -69t-72.5 -44q24 -8 42 -28t37 -61l133 -292h-65 l-109 247q-12 29 -25.5 48t-28.5 30t-34.5 16t-46.5 5h-63l-74 -346h-62l153 721h62l-68 -317h43zM372 782l134 130h82l-152 -130h-64z" />
<glyph unicode="&#x40d;" horiz-adv-x="682" d="M499 0l132 618l-527 -618h-62l154 721h61l-134 -615l526 615h63l-153 -721h-60zM444 782l-105 130h76l89 -130h-60z" />
<glyph unicode="&#x40e;" horiz-adv-x="576" d="M36 54q21 -10 37.5 -14.5t39.5 -4.5q33 0 57 17t51 59l54 82l-148 528h66l121 -470l292 470h69l-357 -564q-31 -50 -55.5 -83.5t-47.5 -54t-47.5 -29t-55.5 -8.5q-48 0 -96 22zM411 796q-65 0 -97.5 27.5t-32.5 76.5q0 11 3 28h48q-2 -9 -2 -13v-9q0 -14 4 -26 t13.5 -21.5t25.5 -14.5t42 -5q42 0 72 21.5t44 67.5h48q-16 -66 -59 -99t-109 -33z" />
<glyph unicode="&#x40f;" horiz-adv-x="678" d="M116 56h390l140 665h62l-152 -721h-220l-35 -175h-59l36 175h-236l153 721h62z" />
<glyph unicode="&#x410;" horiz-adv-x="667" d="M410 721h73l132 -721h-64l-40 220h-339l-133 -220h-67zM206 277h295l-69 376z" />
<glyph unicode="&#x411;" horiz-adv-x="627" d="M244 665l-49 -236h144q59 0 106 -9t80.5 -30t51 -56.5t17.5 -87.5q0 -118 -72 -182t-230 -64h-250l153 721h421l-12 -56h-360zM183 376l-68 -322h186q120 0 175 44t55 149q0 61 -41 95t-123 34h-184z" />
<glyph unicode="&#x412;" horiz-adv-x="630" d="M637 565q0 -142 -155 -188q52 -20 81 -62t29 -93q0 -50 -17 -91.5t-54 -70.5t-94 -44.5t-137 -15.5h-248l153 721h233q64 0 105 -15t64 -38.5t31.5 -51t8.5 -51.5zM366 405q39 0 77 7t67 24.5t47 48t18 77.5q0 23 -7.5 42t-26 33t-48 22.5t-74.5 8.5h-175l-55 -263h177z M114 55h185q63 0 106 10t70 31t39 53t12 74q0 26 -9.5 49.5t-29 40.5t-50 26.5t-72.5 9.5h-188z" />
<glyph unicode="&#x413;" horiz-adv-x="523" d="M244 666l-140 -666h-62l153 721h428l-12 -55h-367z" />
<glyph unicode="&#x414;" horiz-adv-x="696" d="M21 0l-40 -175h-59l53 231h53q40 30 73.5 73t65 104.5t63 145.5t66.5 198l44 144h382l-142 -665h63l-49 -231h-59l38 175h-552zM385 667l-38 -121q-31 -102 -59 -179t-56.5 -136t-59 -101.5t-64.5 -73.5h410l131 611h-264z" />
<glyph unicode="&#x415;" horiz-adv-x="593" d="M245 666l-56 -265h372l-13 -58h-371l-62 -286h413l-24 -57h-462l153 721h453l-11 -55h-392z" />
<glyph unicode="&#x416;" horiz-adv-x="981" d="M569 404h36q54 0 98 30.5t85 90.5l60 91q41 62 80.5 83.5t89.5 21.5q8 0 16 -1t15 -2q7 -2 15 -3l-18 -52l-10 2t-10.5 1.5t-13.5 0.5q-16 0 -29 -2.5t-27 -11t-28 -23.5t-31 -41l-64 -95q-28 -42 -56 -69t-72 -44q23 -8 41.5 -28t37.5 -61l131 -292h-69l-107 247 q-12 29 -23.5 48t-26 30t-33 16t-44.5 5h-54l-74 -346h-62l73 346h-63q-25 0 -43.5 -4t-36.5 -15t-36 -30t-43 -50l-206 -247h-77l243 291q36 43 62.5 63.5t61.5 28.5q-30 14 -46 41t-27 69l-25 104q-12 42 -28 57.5t-45 15.5q-13 0 -23.5 -1t-26.5 -3l6 49q7 1 16 3 q7 1 15.5 2t16.5 1q25 0 44.5 -4.5t33 -15t23 -30t16.5 -47.5l25 -99q16 -62 45 -91.5t86 -29.5h45l67 317h61z" />
<glyph unicode="&#x417;" horiz-adv-x="609" d="M354 404q43 0 79 9t61 29t38.5 51t13.5 76q0 52 -36.5 84t-103.5 32q-45 0 -78.5 -7t-58 -22.5t-41.5 -39.5t-30 -58l-57 10q13 36 33 67.5t51 54.5t75 36t106 13q48 0 85.5 -13t63.5 -35.5t39 -53.5t13 -65q0 -45 -11.5 -77.5t-32 -56.5t-47.5 -39.5t-57 -24.5 q52 -27 71 -67.5t19 -81.5q0 -121 -70.5 -182.5t-192.5 -61.5q-112 0 -171 49.5t-61 146.5h58q7 -82 51.5 -112t127.5 -30q42 0 78 9.5t62.5 31t41.5 57t15 87.5q0 65 -38.5 96.5t-103.5 31.5h-96l13 56h91z" />
<glyph unicode="&#x418;" horiz-adv-x="682" d="M499 0l132 618l-527 -618h-62l154 721h61l-134 -615l526 615h63l-153 -721h-60z" />
<glyph unicode="&#x419;" horiz-adv-x="682" d="M499 0l132 618l-527 -618h-62l154 721h61l-134 -615l526 615h63l-153 -721h-60zM474 796q-65 0 -97.5 27.5t-32.5 76.5q0 11 3 28h48q-2 -9 -2 -13v-9q0 -14 4 -26t13.5 -21.5t25.5 -14.5t42 -5q42 0 72 21.5t44 67.5h48q-16 -66 -59 -99t-109 -33z" />
<glyph unicode="&#x41a;" horiz-adv-x="624" d="M232 404q61 0 104.5 31t84.5 90l63 91q21 30 40 50.5t40 32.5t42.5 17t46.5 5q9 0 17 -1t15 -2q7 -2 14 -3l-17 -52l-10 2t-11 1.5t-14 0.5q-16 0 -29 -2.5t-26 -11t-27.5 -23.5t-32.5 -41l-65 -95q-29 -42 -56.5 -69t-72.5 -44q24 -8 42 -28t37 -61l133 -292h-65 l-109 247q-12 29 -25.5 48t-28.5 30t-34.5 16t-46.5 5h-63l-74 -346h-62l153 721h62l-68 -317h43z" />
<glyph unicode="&#x41b;" horiz-adv-x="718" d="M675 667h-264l-93 -297q-36 -115 -73 -188t-76.5 -114.5t-83 -57t-91.5 -15.5h-13l11 57h13q34 0 66.5 14t65 53.5t64.5 109.5t68 181l97 311h381l-152 -721h-62z" />
<glyph unicode="&#x41c;" horiz-adv-x="846" d="M352 0l-122 614l-130 -614h-58l153 721h77l124 -649l401 649h79l-153 -721h-57l131 617l-386 -617h-59z" />
<glyph unicode="&#x41d;" horiz-adv-x="695" d="M511 0l73 344h-407l-73 -344h-62l153 721h62l-68 -319h407l68 319h61l-152 -721h-62z" />
<glyph unicode="&#x41e;" horiz-adv-x="763" d="M471 739q59 0 111 -20t90.5 -58.5t60 -93.5t21.5 -126q0 -83 -25.5 -165t-75.5 -147.5t-122 -106t-166 -40.5q-60 0 -112 20t-90.5 58t-60 93t-21.5 126q0 83 26.5 165.5t76.5 148t122.5 106t164.5 40.5zM367 36q75 0 135.5 35t101.5 92t63 129.5t22 146.5q0 54 -14 99 t-42.5 77.5t-69.5 51t-94 18.5q-76 0 -136 -35.5t-101.5 -92t-63.5 -129t-22 -146.5q0 -54 14.5 -99.5t42.5 -77.5t69 -50.5t95 -18.5z" />
<glyph unicode="&#x41f;" horiz-adv-x="684" d="M252 666l-140 -666h-62l153 721h519l-152 -721h-62l140 666h-396z" />
<glyph unicode="&#x420;" horiz-adv-x="625" d="M649 545q0 -66 -22.5 -114t-63.5 -79t-98.5 -45.5t-127.5 -14.5h-172l-62 -292h-61l153 721h229q65 0 108 -16t69 -41.5t37 -56.5t11 -62zM346 345q54 0 98.5 10t75.5 33t48.5 61.5t17.5 96.5q0 27 -9 49t-29.5 38t-53 25.5t-80.5 9.5h-170l-68 -323h170z" />
<glyph unicode="&#x421;" horiz-adv-x="716" d="M674 221q-12 -50 -37.5 -94t-64.5 -76.5t-91.5 -50.5t-119.5 -18q-60 0 -111.5 20t-89.5 58t-59 93t-21 125q0 92 25.5 175.5t75 147.5t120.5 101t162 37q113 0 177 -61t75 -172l-62 -12q-13 98 -58.5 145t-136.5 47q-72 0 -129.5 -32t-98 -86.5t-62.5 -127.5t-22 -156 q0 -52 14.5 -97t41.5 -78.5t68 -53t95 -19.5q52 0 92.5 14t70.5 38.5t49.5 58.5t28.5 74h68z" />
<glyph unicode="&#x422;" horiz-adv-x="595" d="M429 665l-140 -665h-62l141 665h-251l12 56h562l-12 -56h-250z" />
<glyph unicode="&#x423;" horiz-adv-x="576" d="M36 54q21 -10 37.5 -14.5t39.5 -4.5q33 0 57 17t51 59l54 82l-148 528h66l121 -470l292 470h69l-357 -564q-31 -50 -55.5 -83.5t-47.5 -54t-47.5 -29t-55.5 -8.5q-48 0 -96 22z" />
<glyph unicode="&#x424;" horiz-adv-x="816" d="M338 0l20 93q-56 5 -104.5 21.5t-84.5 46t-56.5 71.5t-20.5 97q0 82 30 144t82 104.5t123 66t154 26.5l17 81h62l-19 -83q56 -5 104.5 -22t85 -45.5t57 -70.5t20.5 -98q0 -83 -30 -145t-82 -104.5t-123 -65t-154 -25.5l-19 -92h-62zM743 434q0 46 -15.5 78.5t-44 55.5 t-67 35t-85.5 16l-101 -478q69 3 126.5 21.5t99 53.5t64.5 89.5t23 128.5zM157 327q0 -45 15.5 -78.5t43.5 -55.5t67 -35t86 -17l101 478q-69 -3 -126.5 -21t-99 -53.5t-64.5 -89.5t-23 -128z" />
<glyph unicode="&#x425;" horiz-adv-x="619" d="M383 375l183 -375h-71l-159 332l-292 -332h-70l336 384l-164 337h69l140 -299l265 299h70z" />
<glyph unicode="&#x426;" horiz-adv-x="665" d="M542 0h-500l153 721h62l-141 -665h372l140 665h62l-141 -665h64l-49 -231h-59z" />
<glyph unicode="&#x427;" horiz-adv-x="637" d="M441 0l75 333q-42 -15 -89 -24t-92 -9q-46 0 -84.5 10t-66 31t-43.5 53t-16 77q0 14 1.5 31t5.5 34l40 185h61l-34 -162q-5 -23 -8 -42t-3 -36q0 -65 37 -96t124 -31q46 0 91 8.5t89 23.5l75 335h63l-163 -721h-63z" />
<glyph unicode="&#x428;" horiz-adv-x="942" d="M411 56l141 665h62l-141 -665h297l140 665h62l-153 -721h-777l153 721h62l-141 -665h295z" />
<glyph unicode="&#x429;" horiz-adv-x="946" d="M824 0h-782l153 721h62l-141 -665h295l141 665h62l-141 -665h297l140 665h62l-141 -665h64l-50 -231h-58z" />
<glyph unicode="&#x42a;" horiz-adv-x="685" d="M245 439h155q59 0 105.5 -10.5t79.5 -33.5t50.5 -60t17.5 -89q0 -118 -72 -182t-231 -64h-259l140 666h-152l12 55h214zM233 386l-69 -332h196q120 0 175.5 44t55.5 149q0 69 -45 104t-128 35h-185z" />
<glyph unicode="&#x42b;" horiz-adv-x="832" d="M332 439q59 0 106 -10.5t79.5 -33.5t50.5 -60t18 -89q0 -118 -72.5 -182t-230.5 -64h-241l153 721h62l-60 -282h135zM647 0l153 721h62l-153 -721h-62zM185 386l-70 -332h177q120 0 175.5 44t55.5 149q0 69 -45 104t-128 35h-165z" />
<glyph unicode="&#x42c;" horiz-adv-x="625" d="M299 55q120 0 175.5 43.5t55.5 148.5q0 69 -45 104t-127 35h-173l-70 -331h184zM42 0l153 721h62l-60 -282h142q59 0 106 -10.5t80 -33.5t50.5 -60t17.5 -89q0 -118 -72.5 -182t-230.5 -64h-248z" />
<glyph unicode="&#x42d;" horiz-adv-x="717" d="M643 397q1 10 1.5 20.5t0.5 21.5q0 55 -14.5 100t-41 77t-65 50.5t-87.5 18.5q-88 0 -152 -43.5t-99 -129.5l-59 17q43 102 122 156t187 54q59 0 108.5 -20t86 -58t57 -93.5t20.5 -126.5q0 -82 -22 -164t-68.5 -147.5t-119.5 -106.5t-173 -41q-51 0 -95.5 15t-78 44.5 t-53.5 72t-24 95.5h60q10 -77 58.5 -125t134.5 -48q71 0 124 25t90.5 67.5t60.5 98t33 116.5h-363l11 54h360z" />
<glyph unicode="&#x42e;" horiz-adv-x="978" d="M699 739q57 0 106.5 -20t86 -58.5t57.5 -93.5t21 -126q0 -83 -25.5 -165t-73.5 -147.5t-118 -106t-160 -40.5q-58 0 -107.5 20t-85.5 58t-57 93t-21 126q0 16 1 32t3 33h-149l-73 -344h-62l153 721h62l-68 -320h147q15 67 47 128.5t78 108t106 74t132 27.5zM595 36 q73 0 130 35t97 92t61 129.5t21 146.5q0 54 -13 99t-39.5 77.5t-65.5 51t-89 18.5q-73 0 -130.5 -35.5t-97.5 -92t-61.5 -129t-21.5 -146.5q0 -54 13.5 -99.5t40 -77.5t65.5 -50.5t90 -18.5z" />
<glyph unicode="&#x42f;" horiz-adv-x="653" d="M275 333q-57 18 -89.5 59t-32.5 106q0 107 72 165t231 58h227l-153 -721h-61l66 315h-142q-66 0 -108 -29t-82 -91l-131 -195h-71l149 224q23 33 50 62.5t75 46.5zM547 368l63 299h-164q-121 0 -176 -38.5t-55 -131.5q0 -57 39.5 -93t122.5 -36h170z" />
<glyph unicode="&#x430;" horiz-adv-x="531" d="M25 124q0 56 22.5 93t62 59.5t94.5 33t119 13.5l106 4l2 10q2 13 4 27t2 25q0 47 -26.5 75.5t-94.5 28.5q-37 0 -63.5 -4.5t-44.5 -14.5t-30.5 -27.5t-22.5 -42.5l-55 9q24 71 77 100t144 29q90 0 133 -40.5t43 -112.5q0 -14 -2 -30t-5 -31l-70 -328h-58l15 74 q-36 -36 -82.5 -61t-114.5 -25t-111.5 37t-43.5 99zM188 40q33 0 66 8t58 25q20 13 35 25.5t25.5 26.5t18 32.5t12.5 42.5l17 81l-98 -4q-66 -3 -111 -12.5t-72.5 -28.5t-39 -46t-11.5 -65q0 -34 22 -59.5t78 -25.5z" />
<glyph unicode="&#x431;" horiz-adv-x="589" d="M276 -18q-51 0 -89.5 17.5t-64.5 49.5t-39.5 76t-13.5 95q0 52 8.5 105t27 103t47.5 95.5t68 83.5q23 22 51.5 39.5t63.5 31.5t78.5 25t97.5 22l68 13l-3 -54l-81 -15q-87 -18 -140 -39.5t-91 -54.5q-30 -27 -57.5 -68.5t-46.5 -102.5q34 37 83.5 64t116.5 27 q49 0 84.5 -18t58.5 -47t34 -66t11 -73q0 -70 -19.5 -126.5t-56 -97.5t-86.5 -63t-110 -22zM346 444q-46 0 -86.5 -18t-70.5 -50q-25 -27 -41.5 -60t-16.5 -73q0 -44 6.5 -83t24 -67t47.5 -44.5t79 -16.5q44 0 80.5 20t62.5 52.5t40 76t14 91.5q0 36 -7 67.5t-23.5 55 t-43 36.5t-65.5 13z" />
<glyph unicode="&#x432;" horiz-adv-x="538" d="M522 414q0 -49 -27 -88t-83 -55q18 -6 32.5 -18t24 -27t14.5 -32t5 -33q0 -74 -51 -117.5t-167 -43.5h-240l110 526h227q46 0 76.5 -11t47.5 -27.5t24 -36.5t7 -37zM318 296q27 0 53 5.5t46.5 18t33 34t12.5 51.5q0 31 -23 51.5t-84 20.5h-167l-39 -181h168zM99 49h173 q86 0 120.5 27.5t34.5 82.5q0 36 -24.5 61.5t-85.5 25.5h-177z" />
<glyph unicode="&#x433;" horiz-adv-x="417" d="M141 526h337l-11 -52h-278l-100 -474h-59z" />
<glyph unicode="&#x434;" horiz-adv-x="552" d="M-27 52h52q33 29 67 87.5t68 160.5l73 226h311l-100 -474h60l-40 -193h-54l30 141h-427l-29 -141h-54zM203 264q-13 -40 -25.5 -70.5t-25.5 -56t-27.5 -46t-30.5 -39.5h293l89 424h-203z" />
<glyph unicode="&#x435;" horiz-adv-x="565" d="M119 211q0 -37 9 -69.5t29 -56.5t50.5 -38.5t73.5 -14.5q37 0 64 8t45.5 22t30.5 33t20 41h58q-12 -33 -29.5 -61.5t-43.5 -48.5t-62.5 -31t-86.5 -11q-55 0 -96 18t-68 49.5t-40.5 72t-13.5 85.5q0 81 22 143t60.5 104.5t89.5 64t109 21.5q49 0 86 -15.5t61 -42.5 t36 -64t12 -80q0 -15 -1 -36.5t-4 -38.5l-3 -17h-407q-1 -10 -1 -18v-19zM335 495q-79 0 -133.5 -50.5t-73.5 -145.5h348q2 9 2.5 22t0.5 24q0 66 -35.5 108t-108.5 42z" />
<glyph unicode="&#x436;" horiz-adv-x="738" d="M361 290l49 236h58l-50 -236h23q43 0 72.5 18t58.5 61l47 70q15 23 29 39.5t29 27t33 15.5t42 5q8 0 15 -1t12 -2q6 -1 11 -2l-16 -47l-10 2t-11 1.5t-11 0.5q-26 0 -41.5 -15t-32.5 -41l-49 -74q-19 -29 -39.5 -46t-49.5 -29q18 -8 31 -23.5t24 -38.5l101 -211h-64 l-92 195q-12 26 -32 37.5t-56 11.5h-34l-51 -244h-58l51 244h-31q-31 0 -56 -11.5t-48 -37.5l-175 -195h-72l190 211q21 24 39.5 38.5t40.5 22.5q-20 8 -32.5 26t-20.5 50l-20 81q-6 23 -14 37t-34 14q-6 0 -12 -0.5t-11 -1.5q-6 -1 -11 -2l4 45q6 1 13 2q6 1 12.5 2t14.5 1 q23 0 38 -5t24 -15.5t15 -26.5t11 -39l17 -71q10 -43 35.5 -61t64.5 -18h29z" />
<glyph unicode="&#x437;" horiz-adv-x="514" d="M323 542q31 0 62 -7t57.5 -22.5t43 -40.5t16.5 -60q0 -58 -34.5 -91.5t-82.5 -47.5q39 -19 57 -50t18 -63q0 -92 -58.5 -134t-162.5 -42q-39 0 -75 8.5t-63 27t-44.5 49t-19.5 73.5h55q8 -61 47 -84.5t98 -23.5q35 0 64 4.5t51 18t34 36.5t12 61q0 39 -27 67.5t-81 28.5 h-110l10 49h108q25 0 51 5t46.5 17t33.5 32.5t13 50.5q0 38 -29 63t-94 25q-40 0 -68.5 -5.5t-48.5 -17t-33 -29t-23 -39.5l-52 10q19 61 73 96t156 35z" />
<glyph unicode="&#x438;" horiz-adv-x="557" d="M381 0l94 439l-380 -439h-65l112 526h59l-94 -437l377 437h67l-112 -526h-58z" />
<glyph unicode="&#x439;" horiz-adv-x="557" d="M381 0l94 439l-380 -439h-65l112 526h59l-94 -437l377 437h67l-112 -526h-58zM362 596q-65 0 -97.5 27.5t-32.5 76.5q0 11 3 28h48q-2 -9 -2 -13v-9q0 -14 4 -26t13.5 -21.5t25.5 -14.5t42 -5q42 0 72 21.5t44 67.5h48q-16 -66 -59 -99t-109 -33z" />
<glyph unicode="&#x43a;" horiz-adv-x="483" d="M90 0h-59l111 526h59l-49 -236h47q40 0 66 18.5t54 60.5l53 77q14 22 26.5 37t26.5 24.5t32.5 14t44.5 4.5q12 0 23.5 -2t15.5 -4l-16 -47l-10 2t-10.5 2t-10.5 1q-29 0 -44 -15t-32 -41l-49 -74q-20 -29 -38 -45t-46 -30q20 -8 32.5 -23.5t23.5 -38.5l94 -211h-63 l-85 195q-11 26 -32 37.5t-59 11.5h-55z" />
<glyph unicode="&#x43b;" horiz-adv-x="562" d="M557 526l-112 -526h-58l100 476h-203l-68 -201q-26 -77 -51 -130.5t-53 -87t-62.5 -48t-79.5 -14.5h-10l10 53h8q27 0 51.5 11t47 40t45.5 80t50 132l69 215h316z" />
<glyph unicode="&#x43c;" horiz-adv-x="694" d="M30 0l117 526h78l90 -464l288 464h86l-115 -526h-58l100 454l-285 -454h-55l-88 449l-100 -449h-58z" />
<glyph unicode="&#x43d;" horiz-adv-x="571" d="M30 0l111 526h59l-47 -224h307l47 224h59l-112 -526h-58l52 250h-307l-52 -250h-59z" />
<glyph unicode="&#x43e;" horiz-adv-x="598" d="M267 -16q-46 0 -84 15.5t-65 44.5t-42.5 69.5t-15.5 89.5q0 79 23.5 141.5t64.5 106.5t95.5 67.5t116.5 23.5q45 0 83 -15.5t65 -44.5t43 -69t16 -90q0 -79 -23.5 -142t-63.5 -107t-95 -67t-118 -23zM272 34q52 0 95 22t73.5 60.5t47 90.5t16.5 111q0 79 -38 126.5 t-111 47.5q-53 0 -96 -22t-73 -60t-47 -90t-17 -112q0 -79 38 -126.5t112 -47.5z" />
<glyph unicode="&#x43f;" horiz-adv-x="557" d="M382 0l100 474h-293l-100 -474h-59l111 526h410l-111 -526h-58z" />
<glyph unicode="&#x440;" horiz-adv-x="588" d="M46 -196h-58l152 722h59l-16 -78q40 46 86.5 70t104.5 24q51 0 86 -18.5t57 -49.5t32 -70t10 -81q0 -60 -18.5 -121t-54.5 -109.5t-88.5 -78.5t-121.5 -30q-53 0 -98.5 23.5t-72.5 72.5zM279 34q48 0 88 23t69 62t44.5 90.5t15.5 108.5q0 88 -34 131t-95 43q-33 0 -58 -8 t-53 -27q-40 -27 -68 -67t-42 -101q-6 -27 -9.5 -46t-5.5 -32t-2.5 -21.5t-0.5 -15.5q0 -37 11 -60.5t34 -43.5q20 -17 45.5 -26.5t60.5 -9.5z" />
<glyph unicode="&#x441;" horiz-adv-x="559" d="M482 359q-3 24 -10 47.5t-22.5 42.5t-40.5 31t-65 12q-50 0 -91 -21t-70 -58t-45 -89t-16 -114q0 -38 8 -70t26.5 -55.5t47 -37t70.5 -13.5q38 0 67 10.5t49.5 28t34 41t22.5 50.5h60q-12 -40 -32.5 -72.5t-49.5 -56.5t-68.5 -37.5t-88.5 -13.5q-52 0 -91 17t-65.5 47 t-39.5 70t-13 86q0 81 23 144t62.5 106t91.5 65.5t109 22.5q50 0 85.5 -14t58 -38t34 -55.5t14.5 -64.5z" />
<glyph unicode="&#x442;" horiz-adv-x="454" d="M259 475h-189l11 51h434l-11 -51h-187l-100 -475h-58z" />
<glyph unicode="&#x443;" horiz-adv-x="505" d="M187 10l-115 516h63l96 -449l264 449h70l-372 -604q-17 -28 -32.5 -49.5t-31.5 -37t-34.5 -23.5t-44.5 -8q-23 0 -41.5 4t-32.5 11l19 48q9 -4 21 -7.5t27 -3.5q19 0 31 4.5t23 14.5t22 27t27 43z" />
<glyph unicode="&#x444;" horiz-adv-x="747" d="M263 -196l41 197q-54 4 -99 21.5t-77.5 46.5t-50.5 69t-18 88q0 72 27.5 126t75.5 90.5t112.5 55.5t139.5 22l43 201h56l-43 -204q51 -4 95 -21t76.5 -47t50.5 -70.5t18 -90.5q0 -70 -26 -123t-73 -89.5t-111 -55.5t-139 -21l-42 -195h-56zM121 229q0 -38 14 -70.5 t39.5 -56t61 -37t78.5 -15.5l89 420q-135 -3 -208.5 -65t-73.5 -176zM647 284q0 40 -13.5 73.5t-37.5 57t-59 38t-77 16.5l-89 -421q132 7 204 66t72 170z" />
<glyph unicode="&#x445;" horiz-adv-x="484" d="M267 318l187 208h68l-226 -252l136 -274h-62l-116 237l-212 -237h-69l253 284l-124 242h63z" />
<glyph unicode="&#x446;" horiz-adv-x="549" d="M141 526h59l-100 -474h283l100 474h58l-100 -474h60l-40 -193h-54l30 141h-407z" />
<glyph unicode="&#x447;" horiz-adv-x="503" d="M328 0l48 223q-30 -11 -65.5 -18.5t-68.5 -7.5q-36 0 -67.5 8.5t-54 25.5t-35.5 43t-13 61q0 11 1.5 22.5t3.5 23.5l30 145h59l-27 -125q-8 -35 -8 -60q0 -47 29 -70.5t100 -23.5q31 0 63 7.5t63 18.5l53 253h59l-111 -526h-59z" />
<glyph unicode="&#x448;" horiz-adv-x="790" d="M200 526l-100 -474h238l101 474h59l-101 -474h241l100 474h59l-111 -526h-656l111 526h59z" />
<glyph unicode="&#x449;" horiz-adv-x="796" d="M200 526l-100 -474h234l101 474h59l-101 -474h237l100 474h59l-100 -474h59l-40 -193h-54l31 141h-655l111 526h59z" />
<glyph unicode="&#x44a;" horiz-adv-x="562" d="M251 526l-43 -207h134q87 0 134.5 -34.5t47.5 -108.5q0 -86 -54 -131t-170 -45h-218l100 476h-121l10 50h180zM197 270l-47 -221h158q82 0 118.5 28t36.5 97q0 46 -26.5 71t-82.5 25h-157z" />
<glyph unicode="&#x44b;" horiz-adv-x="682" d="M513 0l111 526h59l-111 -526h-59zM291 319q87 0 134.5 -34.5t47.5 -108.5q0 -86 -54 -131t-171 -45h-218l111 526h59l-43 -207h134zM145 270l-46 -221h158q81 0 117.5 28t36.5 97q0 46 -26 71t-83 25h-157z" />
<glyph unicode="&#x44c;" horiz-adv-x="523" d="M269 49q81 0 117.5 28t36.5 97q0 46 -26 71t-83 25h-169l-46 -221h170zM30 0l111 526h59l-43 -207h146q87 0 134.5 -34.5t47.5 -108.5q0 -86 -54 -131t-170 -45h-231z" />
<glyph unicode="&#x44d;" horiz-adv-x="554" d="M214 293h245q4 17 4 49q0 69 -36.5 109.5t-98.5 40.5q-68 0 -109 -26t-64 -83l-55 12q29 75 86.5 111t145.5 36q85 0 137.5 -54.5t52.5 -142.5q0 -109 -37 -191t-101 -126t-146 -44q-84 0 -135 44.5t-58 123.5h57q15 -118 142 -118q77 0 131 55t73 154h-244z" />
<glyph unicode="&#x44e;" horiz-adv-x="772" d="M454 -16q-41 0 -76 14t-60 42.5t-39 68.5t-14 94v19t1 19h-127l-50 -241h-59l111 526h59l-50 -235h123q12 58 37.5 104.5t62 79.5t81 50t93.5 17q42 0 77.5 -15t61 -43t40 -69t14.5 -92q0 -79 -22 -142t-61 -107t-91 -67t-112 -23zM460 34q48 0 88.5 22t69 60.5 t44.5 90.5t16 111q0 82 -34.5 128t-101.5 46q-48 0 -88.5 -22t-68.5 -60t-44 -90t-16 -112q0 -82 34 -128t101 -46z" />
<glyph unicode="&#x44f;" horiz-adv-x="536" d="M361 0l47 225h-120q-34 0 -56 -12t-42 -37l-137 -176h-69l144 187q17 23 32.5 34t32.5 17q-46 11 -72 42t-26 80q0 81 54 123.5t170 42.5h211l-111 -526h-58zM157 360q0 -38 26 -61.5t83 -23.5h152l43 202h-150q-82 0 -118 -26.5t-36 -90.5z" />
<glyph unicode="&#x450;" horiz-adv-x="565" d="M119 211q0 -37 9 -69.5t29 -56.5t50.5 -38.5t73.5 -14.5q37 0 64 8t45.5 22t30.5 33t20 41h58q-12 -33 -29.5 -61.5t-43.5 -48.5t-62.5 -31t-86.5 -11q-55 0 -96 18t-68 49.5t-40.5 72t-13.5 85.5q0 81 22 143t60.5 104.5t89.5 64t109 21.5q49 0 86 -15.5t61 -42.5 t36 -64t12 -80q0 -15 -1 -36.5t-4 -38.5l-3 -17h-407q-1 -10 -1 -18v-19zM335 495q-79 0 -133.5 -50.5t-73.5 -145.5h348q2 9 2.5 22t0.5 24q0 66 -35.5 108t-108.5 42zM361 596l-106 135h75l90 -135h-59z" />
<glyph unicode="&#x451;" horiz-adv-x="565" d="M119 211q0 -37 9 -69.5t29 -56.5t50.5 -38.5t73.5 -14.5q37 0 64 8t45.5 22t30.5 33t20 41h58q-12 -33 -29.5 -61.5t-43.5 -48.5t-62.5 -31t-86.5 -11q-55 0 -96 18t-68 49.5t-40.5 72t-13.5 85.5q0 81 22 143t60.5 104.5t89.5 64t109 21.5q49 0 86 -15.5t61 -42.5 t36 -64t12 -80q0 -15 -1 -36.5t-4 -38.5l-3 -17h-407q-1 -10 -1 -18v-19zM335 495q-79 0 -133.5 -50.5t-73.5 -145.5h348q2 9 2.5 22t0.5 24q0 66 -35.5 108t-108.5 42zM234 625l18 86h65l-18 -86h-65zM395 625l18 86h67l-18 -86h-67z" />
<glyph unicode="&#x452;" horiz-adv-x="585" d="M485 302q3 14 5 27.5t2 28.5q0 47 -22 76t-76 29q-29 0 -64 -12.5t-67 -37.5q-33 -26 -56.5 -54t-33.5 -74l-61 -285h-58l125 593h-93l10 44h92l18 84h59l-19 -84h194l-10 -44h-193l-37 -179q50 55 103 78t100 23q73 0 110.5 -39.5t37.5 -108.5q0 -4 -0.5 -10.5t-3 -19.5 t-7 -37t-13 -65.5t-21 -103t-31.5 -149.5q-8 -36 -18.5 -66.5t-27.5 -53.5t-43 -36.5t-66 -13.5q-34 0 -55 6t-35 12l20 49q13 -5 29 -9.5t41 -4.5q42 0 62 24.5t29 67.5z" />
<glyph unicode="&#x453;" horiz-adv-x="417" d="M141 526h337l-11 -52h-278l-100 -474h-59zM250 596l134 135h83l-151 -135h-66z" />
<glyph unicode="&#x454;" horiz-adv-x="554" d="M371 243h-251q-1 -9 -1 -17v-16q0 -38 9 -70t28.5 -55.5t48.5 -37t69 -13.5q37 0 65 9.5t48.5 25.5t34 37t22.5 46h57q-13 -37 -33 -67.5t-47.5 -53t-65.5 -35t-87 -12.5q-50 0 -89 17t-65.5 47t-40.5 70t-14 86q0 81 23.5 144t63.5 106t91.5 65.5t106.5 22.5 q46 0 78 -11.5t55 -31t36 -47t19 -58.5l-54 -12q-5 22 -13 42t-23.5 35.5t-39 24t-59.5 8.5q-41 0 -76.5 -14t-63.5 -40.5t-47.5 -63t-28.5 -81.5h254z" />
<glyph unicode="&#x455;" horiz-adv-x="519" d="M445 142q0 -41 -17.5 -71t-47 -49t-66.5 -28.5t-78 -9.5q-36 0 -73 7.5t-66 26t-47.5 49.5t-18.5 77h57q0 -32 12.5 -53.5t34 -34.5t49 -18t58.5 -5q38 0 64.5 8.5t44 23.5t25.5 34.5t8 41.5q0 43 -18.5 62.5t-68.5 30.5l-60 13q-74 18 -107.5 48t-33.5 87q0 40 17 70.5 t45.5 50.5t65.5 29.5t75 9.5q50 0 85 -11t57 -30t33.5 -45.5t15.5 -55.5l-54 -10q-5 26 -14.5 45t-26 32t-41 19t-59.5 6q-75 0 -107.5 -30.5t-32.5 -70.5q0 -18 4 -32t14.5 -24.5t29 -19t47.5 -14.5l66 -14q61 -13 95 -45t34 -100z" />
<glyph unicode="&#x456;" horiz-adv-x="206" d="M33 0l111 526h59l-111 -526h-59zM159 633l18 88h66l-18 -88h-66z" />
<glyph unicode="&#x457;" horiz-adv-x="206" d="M33 0l111 526h59l-111 -526h-59zM66 625l18 86h65l-18 -86h-65zM227 625l18 86h67l-18 -86h-67z" />
<glyph unicode="&#x458;" horiz-adv-x="206" d="M88 -18q-8 -36 -18 -66.5t-27.5 -53.5t-43.5 -36.5t-66 -13.5q-34 0 -54.5 6t-35.5 12l21 49q12 -5 28 -9.5t41 -4.5q42 0 62 24.5t29 67.5l120 569h59zM159 633l18 88h66l-18 -88h-66z" />
<glyph unicode="&#x459;" horiz-adv-x="845" d="M216 275q-26 -77 -51 -130.5t-53 -87t-62.5 -48t-79.5 -14.5h-10l10 53h8q27 0 51.5 11t47 40t45.5 80t50 132l69 215h293l-43 -207h134q87 0 134.5 -34.5t47.5 -108.5q0 -86 -54 -131t-170 -45h-218l100 476h-181zM480 270l-47 -221h158q82 0 118 28t36 97q0 46 -26 71 t-83 25h-156z" />
<glyph unicode="&#x45a;" horiz-adv-x="845" d="M591 49q82 0 118 27.5t36 94.5q0 44 -26 68.5t-83 24.5h-156l-46 -215h157zM366 0l55 263h-277l-55 -263h-59l111 526h59l-45 -212h276l46 212h58l-45 -213h137q87 0 133.5 -35.5t46.5 -104.5q0 -82 -54 -127.5t-170 -45.5h-217z" />
<glyph unicode="&#x45b;" horiz-adv-x="601" d="M263 637h214l-11 -44h-214l-37 -179q51 55 103.5 78t99.5 23q73 0 111 -39.5t38 -108.5q0 -26 -6 -54l-67 -313h-59l65 302q3 14 5 27.5t2 28.5q0 47 -21.5 76t-76.5 29q-29 0 -64 -12.5t-67 -37.5q-33 -26 -56.5 -54t-33.5 -74l-61 -285h-58l125 593h-100l11 44h99 l17 84h59z" />
<glyph unicode="&#x45c;" horiz-adv-x="483" d="M90 0h-59l111 526h59l-49 -236h47q40 0 66 18.5t54 60.5l53 77q14 22 26.5 37t26.5 24.5t32.5 14t44.5 4.5q12 0 23.5 -2t15.5 -4l-16 -47l-10 2t-10.5 2t-10.5 1q-29 0 -44 -15t-32 -41l-49 -74q-20 -29 -38 -45t-46 -30q20 -8 32.5 -23.5t23.5 -38.5l94 -211h-63 l-85 195q-11 26 -32 37.5t-59 11.5h-55zM286 596l134 135h83l-151 -135h-66z" />
<glyph unicode="&#x45d;" horiz-adv-x="557" d="M381 0l94 439l-380 -439h-65l112 526h59l-94 -437l377 437h67l-112 -526h-58zM365 596l-106 135h75l90 -135h-59z" />
</font>
</defs>
</svg>
