<?xml version="1.0" encoding="utf-8"?>
<!-- Generator: Adobe Illustrator 19.2.1, SVG Export Plug-In . SVG Version: 6.00 Build 0)  -->
<svg version="1.1" id="Layer_1" xmlns="http://www.w3.org/2000/svg" xmlns:xlink="http://www.w3.org/1999/xlink" x="0px" y="0px"
	 viewBox="0 0 601.6 212.6" style="enable-background:new 0 0 601.6 212.6;" xml:space="preserve">
<style type="text/css">
	.st0{fill:#009639;}
</style>
<g>
	<g>
		<polygon points="200.7,52 220.6,52 264,121.5 264,52 285.4,52 285.4,158.1 265.8,158.1 222.2,89.1 222.2,158.1 200.7,158.1 		"/>
		<path d="M334.1,160.6c-12.4,0-22-3.5-28.8-10.8c-6.8-7.1-10.2-17.3-10.2-30.6c0-6.4,1-12.1,2.7-17.1c1.8-5,4.5-9.4,7.9-12.9
			s7.5-6.3,12.4-8.2c4.8-1.9,10.2-2.9,16.1-2.9c6,0,11.4,1,16.2,2.9c4.8,1.9,9,4.6,12.4,8.2s6,7.9,7.8,12.9s2.7,10.9,2.7,17.1
			c0,6.4-1,12.2-2.7,17.3c-1.8,5.2-4.5,9.4-7.9,13.1c-3.4,3.5-7.5,6.3-12.4,8.2C345.4,159.6,340.1,160.6,334.1,160.6 M334.1,143.8
			c5.9,0,10.3-2.2,13.2-6.4c2.9-4.2,4.4-10.3,4.4-18.2s-1.5-14-4.4-18.1c-2.9-4.2-7.3-6.3-13.2-6.3c-5.9,0-10.3,2-13.2,6.3
			c-2.9,4.2-4.4,10.2-4.4,18.1c0,8,1.4,14.2,4.4,18.4C323.7,141.8,328.1,143.8,334.1,143.8"/>
		<path d="M383.1,79.9h20.1v12.8c4.9-13.2,25.3-12.9,26.3-12.8v17.4c-1.6,0-6.7-0.7-12.9,1.2s-12.8,6.1-12.8,14.7v44.9h-20.7V79.9
			L383.1,79.9z"/>
		<path d="M450.1,97.4H436V80h14.2V59.3h20.7V80h17.7v17.4h-17.7V132c0,4.1,0.8,6.8,2.4,8.3s3.8,2.2,6.5,2.2c1.4,0,2.7-0.1,4.2-0.3
			c1.4-0.1,2.9-0.4,4.2-0.8l4.4,14.8c-2.9,1-7.1,2-9.8,2.3c-2.7,0.4-5.3,0.5-7.8,0.5c-8.4,0-14.7-2-18.8-6.1
			c-4.1-4.1-6.1-10.9-6.1-20.5L450.1,97.4L450.1,97.4z"/>
		<path d="M549.3,148.3c-3,3.5-6.5,6.3-10.2,8.4c-3.8,2.2-8.7,3.3-14.7,3.3c-3.4,0-6.7-0.4-9.8-1.4c-3.1-1-5.9-2.3-8.2-4.2
			c-2.3-1.9-4.2-4.4-5.6-7.2c-1.4-2.9-2-6.4-2-10.5c0-5.3,1.2-9.7,3.5-13.1s5.4-6,9.3-7.9c3.8-1.9,8.2-3.3,12.9-3.9
			c4.8-0.8,9.7-1.2,14.6-1.5l9.9-0.4v-3.8c0-4.8-1.4-8-3.9-9.8c-2.6-1.8-5.7-2.7-9.3-2.7c-8.2,0-12.8,3.1-14,9.4l-18.9-1.8
			c1.4-8.2,4.9-14,10.6-17.6c5.7-3.7,13.3-5.4,23-5.4c5.9,0,10.9,0.7,15.1,2.2c4.1,1.5,7.5,3.5,9.9,6.1c2.4,2.7,4.4,6,5.4,9.8
			c1.1,3.8,1.6,8,1.6,12.8v49H549v-9.8H549.3z M548.8,123.6l-9.1,0.4c-4.4,0.1-7.9,0.7-10.5,1.4c-2.7,0.7-4.8,1.5-6.1,2.6
			c-1.4,1.1-2.4,2.3-2.9,3.7s-0.7,2.9-0.7,4.6c0,2.6,0.8,4.6,2.7,6.1c1.8,1.5,4.2,2.2,7.3,2.2c5.3,0,9.7-1.2,13.1-3.7
			c1.9-1.4,3.4-3.1,4.6-5.3c1.2-2.2,1.8-4.8,1.8-7.9L548.8,123.6L548.8,123.6z"/>
		<rect x="580.9" y="52" width="20.7" height="106.1"/>
	</g>
	<g>
		<path class="st0" d="M4.4,202.1c-2.4,0-4.4-2.3-4.4-5.3V15.6c0-2.9,2-5.3,4.4-5.3s4.4,2.3,4.4,5.3v181.1
			C8.7,199.8,6.8,202.1,4.4,202.1"/>
		<path class="st0" d="M22,212.6c-2.4,0-4.4-2.3-4.4-5.3V5.3c0-2.9,2-5.3,4.4-5.3s4.4,2.3,4.4,5.3v201.9
			C26.4,210.1,24.5,212.6,22,212.6"/>
		<path class="st0" d="M39.7,202.1c-2.4,0-4.4-2.3-4.4-5.3V15.6c0-2.9,2-5.3,4.4-5.3c2.3,0,4.4,2.3,4.4,5.3v181.1
			C44.1,199.8,42.2,202.1,39.7,202.1"/>
		<path class="st0" d="M110.5,202.1c-2.4,0-4.4-2.3-4.4-5.3V15.6c0-2.9,2-5.3,4.4-5.3s4.4,2.3,4.4,5.3v181.1
			C115,199.8,112.9,202.1,110.5,202.1"/>
		<path class="st0" d="M128.2,212.6c-2.4,0-4.4-2.3-4.4-5.3V5.3c0-2.9,2-5.3,4.4-5.3c2.3,0,4.4,2.3,4.4,5.3v201.9
			C132.7,210.1,130.6,212.6,128.2,212.6"/>
		<path class="st0" d="M145.9,202.1c-2.4,0-4.4-2.3-4.4-5.3V15.6c0-2.9,2-5.3,4.4-5.3s4.4,2.3,4.4,5.3v181.1
			C150.4,199.8,148.3,202.1,145.9,202.1"/>
		<path class="st0" d="M57.4,139.8c-2.4,0-4.4-2.3-4.4-5.3v-98c0-2.9,2-5.3,4.4-5.3s4.4,2.3,4.4,5.3v98
			C61.8,137.3,59.9,139.8,57.4,139.8"/>
		<path class="st0" d="M75.1,160.6c-2.4,0-4.4-2.3-4.4-5.3v-98c0-2.9,2-5.3,4.4-5.3c2.3,0,4.4,2.3,4.4,5.3v98
			C79.5,158.1,77.6,160.6,75.1,160.6"/>
		<path class="st0" d="M92.8,181.3c-2.4,0-4.4-2.3-4.4-5.3V78c0-2.9,2-5.3,4.4-5.3s4.4,2.3,4.4,5.3v98
			C97.2,178.9,95.3,181.3,92.8,181.3"/>
	</g>
</g>
</svg>
